<ttFont>
    <TTGlyph name="A" xMin="0" yMin="-2" xMax="613" yMax="702">
      <contour>
        <pt x="0" y="20" on="1"/>
        <pt x="0" y="24" on="0"/>
        <pt x="4" y="38" on="1"/>
        <pt x="224" y="681" on="1"/>
        <pt x="232" y="702" on="0"/>
        <pt x="281" y="702" on="1"/>
        <pt x="333" y="702" on="1"/>
        <pt x="382" y="702" on="0"/>
        <pt x="390" y="681" on="1"/>
        <pt x="610" y="38" on="1"/>
        <pt x="613" y="28" on="0"/>
        <pt x="613" y="20" on="1"/>
        <pt x="613" y="-2" on="0"/>
        <pt x="563" y="-2" on="1"/>
        <pt x="519" y="-2" on="1"/>
        <pt x="470" y="-2" on="0"/>
        <pt x="463" y="19" on="1"/>
        <pt x="423" y="141" on="1"/>
        <pt x="187" y="141" on="1"/>
        <pt x="147" y="19" on="1"/>
        <pt x="140" y="-2" on="0"/>
        <pt x="101" y="-2" on="1"/>
        <pt x="61" y="-2" on="1"/>
        <pt x="0" y="-2" on="0"/>
      </contour>
      <contour>
        <pt x="230" y="273" on="1"/>
        <pt x="380" y="273" on="1"/>
        <pt x="323" y="451" on="1"/>
        <pt x="308" y="515" on="1"/>
        <pt x="304" y="515" on="1"/>
        <pt x="295" y="468" on="0"/>
        <pt x="289" y="451" on="1"/>
      </contour>
    </TTGlyph>
    <TTGlyph name="AE" xMin="1" yMin="-2" xMax="865" yMax="700">
      <contour>
        <pt x="1" y="20" on="1"/>
        <pt x="1" y="30" on="0"/>
        <pt x="5" y="38" on="1"/>
        <pt x="326" y="673" on="1"/>
        <pt x="340" y="700" on="0"/>
        <pt x="370" y="700" on="1"/>
        <pt x="834" y="700" on="1"/>
        <pt x="864" y="700" on="0"/>
        <pt x="864" y="650" on="1"/>
        <pt x="864" y="619" on="1"/>
        <pt x="864" y="569" on="0"/>
        <pt x="834" y="569" on="1"/>
        <pt x="517" y="569" on="1"/>
        <pt x="545" y="424" on="1"/>
        <pt x="807" y="424" on="1"/>
        <pt x="837" y="424" on="0"/>
        <pt x="837" y="374" on="1"/>
        <pt x="837" y="343" on="1"/>
        <pt x="837" y="293" on="0"/>
        <pt x="807" y="293" on="1"/>
        <pt x="571" y="293" on="1"/>
        <pt x="602" y="131" on="1"/>
        <pt x="835" y="131" on="1"/>
        <pt x="865" y="131" on="0"/>
        <pt x="865" y="81" on="1"/>
        <pt x="865" y="50" on="1"/>
        <pt x="865" y="0" on="0"/>
        <pt x="835" y="0" on="1"/>
        <pt x="504" y="0" on="1"/>
        <pt x="475" y="0" on="0"/>
        <pt x="469" y="30" on="1"/>
        <pt x="448" y="141" on="1"/>
        <pt x="205" y="141" on="1"/>
        <pt x="145" y="19" on="1"/>
        <pt x="134" y="-2" on="0"/>
        <pt x="99" y="-2" on="1"/>
        <pt x="62" y="-2" on="1"/>
        <pt x="1" y="-2" on="0"/>
      </contour>
      <contour>
        <pt x="391" y="537" on="1"/>
        <pt x="387" y="537" on="1"/>
        <pt x="359" y="455" on="1"/>
        <pt x="270" y="273" on="1"/>
        <pt x="424" y="273" on="1"/>
        <pt x="391" y="454" on="1"/>
      </contour>
    </TTGlyph>
    <TTGlyph name="Aacute" xMin="0" yMin="-2" xMax="613" yMax="934">
      <contour>
        <pt x="0" y="20" on="1"/>
        <pt x="0" y="24" on="0"/>
        <pt x="4" y="38" on="1"/>
        <pt x="224" y="681" on="1"/>
        <pt x="232" y="702" on="0"/>
        <pt x="281" y="702" on="1"/>
        <pt x="333" y="702" on="1"/>
        <pt x="382" y="702" on="0"/>
        <pt x="390" y="681" on="1"/>
        <pt x="610" y="38" on="1"/>
        <pt x="613" y="28" on="0"/>
        <pt x="613" y="20" on="1"/>
        <pt x="613" y="-2" on="0"/>
        <pt x="563" y="-2" on="1"/>
        <pt x="519" y="-2" on="1"/>
        <pt x="470" y="-2" on="0"/>
        <pt x="463" y="19" on="1"/>
        <pt x="423" y="141" on="1"/>
        <pt x="187" y="141" on="1"/>
        <pt x="147" y="19" on="1"/>
        <pt x="140" y="-2" on="0"/>
        <pt x="101" y="-2" on="1"/>
        <pt x="61" y="-2" on="1"/>
        <pt x="0" y="-2" on="0"/>
      </contour>
      <contour>
        <pt x="230" y="273" on="1"/>
        <pt x="380" y="273" on="1"/>
        <pt x="323" y="451" on="1"/>
        <pt x="308" y="515" on="1"/>
        <pt x="304" y="515" on="1"/>
        <pt x="295" y="468" on="0"/>
        <pt x="289" y="451" on="1"/>
      </contour>
      <contour>
        <pt x="260" y="775" on="1"/>
        <pt x="229" y="775" on="0"/>
        <pt x="229" y="790" on="1"/>
        <pt x="229" y="800" on="0"/>
        <pt x="258" y="844" on="0"/>
        <pt x="282" y="886" on="0"/>
        <pt x="294" y="907" on="1"/>
        <pt x="309" y="934" on="0"/>
        <pt x="439" y="934" on="0"/>
        <pt x="439" y="920" on="1"/>
        <pt x="439" y="914" on="0"/>
        <pt x="427" y="898" on="0"/>
        <pt x="391" y="861" on="0"/>
        <pt x="377" y="846" on="0"/>
        <pt x="349" y="815" on="0"/>
        <pt x="335" y="800" on="1"/>
        <pt x="312" y="775" on="0"/>
      </contour>
    </TTGlyph>
    <TTGlyph name="Acircumflex" xMin="0" yMin="-2" xMax="613" yMax="908">
      <contour>
        <pt x="0" y="20" on="1"/>
        <pt x="0" y="24" on="0"/>
        <pt x="4" y="38" on="1"/>
        <pt x="224" y="681" on="1"/>
        <pt x="232" y="702" on="0"/>
        <pt x="281" y="702" on="1"/>
        <pt x="333" y="702" on="1"/>
        <pt x="382" y="702" on="0"/>
        <pt x="390" y="681" on="1"/>
        <pt x="610" y="38" on="1"/>
        <pt x="613" y="28" on="0"/>
        <pt x="613" y="20" on="1"/>
        <pt x="613" y="-2" on="0"/>
        <pt x="563" y="-2" on="1"/>
        <pt x="519" y="-2" on="1"/>
        <pt x="470" y="-2" on="0"/>
        <pt x="463" y="19" on="1"/>
        <pt x="423" y="141" on="1"/>
        <pt x="187" y="141" on="1"/>
        <pt x="147" y="19" on="1"/>
        <pt x="140" y="-2" on="0"/>
        <pt x="101" y="-2" on="1"/>
        <pt x="61" y="-2" on="1"/>
        <pt x="0" y="-2" on="0"/>
      </contour>
      <contour>
        <pt x="230" y="273" on="1"/>
        <pt x="380" y="273" on="1"/>
        <pt x="323" y="451" on="1"/>
        <pt x="308" y="515" on="1"/>
        <pt x="304" y="515" on="1"/>
        <pt x="295" y="468" on="0"/>
        <pt x="289" y="451" on="1"/>
      </contour>
      <contour>
        <pt x="187" y="762" on="1"/>
        <pt x="167" y="762" on="0"/>
        <pt x="167" y="772" on="1"/>
        <pt x="167" y="778" on="0"/>
        <pt x="173" y="787" on="1"/>
        <pt x="238" y="889" on="1"/>
        <pt x="250" y="908" on="0"/>
        <pt x="299" y="908" on="1"/>
        <pt x="310" y="908" on="1"/>
        <pt x="359" y="908" on="0"/>
        <pt x="371" y="889" on="1"/>
        <pt x="436" y="787" on="1"/>
        <pt x="442" y="778" on="0"/>
        <pt x="442" y="772" on="1"/>
        <pt x="442" y="762" on="0"/>
        <pt x="422" y="762" on="1"/>
        <pt x="400" y="762" on="1"/>
        <pt x="348" y="762" on="0"/>
        <pt x="332" y="786" on="1"/>
        <pt x="304" y="826" on="1"/>
        <pt x="276" y="787" on="1"/>
        <pt x="258" y="762" on="0"/>
        <pt x="209" y="762" on="1"/>
      </contour>
    </TTGlyph>
    <TTGlyph name="Adieresis" xMin="0" yMin="-2" xMax="613" yMax="882">
      <contour>
        <pt x="0" y="20" on="1"/>
        <pt x="0" y="24" on="0"/>
        <pt x="4" y="38" on="1"/>
        <pt x="224" y="681" on="1"/>
        <pt x="232" y="702" on="0"/>
        <pt x="281" y="702" on="1"/>
        <pt x="333" y="702" on="1"/>
        <pt x="382" y="702" on="0"/>
        <pt x="390" y="681" on="1"/>
        <pt x="610" y="38" on="1"/>
        <pt x="613" y="28" on="0"/>
        <pt x="613" y="20" on="1"/>
        <pt x="613" y="-2" on="0"/>
        <pt x="563" y="-2" on="1"/>
        <pt x="519" y="-2" on="1"/>
        <pt x="470" y="-2" on="0"/>
        <pt x="463" y="19" on="1"/>
        <pt x="423" y="141" on="1"/>
        <pt x="187" y="141" on="1"/>
        <pt x="147" y="19" on="1"/>
        <pt x="140" y="-2" on="0"/>
        <pt x="101" y="-2" on="1"/>
        <pt x="61" y="-2" on="1"/>
        <pt x="0" y="-2" on="0"/>
      </contour>
      <contour>
        <pt x="230" y="273" on="1"/>
        <pt x="380" y="273" on="1"/>
        <pt x="323" y="451" on="1"/>
        <pt x="308" y="515" on="1"/>
        <pt x="304" y="515" on="1"/>
        <pt x="295" y="468" on="0"/>
        <pt x="289" y="451" on="1"/>
      </contour>
      <contour>
        <pt x="455" y="758" on="0"/>
        <pt x="335" y="758" on="0"/>
        <pt x="335" y="790" on="1"/>
        <pt x="335" y="850" on="1"/>
        <pt x="335" y="882" on="0"/>
        <pt x="455" y="882" on="0"/>
        <pt x="455" y="850" on="1"/>
        <pt x="455" y="790" on="1"/>
      </contour>
      <contour>
        <pt x="275" y="758" on="0"/>
        <pt x="155" y="758" on="0"/>
        <pt x="155" y="790" on="1"/>
        <pt x="155" y="850" on="1"/>
        <pt x="155" y="882" on="0"/>
        <pt x="275" y="882" on="0"/>
        <pt x="275" y="850" on="1"/>
        <pt x="275" y="790" on="1"/>
      </contour>
    </TTGlyph>
    <TTGlyph name="Agrave" xMin="0" yMin="-2" xMax="613" yMax="934">
      <contour>
        <pt x="0" y="20" on="1"/>
        <pt x="0" y="24" on="0"/>
        <pt x="4" y="38" on="1"/>
        <pt x="224" y="681" on="1"/>
        <pt x="232" y="702" on="0"/>
        <pt x="281" y="702" on="1"/>
        <pt x="333" y="702" on="1"/>
        <pt x="382" y="702" on="0"/>
        <pt x="390" y="681" on="1"/>
        <pt x="610" y="38" on="1"/>
        <pt x="613" y="28" on="0"/>
        <pt x="613" y="20" on="1"/>
        <pt x="613" y="-2" on="0"/>
        <pt x="563" y="-2" on="1"/>
        <pt x="519" y="-2" on="1"/>
        <pt x="470" y="-2" on="0"/>
        <pt x="463" y="19" on="1"/>
        <pt x="423" y="141" on="1"/>
        <pt x="187" y="141" on="1"/>
        <pt x="147" y="19" on="1"/>
        <pt x="140" y="-2" on="0"/>
        <pt x="101" y="-2" on="1"/>
        <pt x="61" y="-2" on="1"/>
        <pt x="0" y="-2" on="0"/>
      </contour>
      <contour>
        <pt x="230" y="273" on="1"/>
        <pt x="380" y="273" on="1"/>
        <pt x="323" y="451" on="1"/>
        <pt x="308" y="515" on="1"/>
        <pt x="304" y="515" on="1"/>
        <pt x="295" y="468" on="0"/>
        <pt x="289" y="451" on="1"/>
      </contour>
      <contour>
        <pt x="366" y="775" on="1"/>
        <pt x="314" y="775" on="0"/>
        <pt x="261" y="833" on="0"/>
        <pt x="198" y="900" on="0"/>
        <pt x="187" y="914" on="0"/>
        <pt x="187" y="920" on="1"/>
        <pt x="187" y="934" on="0"/>
        <pt x="317" y="934" on="0"/>
        <pt x="332" y="907" on="1"/>
        <pt x="344" y="886" on="0"/>
        <pt x="368" y="844" on="0"/>
        <pt x="382" y="823" on="0"/>
        <pt x="388" y="813" on="1"/>
        <pt x="397" y="796" on="0"/>
        <pt x="397" y="790" on="1"/>
        <pt x="397" y="775" on="0"/>
      </contour>
    </TTGlyph>
    <TTGlyph name="Aring" xMin="0" yMin="-2" xMax="613" yMax="929">
      <contour>
        <pt x="0" y="20" on="1"/>
        <pt x="0" y="24" on="0"/>
        <pt x="4" y="38" on="1"/>
        <pt x="224" y="681" on="1"/>
        <pt x="232" y="702" on="0"/>
        <pt x="281" y="702" on="1"/>
        <pt x="333" y="702" on="1"/>
        <pt x="382" y="702" on="0"/>
        <pt x="390" y="681" on="1"/>
        <pt x="610" y="38" on="1"/>
        <pt x="613" y="28" on="0"/>
        <pt x="613" y="20" on="1"/>
        <pt x="613" y="-2" on="0"/>
        <pt x="563" y="-2" on="1"/>
        <pt x="519" y="-2" on="1"/>
        <pt x="470" y="-2" on="0"/>
        <pt x="463" y="19" on="1"/>
        <pt x="423" y="141" on="1"/>
        <pt x="187" y="141" on="1"/>
        <pt x="147" y="19" on="1"/>
        <pt x="140" y="-2" on="0"/>
        <pt x="101" y="-2" on="1"/>
        <pt x="61" y="-2" on="1"/>
        <pt x="0" y="-2" on="0"/>
      </contour>
      <contour>
        <pt x="230" y="273" on="1"/>
        <pt x="380" y="273" on="1"/>
        <pt x="323" y="451" on="1"/>
        <pt x="308" y="515" on="1"/>
        <pt x="304" y="515" on="1"/>
        <pt x="295" y="468" on="0"/>
        <pt x="289" y="451" on="1"/>
      </contour>
      <contour>
        <pt x="347" y="730" on="0"/>
        <pt x="263" y="730" on="0"/>
        <pt x="206" y="787" on="0"/>
        <pt x="206" y="871" on="0"/>
        <pt x="263" y="929" on="0"/>
        <pt x="347" y="929" on="0"/>
        <pt x="405" y="871" on="0"/>
        <pt x="405" y="787" on="0"/>
      </contour>
      <contour>
        <pt x="290" y="792" on="0"/>
        <pt x="320" y="792" on="0"/>
        <pt x="342" y="813" on="0"/>
        <pt x="342" y="843" on="0"/>
        <pt x="320" y="865" on="0"/>
        <pt x="290" y="865" on="0"/>
        <pt x="269" y="843" on="0"/>
        <pt x="269" y="813" on="0"/>
      </contour>
    </TTGlyph>
    <TTGlyph name="Atilde" xMin="0" yMin="-2" xMax="613" yMax="888">
      <contour>
        <pt x="0" y="20" on="1"/>
        <pt x="0" y="24" on="0"/>
        <pt x="4" y="38" on="1"/>
        <pt x="224" y="681" on="1"/>
        <pt x="232" y="702" on="0"/>
        <pt x="281" y="702" on="1"/>
        <pt x="333" y="702" on="1"/>
        <pt x="382" y="702" on="0"/>
        <pt x="390" y="681" on="1"/>
        <pt x="610" y="38" on="1"/>
        <pt x="613" y="28" on="0"/>
        <pt x="613" y="20" on="1"/>
        <pt x="613" y="-2" on="0"/>
        <pt x="563" y="-2" on="1"/>
        <pt x="519" y="-2" on="1"/>
        <pt x="470" y="-2" on="0"/>
        <pt x="463" y="19" on="1"/>
        <pt x="423" y="141" on="1"/>
        <pt x="187" y="141" on="1"/>
        <pt x="147" y="19" on="1"/>
        <pt x="140" y="-2" on="0"/>
        <pt x="101" y="-2" on="1"/>
        <pt x="61" y="-2" on="1"/>
        <pt x="0" y="-2" on="0"/>
      </contour>
      <contour>
        <pt x="230" y="273" on="1"/>
        <pt x="380" y="273" on="1"/>
        <pt x="323" y="451" on="1"/>
        <pt x="308" y="515" on="1"/>
        <pt x="304" y="515" on="1"/>
        <pt x="295" y="468" on="0"/>
        <pt x="289" y="451" on="1"/>
      </contour>
      <contour>
        <pt x="232" y="795" on="1"/>
        <pt x="187" y="784" on="1"/>
        <pt x="171" y="784" on="0"/>
        <pt x="145" y="813" on="0"/>
        <pt x="145" y="850" on="0"/>
        <pt x="212" y="888" on="0"/>
        <pt x="281" y="888" on="0"/>
        <pt x="360" y="868" on="0"/>
        <pt x="378" y="868" on="1"/>
        <pt x="424" y="879" on="1"/>
        <pt x="439" y="879" on="0"/>
        <pt x="465" y="850" on="0"/>
        <pt x="465" y="813" on="0"/>
        <pt x="398" y="775" on="0"/>
        <pt x="329" y="775" on="0"/>
        <pt x="249" y="795" on="0"/>
      </contour>
    </TTGlyph>
    <TTGlyph name="B" xMin="69" yMin="0" xMax="571" yMax="700">
      <contour>
        <pt x="69" y="40" on="1"/>
        <pt x="69" y="660" on="1"/>
        <pt x="69" y="700" on="0"/>
        <pt x="109" y="700" on="1"/>
        <pt x="307" y="700" on="1"/>
        <pt x="429" y="700" on="0"/>
        <pt x="543" y="606" on="0"/>
        <pt x="543" y="523" on="1"/>
        <pt x="543" y="473" on="0"/>
        <pt x="482" y="390" on="0"/>
        <pt x="435" y="371" on="1"/>
        <pt x="436" y="367" on="1"/>
        <pt x="495" y="355" on="0"/>
        <pt x="571" y="261" on="0"/>
        <pt x="571" y="203" on="1"/>
        <pt x="571" y="105" on="0"/>
        <pt x="446" y="0" on="0"/>
        <pt x="321" y="0" on="1"/>
        <pt x="109" y="0" on="1"/>
        <pt x="69" y="0" on="0"/>
      </contour>
      <contour>
        <pt x="223" y="421" on="1"/>
        <pt x="292" y="421" on="1"/>
        <pt x="336" y="421" on="0"/>
        <pt x="385" y="463" on="0"/>
        <pt x="385" y="496" on="1"/>
        <pt x="385" y="570" on="0"/>
        <pt x="294" y="570" on="1"/>
        <pt x="223" y="570" on="1"/>
      </contour>
      <contour>
        <pt x="223" y="131" on="1"/>
        <pt x="321" y="131" on="1"/>
        <pt x="365" y="131" on="0"/>
        <pt x="413" y="173" on="0"/>
        <pt x="413" y="212" on="1"/>
        <pt x="413" y="290" on="0"/>
        <pt x="305" y="290" on="1"/>
        <pt x="223" y="290" on="1"/>
      </contour>
    </TTGlyph>
    <TTGlyph name="C" xMin="45" yMin="-8" xMax="597" yMax="708">
      <contour>
        <pt x="45" y="352" on="1"/>
        <pt x="45" y="708" on="0"/>
        <pt x="379" y="708" on="1"/>
        <pt x="452" y="708" on="0"/>
        <pt x="588" y="668" on="0"/>
        <pt x="588" y="638" on="1"/>
        <pt x="588" y="616" on="0"/>
        <pt x="541" y="544" on="0"/>
        <pt x="523" y="544" on="1"/>
        <pt x="520" y="544" on="0"/>
        <pt x="502" y="552" on="1"/>
        <pt x="450" y="576" on="0"/>
        <pt x="376" y="576" on="1"/>
        <pt x="203" y="576" on="0"/>
        <pt x="203" y="123" on="0"/>
        <pt x="374" y="123" on="1"/>
        <pt x="446" y="123" on="0"/>
        <pt x="512" y="153" on="1"/>
        <pt x="534" y="163" on="0"/>
        <pt x="538" y="163" on="1"/>
        <pt x="559" y="163" on="0"/>
        <pt x="597" y="94" on="0"/>
        <pt x="597" y="76" on="1"/>
        <pt x="597" y="36" on="0"/>
        <pt x="449" y="-8" on="0"/>
        <pt x="374" y="-8" on="1"/>
        <pt x="206" y="-8" on="0"/>
        <pt x="45" y="167" on="0"/>
      </contour>
    </TTGlyph>
    <TTGlyph name="Ccedilla" xMin="45" yMin="-211" xMax="597" yMax="708">
      <contour>
        <pt x="222" y="-117" on="0"/>
        <pt x="240" y="-117" on="0"/>
        <pt x="299" y="-138" on="0"/>
        <pt x="346" y="-138" on="0"/>
        <pt x="346" y="-121" on="1"/>
        <pt x="346" y="-108" on="0"/>
        <pt x="293" y="-85" on="0"/>
        <pt x="293" y="-62" on="0"/>
        <pt x="312" y="-4" on="1"/>
        <pt x="176" y="10" on="0"/>
        <pt x="45" y="185" on="0"/>
        <pt x="45" y="352" on="1"/>
        <pt x="45" y="708" on="0"/>
        <pt x="379" y="708" on="1"/>
        <pt x="452" y="708" on="0"/>
        <pt x="588" y="668" on="0"/>
        <pt x="588" y="638" on="1"/>
        <pt x="588" y="616" on="0"/>
        <pt x="541" y="544" on="0"/>
        <pt x="523" y="544" on="1"/>
        <pt x="520" y="544" on="0"/>
        <pt x="502" y="552" on="1"/>
        <pt x="450" y="576" on="0"/>
        <pt x="376" y="576" on="1"/>
        <pt x="203" y="576" on="0"/>
        <pt x="203" y="123" on="0"/>
        <pt x="374" y="123" on="1"/>
        <pt x="446" y="123" on="0"/>
        <pt x="512" y="153" on="1"/>
        <pt x="534" y="163" on="0"/>
        <pt x="538" y="163" on="1"/>
        <pt x="559" y="163" on="0"/>
        <pt x="597" y="94" on="0"/>
        <pt x="597" y="76" on="1"/>
        <pt x="597" y="36" on="0"/>
        <pt x="454" y="-7" on="0"/>
        <pt x="378" y="-8" on="1"/>
        <pt x="371" y="-35" on="1"/>
        <pt x="449" y="-51" on="0"/>
        <pt x="449" y="-111" on="1"/>
        <pt x="449" y="-211" on="0"/>
        <pt x="330" y="-211" on="1"/>
        <pt x="283" y="-211" on="0"/>
        <pt x="199" y="-183" on="0"/>
        <pt x="199" y="-139" on="0"/>
      </contour>
    </TTGlyph>
    <TTGlyph name="D" xMin="69" yMin="0" xMax="653" yMax="700">
      <contour>
        <pt x="69" y="40" on="1"/>
        <pt x="69" y="660" on="1"/>
        <pt x="69" y="700" on="0"/>
        <pt x="109" y="700" on="1"/>
        <pt x="333" y="700" on="1"/>
        <pt x="488" y="700" on="0"/>
        <pt x="653" y="519" on="0"/>
        <pt x="653" y="181" on="0"/>
        <pt x="488" y="0" on="0"/>
        <pt x="333" y="0" on="1"/>
        <pt x="109" y="0" on="1"/>
        <pt x="69" y="0" on="0"/>
      </contour>
      <contour>
        <pt x="224" y="131" on="1"/>
        <pt x="333" y="131" on="1"/>
        <pt x="413" y="131" on="0"/>
        <pt x="495" y="243" on="0"/>
        <pt x="495" y="457" on="0"/>
        <pt x="413" y="569" on="0"/>
        <pt x="333" y="569" on="1"/>
        <pt x="224" y="569" on="1"/>
      </contour>
    </TTGlyph>
    <TTGlyph name="Delta" xMin="29" yMin="0" xMax="676" yMax="710">
      <contour>
        <pt x="29" y="35" on="1"/>
        <pt x="29" y="86" on="1"/>
        <pt x="29" y="111" on="0"/>
        <pt x="38" y="130" on="1"/>
        <pt x="281" y="683" on="1"/>
        <pt x="292" y="710" on="0"/>
        <pt x="322" y="710" on="1"/>
        <pt x="383" y="710" on="1"/>
        <pt x="413" y="710" on="0"/>
        <pt x="424" y="683" on="1"/>
        <pt x="667" y="130" on="1"/>
        <pt x="676" y="111" on="0"/>
        <pt x="676" y="86" on="1"/>
        <pt x="676" y="35" on="1"/>
        <pt x="676" y="0" on="0"/>
        <pt x="641" y="0" on="1"/>
        <pt x="64" y="0" on="1"/>
        <pt x="29" y="0" on="0"/>
      </contour>
      <contour>
        <pt x="181" y="130" on="1"/>
        <pt x="523" y="130" on="1"/>
        <pt x="357" y="513" on="1"/>
        <pt x="347" y="513" on="1"/>
      </contour>
    </TTGlyph>
    <TTGlyph name="E" xMin="69" yMin="0" xMax="506" yMax="700">
      <contour>
        <pt x="69" y="40" on="1"/>
        <pt x="69" y="660" on="1"/>
        <pt x="69" y="700" on="0"/>
        <pt x="109" y="700" on="1"/>
        <pt x="475" y="700" on="1"/>
        <pt x="505" y="700" on="0"/>
        <pt x="505" y="650" on="1"/>
        <pt x="505" y="619" on="1"/>
        <pt x="505" y="569" on="0"/>
        <pt x="475" y="569" on="1"/>
        <pt x="223" y="569" on="1"/>
        <pt x="223" y="424" on="1"/>
        <pt x="448" y="424" on="1"/>
        <pt x="478" y="424" on="0"/>
        <pt x="478" y="374" on="1"/>
        <pt x="478" y="343" on="1"/>
        <pt x="478" y="293" on="0"/>
        <pt x="448" y="293" on="1"/>
        <pt x="223" y="293" on="1"/>
        <pt x="223" y="131" on="1"/>
        <pt x="476" y="131" on="1"/>
        <pt x="506" y="131" on="0"/>
        <pt x="506" y="81" on="1"/>
        <pt x="506" y="50" on="1"/>
        <pt x="506" y="0" on="0"/>
        <pt x="476" y="0" on="1"/>
        <pt x="109" y="0" on="1"/>
        <pt x="69" y="0" on="0"/>
      </contour>
    </TTGlyph>
    <TTGlyph name="Eacute" xMin="69" yMin="0" xMax="506" yMax="934">
      <contour>
        <pt x="69" y="40" on="1"/>
        <pt x="69" y="660" on="1"/>
        <pt x="69" y="700" on="0"/>
        <pt x="109" y="700" on="1"/>
        <pt x="475" y="700" on="1"/>
        <pt x="505" y="700" on="0"/>
        <pt x="505" y="650" on="1"/>
        <pt x="505" y="619" on="1"/>
        <pt x="505" y="569" on="0"/>
        <pt x="475" y="569" on="1"/>
        <pt x="223" y="569" on="1"/>
        <pt x="223" y="424" on="1"/>
        <pt x="448" y="424" on="1"/>
        <pt x="478" y="424" on="0"/>
        <pt x="478" y="374" on="1"/>
        <pt x="478" y="343" on="1"/>
        <pt x="478" y="293" on="0"/>
        <pt x="448" y="293" on="1"/>
        <pt x="223" y="293" on="1"/>
        <pt x="223" y="131" on="1"/>
        <pt x="476" y="131" on="1"/>
        <pt x="506" y="131" on="0"/>
        <pt x="506" y="81" on="1"/>
        <pt x="506" y="50" on="1"/>
        <pt x="506" y="0" on="0"/>
        <pt x="476" y="0" on="1"/>
        <pt x="109" y="0" on="1"/>
        <pt x="69" y="0" on="0"/>
      </contour>
      <contour>
        <pt x="247" y="775" on="1"/>
        <pt x="216" y="775" on="0"/>
        <pt x="216" y="790" on="1"/>
        <pt x="216" y="800" on="0"/>
        <pt x="245" y="844" on="0"/>
        <pt x="269" y="886" on="0"/>
        <pt x="281" y="907" on="1"/>
        <pt x="296" y="934" on="0"/>
        <pt x="426" y="934" on="0"/>
        <pt x="426" y="920" on="1"/>
        <pt x="426" y="914" on="0"/>
        <pt x="414" y="898" on="0"/>
        <pt x="378" y="861" on="0"/>
        <pt x="364" y="846" on="0"/>
        <pt x="336" y="815" on="0"/>
        <pt x="322" y="800" on="1"/>
        <pt x="299" y="775" on="0"/>
      </contour>
    </TTGlyph>
    <TTGlyph name="Ecircumflex" xMin="69" yMin="0" xMax="506" yMax="908">
      <contour>
        <pt x="69" y="40" on="1"/>
        <pt x="69" y="660" on="1"/>
        <pt x="69" y="700" on="0"/>
        <pt x="109" y="700" on="1"/>
        <pt x="475" y="700" on="1"/>
        <pt x="505" y="700" on="0"/>
        <pt x="505" y="650" on="1"/>
        <pt x="505" y="619" on="1"/>
        <pt x="505" y="569" on="0"/>
        <pt x="475" y="569" on="1"/>
        <pt x="223" y="569" on="1"/>
        <pt x="223" y="424" on="1"/>
        <pt x="448" y="424" on="1"/>
        <pt x="478" y="424" on="0"/>
        <pt x="478" y="374" on="1"/>
        <pt x="478" y="343" on="1"/>
        <pt x="478" y="293" on="0"/>
        <pt x="448" y="293" on="1"/>
        <pt x="223" y="293" on="1"/>
        <pt x="223" y="131" on="1"/>
        <pt x="476" y="131" on="1"/>
        <pt x="506" y="131" on="0"/>
        <pt x="506" y="81" on="1"/>
        <pt x="506" y="50" on="1"/>
        <pt x="506" y="0" on="0"/>
        <pt x="476" y="0" on="1"/>
        <pt x="109" y="0" on="1"/>
        <pt x="69" y="0" on="0"/>
      </contour>
      <contour>
        <pt x="174" y="762" on="1"/>
        <pt x="154" y="762" on="0"/>
        <pt x="154" y="772" on="1"/>
        <pt x="154" y="778" on="0"/>
        <pt x="160" y="787" on="1"/>
        <pt x="225" y="889" on="1"/>
        <pt x="237" y="908" on="0"/>
        <pt x="286" y="908" on="1"/>
        <pt x="297" y="908" on="1"/>
        <pt x="346" y="908" on="0"/>
        <pt x="358" y="889" on="1"/>
        <pt x="423" y="787" on="1"/>
        <pt x="429" y="778" on="0"/>
        <pt x="429" y="772" on="1"/>
        <pt x="429" y="762" on="0"/>
        <pt x="409" y="762" on="1"/>
        <pt x="387" y="762" on="1"/>
        <pt x="335" y="762" on="0"/>
        <pt x="319" y="786" on="1"/>
        <pt x="291" y="826" on="1"/>
        <pt x="263" y="787" on="1"/>
        <pt x="245" y="762" on="0"/>
        <pt x="196" y="762" on="1"/>
      </contour>
    </TTGlyph>
    <TTGlyph name="Edieresis" xMin="69" yMin="0" xMax="506" yMax="882">
      <contour>
        <pt x="69" y="40" on="1"/>
        <pt x="69" y="660" on="1"/>
        <pt x="69" y="700" on="0"/>
        <pt x="109" y="700" on="1"/>
        <pt x="475" y="700" on="1"/>
        <pt x="505" y="700" on="0"/>
        <pt x="505" y="650" on="1"/>
        <pt x="505" y="619" on="1"/>
        <pt x="505" y="569" on="0"/>
        <pt x="475" y="569" on="1"/>
        <pt x="223" y="569" on="1"/>
        <pt x="223" y="424" on="1"/>
        <pt x="448" y="424" on="1"/>
        <pt x="478" y="424" on="0"/>
        <pt x="478" y="374" on="1"/>
        <pt x="478" y="343" on="1"/>
        <pt x="478" y="293" on="0"/>
        <pt x="448" y="293" on="1"/>
        <pt x="223" y="293" on="1"/>
        <pt x="223" y="131" on="1"/>
        <pt x="476" y="131" on="1"/>
        <pt x="506" y="131" on="0"/>
        <pt x="506" y="81" on="1"/>
        <pt x="506" y="50" on="1"/>
        <pt x="506" y="0" on="0"/>
        <pt x="476" y="0" on="1"/>
        <pt x="109" y="0" on="1"/>
        <pt x="69" y="0" on="0"/>
      </contour>
      <contour>
        <pt x="442" y="758" on="0"/>
        <pt x="322" y="758" on="0"/>
        <pt x="322" y="790" on="1"/>
        <pt x="322" y="850" on="1"/>
        <pt x="322" y="882" on="0"/>
        <pt x="442" y="882" on="0"/>
        <pt x="442" y="850" on="1"/>
        <pt x="442" y="790" on="1"/>
      </contour>
      <contour>
        <pt x="262" y="758" on="0"/>
        <pt x="142" y="758" on="0"/>
        <pt x="142" y="790" on="1"/>
        <pt x="142" y="850" on="1"/>
        <pt x="142" y="882" on="0"/>
        <pt x="262" y="882" on="0"/>
        <pt x="262" y="850" on="1"/>
        <pt x="262" y="790" on="1"/>
      </contour>
    </TTGlyph>
    <TTGlyph name="Egrave" xMin="69" yMin="0" xMax="506" yMax="934">
      <contour>
        <pt x="69" y="40" on="1"/>
        <pt x="69" y="660" on="1"/>
        <pt x="69" y="700" on="0"/>
        <pt x="109" y="700" on="1"/>
        <pt x="475" y="700" on="1"/>
        <pt x="505" y="700" on="0"/>
        <pt x="505" y="650" on="1"/>
        <pt x="505" y="619" on="1"/>
        <pt x="505" y="569" on="0"/>
        <pt x="475" y="569" on="1"/>
        <pt x="223" y="569" on="1"/>
        <pt x="223" y="424" on="1"/>
        <pt x="448" y="424" on="1"/>
        <pt x="478" y="424" on="0"/>
        <pt x="478" y="374" on="1"/>
        <pt x="478" y="343" on="1"/>
        <pt x="478" y="293" on="0"/>
        <pt x="448" y="293" on="1"/>
        <pt x="223" y="293" on="1"/>
        <pt x="223" y="131" on="1"/>
        <pt x="476" y="131" on="1"/>
        <pt x="506" y="131" on="0"/>
        <pt x="506" y="81" on="1"/>
        <pt x="506" y="50" on="1"/>
        <pt x="506" y="0" on="0"/>
        <pt x="476" y="0" on="1"/>
        <pt x="109" y="0" on="1"/>
        <pt x="69" y="0" on="0"/>
      </contour>
      <contour>
        <pt x="353" y="775" on="1"/>
        <pt x="301" y="775" on="0"/>
        <pt x="248" y="833" on="0"/>
        <pt x="185" y="900" on="0"/>
        <pt x="174" y="914" on="0"/>
        <pt x="174" y="920" on="1"/>
        <pt x="174" y="934" on="0"/>
        <pt x="304" y="934" on="0"/>
        <pt x="319" y="907" on="1"/>
        <pt x="331" y="886" on="0"/>
        <pt x="355" y="844" on="0"/>
        <pt x="369" y="823" on="0"/>
        <pt x="374" y="813" on="1"/>
        <pt x="384" y="796" on="0"/>
        <pt x="384" y="790" on="1"/>
        <pt x="384" y="775" on="0"/>
      </contour>
    </TTGlyph>
    <TTGlyph name="Eth" xMin="12" yMin="0" xMax="655" yMax="700">
      <contour>
        <pt x="71" y="40" on="1"/>
        <pt x="71" y="291" on="1"/>
        <pt x="42" y="291" on="1"/>
        <pt x="12" y="291" on="0"/>
        <pt x="12" y="341" on="1"/>
        <pt x="12" y="371" on="1"/>
        <pt x="12" y="421" on="0"/>
        <pt x="42" y="421" on="1"/>
        <pt x="71" y="421" on="1"/>
        <pt x="71" y="660" on="1"/>
        <pt x="71" y="700" on="0"/>
        <pt x="111" y="700" on="1"/>
        <pt x="335" y="700" on="1"/>
        <pt x="490" y="700" on="0"/>
        <pt x="655" y="519" on="0"/>
        <pt x="655" y="181" on="0"/>
        <pt x="490" y="0" on="0"/>
        <pt x="335" y="0" on="1"/>
        <pt x="111" y="0" on="1"/>
        <pt x="71" y="0" on="0"/>
      </contour>
      <contour>
        <pt x="226" y="131" on="1"/>
        <pt x="335" y="131" on="1"/>
        <pt x="415" y="131" on="0"/>
        <pt x="497" y="243" on="0"/>
        <pt x="497" y="457" on="0"/>
        <pt x="415" y="569" on="0"/>
        <pt x="335" y="569" on="1"/>
        <pt x="226" y="569" on="1"/>
        <pt x="226" y="421" on="1"/>
        <pt x="285" y="421" on="1"/>
        <pt x="315" y="421" on="0"/>
        <pt x="315" y="371" on="1"/>
        <pt x="315" y="341" on="1"/>
        <pt x="315" y="291" on="0"/>
        <pt x="285" y="291" on="1"/>
        <pt x="226" y="291" on="1"/>
      </contour>
    </TTGlyph>
    <TTGlyph name="Euro" xMin="0" yMin="-8" xMax="567" yMax="708">
      <contour>
        <pt x="30" y="233" on="1"/>
        <pt x="0" y="233" on="0"/>
        <pt x="0" y="267" on="1"/>
        <pt x="0" y="274" on="1"/>
        <pt x="0" y="308" on="0"/>
        <pt x="30" y="308" on="1"/>
        <pt x="59" y="308" on="1"/>
        <pt x="58" y="322" on="0"/>
        <pt x="58" y="373" on="0"/>
        <pt x="59" y="384" on="1"/>
        <pt x="30" y="384" on="1"/>
        <pt x="0" y="384" on="0"/>
        <pt x="0" y="418" on="1"/>
        <pt x="0" y="425" on="1"/>
        <pt x="0" y="459" on="0"/>
        <pt x="30" y="459" on="1"/>
        <pt x="66" y="459" on="1"/>
        <pt x="109" y="708" on="0"/>
        <pt x="369" y="708" on="1"/>
        <pt x="435" y="708" on="0"/>
        <pt x="558" y="668" on="0"/>
        <pt x="558" y="638" on="1"/>
        <pt x="558" y="616" on="0"/>
        <pt x="511" y="544" on="0"/>
        <pt x="493" y="544" on="1"/>
        <pt x="491" y="544" on="0"/>
        <pt x="476" y="552" on="1"/>
        <pt x="429" y="576" on="0"/>
        <pt x="366" y="576" on="1"/>
        <pt x="255" y="576" on="0"/>
        <pt x="225" y="459" on="1"/>
        <pt x="465" y="459" on="1"/>
        <pt x="495" y="459" on="0"/>
        <pt x="495" y="425" on="1"/>
        <pt x="495" y="418" on="1"/>
        <pt x="495" y="384" on="0"/>
        <pt x="465" y="384" on="1"/>
        <pt x="215" y="384" on="1"/>
        <pt x="214" y="373" on="0"/>
        <pt x="214" y="321" on="0"/>
        <pt x="215" y="308" on="1"/>
        <pt x="465" y="308" on="1"/>
        <pt x="495" y="308" on="0"/>
        <pt x="495" y="274" on="1"/>
        <pt x="495" y="267" on="1"/>
        <pt x="495" y="233" on="0"/>
        <pt x="465" y="233" on="1"/>
        <pt x="228" y="233" on="1"/>
        <pt x="260" y="123" on="0"/>
        <pt x="364" y="123" on="1"/>
        <pt x="427" y="123" on="0"/>
        <pt x="486" y="153" on="1"/>
        <pt x="505" y="163" on="0"/>
        <pt x="508" y="163" on="1"/>
        <pt x="530" y="163" on="0"/>
        <pt x="567" y="94" on="0"/>
        <pt x="567" y="76" on="1"/>
        <pt x="567" y="36" on="0"/>
        <pt x="432" y="-8" on="0"/>
        <pt x="364" y="-8" on="1"/>
        <pt x="109" y="-8" on="0"/>
        <pt x="67" y="233" on="1"/>
      </contour>
    </TTGlyph>
    <TTGlyph name="F" xMin="69" yMin="-2" xMax="473" yMax="700">
      <contour>
        <pt x="69" y="30" on="1"/>
        <pt x="69" y="660" on="1"/>
        <pt x="69" y="700" on="0"/>
        <pt x="109" y="700" on="1"/>
        <pt x="443" y="700" on="1"/>
        <pt x="473" y="700" on="0"/>
        <pt x="473" y="650" on="1"/>
        <pt x="473" y="619" on="1"/>
        <pt x="473" y="569" on="0"/>
        <pt x="443" y="569" on="1"/>
        <pt x="223" y="569" on="1"/>
        <pt x="223" y="423" on="1"/>
        <pt x="436" y="423" on="1"/>
        <pt x="466" y="423" on="0"/>
        <pt x="466" y="373" on="1"/>
        <pt x="466" y="342" on="1"/>
        <pt x="466" y="292" on="0"/>
        <pt x="436" y="292" on="1"/>
        <pt x="223" y="292" on="1"/>
        <pt x="223" y="30" on="1"/>
        <pt x="223" y="-2" on="0"/>
        <pt x="163" y="-2" on="1"/>
        <pt x="129" y="-2" on="1"/>
        <pt x="69" y="-2" on="0"/>
      </contour>
    </TTGlyph>
    <TTGlyph name="G" xMin="45" yMin="-8" xMax="607" yMax="708">
      <contour>
        <pt x="45" y="352" on="1"/>
        <pt x="45" y="708" on="0"/>
        <pt x="379" y="708" on="1"/>
        <pt x="452" y="708" on="0"/>
        <pt x="593" y="667" on="0"/>
        <pt x="593" y="638" on="1"/>
        <pt x="593" y="616" on="0"/>
        <pt x="546" y="544" on="0"/>
        <pt x="528" y="544" on="1"/>
        <pt x="525" y="544" on="0"/>
        <pt x="506" y="552" on="1"/>
        <pt x="451" y="576" on="0"/>
        <pt x="376" y="576" on="1"/>
        <pt x="203" y="576" on="0"/>
        <pt x="203" y="123" on="0"/>
        <pt x="374" y="123" on="1"/>
        <pt x="414" y="123" on="0"/>
        <pt x="452" y="130" on="1"/>
        <pt x="452" y="257" on="1"/>
        <pt x="364" y="257" on="1"/>
        <pt x="334" y="257" on="0"/>
        <pt x="334" y="307" on="1"/>
        <pt x="334" y="339" on="1"/>
        <pt x="334" y="389" on="0"/>
        <pt x="364" y="389" on="1"/>
        <pt x="567" y="389" on="1"/>
        <pt x="607" y="389" on="0"/>
        <pt x="607" y="349" on="1"/>
        <pt x="607" y="71" on="1"/>
        <pt x="607" y="47" on="0"/>
        <pt x="556" y="13" on="0"/>
        <pt x="516" y="6" on="1"/>
        <pt x="444" y="-8" on="0"/>
        <pt x="374" y="-8" on="1"/>
        <pt x="206" y="-8" on="0"/>
        <pt x="45" y="167" on="0"/>
      </contour>
    </TTGlyph>
    <TTGlyph name="H" xMin="84" yMin="-2" xMax="664" yMax="702">
      <contour>
        <pt x="84" y="30" on="1"/>
        <pt x="84" y="670" on="1"/>
        <pt x="84" y="702" on="0"/>
        <pt x="144" y="702" on="1"/>
        <pt x="179" y="702" on="1"/>
        <pt x="239" y="702" on="0"/>
        <pt x="239" y="670" on="1"/>
        <pt x="239" y="423" on="1"/>
        <pt x="509" y="423" on="1"/>
        <pt x="509" y="670" on="1"/>
        <pt x="509" y="702" on="0"/>
        <pt x="569" y="702" on="1"/>
        <pt x="604" y="702" on="1"/>
        <pt x="664" y="702" on="0"/>
        <pt x="664" y="670" on="1"/>
        <pt x="664" y="30" on="1"/>
        <pt x="664" y="-2" on="0"/>
        <pt x="604" y="-2" on="1"/>
        <pt x="569" y="-2" on="1"/>
        <pt x="509" y="-2" on="0"/>
        <pt x="509" y="30" on="1"/>
        <pt x="509" y="291" on="1"/>
        <pt x="239" y="291" on="1"/>
        <pt x="239" y="30" on="1"/>
        <pt x="239" y="-2" on="0"/>
        <pt x="179" y="-2" on="1"/>
        <pt x="144" y="-2" on="1"/>
        <pt x="84" y="-2" on="0"/>
      </contour>
    </TTGlyph>
    <TTGlyph name="I" xMin="63" yMin="-3" xMax="218" yMax="703">
      <contour>
        <pt x="63" y="30" on="1"/>
        <pt x="63" y="670" on="1"/>
        <pt x="63" y="703" on="0"/>
        <pt x="123" y="703" on="1"/>
        <pt x="158" y="703" on="1"/>
        <pt x="218" y="703" on="0"/>
        <pt x="218" y="670" on="1"/>
        <pt x="218" y="30" on="1"/>
        <pt x="218" y="-3" on="0"/>
        <pt x="158" y="-3" on="1"/>
        <pt x="123" y="-3" on="1"/>
        <pt x="63" y="-3" on="0"/>
      </contour>
    </TTGlyph>
    <TTGlyph name="Iacute" xMin="63" yMin="-3" xMax="279" yMax="934">
      <contour>
        <pt x="63" y="30" on="1"/>
        <pt x="63" y="670" on="1"/>
        <pt x="63" y="703" on="0"/>
        <pt x="123" y="703" on="1"/>
        <pt x="158" y="703" on="1"/>
        <pt x="218" y="703" on="0"/>
        <pt x="218" y="670" on="1"/>
        <pt x="218" y="30" on="1"/>
        <pt x="218" y="-3" on="0"/>
        <pt x="158" y="-3" on="1"/>
        <pt x="123" y="-3" on="1"/>
        <pt x="63" y="-3" on="0"/>
      </contour>
      <contour>
        <pt x="100" y="775" on="1"/>
        <pt x="69" y="775" on="0"/>
        <pt x="69" y="790" on="1"/>
        <pt x="69" y="800" on="0"/>
        <pt x="98" y="844" on="0"/>
        <pt x="122" y="886" on="0"/>
        <pt x="134" y="907" on="1"/>
        <pt x="149" y="934" on="0"/>
        <pt x="279" y="934" on="0"/>
        <pt x="279" y="920" on="1"/>
        <pt x="279" y="914" on="0"/>
        <pt x="267" y="898" on="0"/>
        <pt x="231" y="861" on="0"/>
        <pt x="217" y="846" on="0"/>
        <pt x="189" y="815" on="0"/>
        <pt x="175" y="800" on="1"/>
        <pt x="152" y="775" on="0"/>
      </contour>
    </TTGlyph>
    <TTGlyph name="Icircumflex" xMin="7" yMin="-3" xMax="282" yMax="908">
      <contour>
        <pt x="63" y="30" on="1"/>
        <pt x="63" y="670" on="1"/>
        <pt x="63" y="703" on="0"/>
        <pt x="123" y="703" on="1"/>
        <pt x="158" y="703" on="1"/>
        <pt x="218" y="703" on="0"/>
        <pt x="218" y="670" on="1"/>
        <pt x="218" y="30" on="1"/>
        <pt x="218" y="-3" on="0"/>
        <pt x="158" y="-3" on="1"/>
        <pt x="123" y="-3" on="1"/>
        <pt x="63" y="-3" on="0"/>
      </contour>
      <contour>
        <pt x="27" y="762" on="1"/>
        <pt x="7" y="762" on="0"/>
        <pt x="7" y="772" on="1"/>
        <pt x="7" y="778" on="0"/>
        <pt x="13" y="787" on="1"/>
        <pt x="78" y="889" on="1"/>
        <pt x="90" y="908" on="0"/>
        <pt x="139" y="908" on="1"/>
        <pt x="150" y="908" on="1"/>
        <pt x="199" y="908" on="0"/>
        <pt x="211" y="889" on="1"/>
        <pt x="276" y="787" on="1"/>
        <pt x="282" y="778" on="0"/>
        <pt x="282" y="772" on="1"/>
        <pt x="282" y="762" on="0"/>
        <pt x="262" y="762" on="1"/>
        <pt x="240" y="762" on="1"/>
        <pt x="188" y="762" on="0"/>
        <pt x="172" y="786" on="1"/>
        <pt x="144" y="826" on="1"/>
        <pt x="116" y="787" on="1"/>
        <pt x="98" y="762" on="0"/>
        <pt x="49" y="762" on="1"/>
      </contour>
    </TTGlyph>
    <TTGlyph name="Idieresis" xMin="-5" yMin="-3" xMax="295" yMax="882">
      <contour>
        <pt x="63" y="30" on="1"/>
        <pt x="63" y="670" on="1"/>
        <pt x="63" y="703" on="0"/>
        <pt x="123" y="703" on="1"/>
        <pt x="158" y="703" on="1"/>
        <pt x="218" y="703" on="0"/>
        <pt x="218" y="670" on="1"/>
        <pt x="218" y="30" on="1"/>
        <pt x="218" y="-3" on="0"/>
        <pt x="158" y="-3" on="1"/>
        <pt x="123" y="-3" on="1"/>
        <pt x="63" y="-3" on="0"/>
      </contour>
      <contour>
        <pt x="295" y="758" on="0"/>
        <pt x="175" y="758" on="0"/>
        <pt x="175" y="790" on="1"/>
        <pt x="175" y="850" on="1"/>
        <pt x="175" y="882" on="0"/>
        <pt x="295" y="882" on="0"/>
        <pt x="295" y="850" on="1"/>
        <pt x="295" y="790" on="1"/>
      </contour>
      <contour>
        <pt x="115" y="758" on="0"/>
        <pt x="-5" y="758" on="0"/>
        <pt x="-5" y="790" on="1"/>
        <pt x="-5" y="850" on="1"/>
        <pt x="-5" y="882" on="0"/>
        <pt x="115" y="882" on="0"/>
        <pt x="115" y="850" on="1"/>
        <pt x="115" y="790" on="1"/>
      </contour>
    </TTGlyph>
    <TTGlyph name="Igrave" xMin="27" yMin="-3" xMax="237" yMax="934">
      <contour>
        <pt x="63" y="30" on="1"/>
        <pt x="63" y="670" on="1"/>
        <pt x="63" y="703" on="0"/>
        <pt x="123" y="703" on="1"/>
        <pt x="158" y="703" on="1"/>
        <pt x="218" y="703" on="0"/>
        <pt x="218" y="670" on="1"/>
        <pt x="218" y="30" on="1"/>
        <pt x="218" y="-3" on="0"/>
        <pt x="158" y="-3" on="1"/>
        <pt x="123" y="-3" on="1"/>
        <pt x="63" y="-3" on="0"/>
      </contour>
      <contour>
        <pt x="206" y="775" on="1"/>
        <pt x="154" y="775" on="0"/>
        <pt x="101" y="833" on="0"/>
        <pt x="38" y="900" on="0"/>
        <pt x="27" y="914" on="0"/>
        <pt x="27" y="920" on="1"/>
        <pt x="27" y="934" on="0"/>
        <pt x="157" y="934" on="0"/>
        <pt x="172" y="907" on="1"/>
        <pt x="184" y="886" on="0"/>
        <pt x="208" y="844" on="0"/>
        <pt x="222" y="823" on="0"/>
        <pt x="228" y="813" on="1"/>
        <pt x="237" y="796" on="0"/>
        <pt x="237" y="790" on="1"/>
        <pt x="237" y="775" on="0"/>
      </contour>
    </TTGlyph>
    <TTGlyph name="J" xMin="0" yMin="-8" xMax="336" yMax="703">
      <contour>
        <pt x="30" y="3" on="0"/>
        <pt x="0" y="23" on="0"/>
        <pt x="0" y="61" on="0"/>
        <pt x="21" y="129" on="0"/>
        <pt x="41" y="131" on="1"/>
        <pt x="43" y="131" on="0"/>
        <pt x="78" y="123" on="0"/>
        <pt x="97" y="123" on="1"/>
        <pt x="142" y="123" on="0"/>
        <pt x="181" y="172" on="0"/>
        <pt x="181" y="227" on="1"/>
        <pt x="181" y="670" on="1"/>
        <pt x="181" y="703" on="0"/>
        <pt x="241" y="703" on="1"/>
        <pt x="276" y="703" on="1"/>
        <pt x="336" y="703" on="0"/>
        <pt x="336" y="670" on="1"/>
        <pt x="336" y="202" on="1"/>
        <pt x="336" y="103" on="0"/>
        <pt x="232" y="-8" on="0"/>
        <pt x="124" y="-8" on="1"/>
        <pt x="95" y="-8" on="0"/>
      </contour>
    </TTGlyph>
    <TTGlyph name="K" xMin="69" yMin="-2" xMax="591" yMax="702">
      <contour>
        <pt x="69" y="30" on="1"/>
        <pt x="69" y="670" on="1"/>
        <pt x="69" y="702" on="0"/>
        <pt x="129" y="702" on="1"/>
        <pt x="164" y="702" on="1"/>
        <pt x="224" y="702" on="0"/>
        <pt x="224" y="670" on="1"/>
        <pt x="224" y="402" on="1"/>
        <pt x="228" y="401" on="1"/>
        <pt x="402" y="683" on="1"/>
        <pt x="413" y="702" on="0"/>
        <pt x="462" y="702" on="1"/>
        <pt x="509" y="702" on="1"/>
        <pt x="565" y="702" on="0"/>
        <pt x="565" y="687" on="1"/>
        <pt x="565" y="678" on="0"/>
        <pt x="557" y="666" on="1"/>
        <pt x="364" y="370" on="1"/>
        <pt x="583" y="34" on="1"/>
        <pt x="591" y="22" on="0"/>
        <pt x="591" y="13" on="1"/>
        <pt x="591" y="-2" on="0"/>
        <pt x="535" y="-2" on="1"/>
        <pt x="477" y="-2" on="1"/>
        <pt x="427" y="-2" on="0"/>
        <pt x="416" y="17" on="1"/>
        <pt x="228" y="321" on="1"/>
        <pt x="224" y="320" on="1"/>
        <pt x="224" y="30" on="1"/>
        <pt x="224" y="-2" on="0"/>
        <pt x="164" y="-2" on="1"/>
        <pt x="129" y="-2" on="1"/>
        <pt x="69" y="-2" on="0"/>
      </contour>
    </TTGlyph>
    <TTGlyph name="L" xMin="69" yMin="0" xMax="476" yMax="702">
      <contour>
        <pt x="69" y="40" on="1"/>
        <pt x="69" y="670" on="1"/>
        <pt x="69" y="702" on="0"/>
        <pt x="129" y="702" on="1"/>
        <pt x="163" y="702" on="1"/>
        <pt x="223" y="702" on="0"/>
        <pt x="223" y="670" on="1"/>
        <pt x="223" y="131" on="1"/>
        <pt x="446" y="131" on="1"/>
        <pt x="476" y="131" on="0"/>
        <pt x="476" y="81" on="1"/>
        <pt x="476" y="50" on="1"/>
        <pt x="476" y="0" on="0"/>
        <pt x="446" y="0" on="1"/>
        <pt x="109" y="0" on="1"/>
        <pt x="69" y="0" on="0"/>
      </contour>
    </TTGlyph>
    <TTGlyph name="Lslash" xMin="26" yMin="0" xMax="478" yMax="702">
      <contour>
        <pt x="71" y="40" on="1"/>
        <pt x="71" y="301" on="1"/>
        <pt x="52" y="289" on="1"/>
        <pt x="44" y="284" on="0"/>
        <pt x="37" y="284" on="1"/>
        <pt x="26" y="284" on="0"/>
        <pt x="26" y="304" on="1"/>
        <pt x="26" y="324" on="1"/>
        <pt x="26" y="353" on="0"/>
        <pt x="52" y="369" on="1"/>
        <pt x="71" y="381" on="1"/>
        <pt x="71" y="670" on="1"/>
        <pt x="71" y="702" on="0"/>
        <pt x="131" y="702" on="1"/>
        <pt x="165" y="702" on="1"/>
        <pt x="225" y="702" on="0"/>
        <pt x="225" y="670" on="1"/>
        <pt x="225" y="475" on="1"/>
        <pt x="312" y="528" on="1"/>
        <pt x="321" y="534" on="0"/>
        <pt x="327" y="534" on="1"/>
        <pt x="338" y="534" on="0"/>
        <pt x="338" y="514" on="1"/>
        <pt x="338" y="494" on="1"/>
        <pt x="338" y="464" on="0"/>
        <pt x="312" y="448" on="1"/>
        <pt x="225" y="395" on="1"/>
        <pt x="225" y="131" on="1"/>
        <pt x="448" y="131" on="1"/>
        <pt x="478" y="131" on="0"/>
        <pt x="478" y="81" on="1"/>
        <pt x="478" y="50" on="1"/>
        <pt x="478" y="0" on="0"/>
        <pt x="448" y="0" on="1"/>
        <pt x="111" y="0" on="1"/>
        <pt x="71" y="0" on="0"/>
      </contour>
    </TTGlyph>
    <TTGlyph name="M" xMin="69" yMin="-2" xMax="774" yMax="702">
      <contour>
        <pt x="69" y="30" on="1"/>
        <pt x="69" y="670" on="1"/>
        <pt x="69" y="702" on="0"/>
        <pt x="129" y="702" on="1"/>
        <pt x="182" y="702" on="1"/>
        <pt x="230" y="702" on="0"/>
        <pt x="245" y="675" on="1"/>
        <pt x="421" y="362" on="1"/>
        <pt x="599" y="675" on="1"/>
        <pt x="614" y="702" on="0"/>
        <pt x="662" y="702" on="1"/>
        <pt x="714" y="702" on="1"/>
        <pt x="774" y="702" on="0"/>
        <pt x="774" y="670" on="1"/>
        <pt x="774" y="30" on="1"/>
        <pt x="774" y="-2" on="0"/>
        <pt x="714" y="-2" on="1"/>
        <pt x="685" y="-2" on="1"/>
        <pt x="625" y="-2" on="0"/>
        <pt x="625" y="30" on="1"/>
        <pt x="625" y="444" on="1"/>
        <pt x="621" y="445" on="1"/>
        <pt x="476" y="186" on="1"/>
        <pt x="462" y="167" on="0"/>
        <pt x="436" y="167" on="1"/>
        <pt x="407" y="167" on="1"/>
        <pt x="381" y="167" on="0"/>
        <pt x="367" y="186" on="1"/>
        <pt x="222" y="445" on="1"/>
        <pt x="218" y="444" on="1"/>
        <pt x="218" y="30" on="1"/>
        <pt x="218" y="-2" on="0"/>
        <pt x="158" y="-2" on="1"/>
        <pt x="129" y="-2" on="1"/>
        <pt x="69" y="-2" on="0"/>
      </contour>
    </TTGlyph>
    <TTGlyph name="N" xMin="69" yMin="-2" xMax="650" yMax="702">
      <contour>
        <pt x="69" y="30" on="1"/>
        <pt x="69" y="670" on="1"/>
        <pt x="69" y="702" on="0"/>
        <pt x="129" y="702" on="1"/>
        <pt x="172" y="702" on="1"/>
        <pt x="220" y="702" on="0"/>
        <pt x="238" y="675" on="1"/>
        <pt x="501" y="270" on="1"/>
        <pt x="501" y="670" on="1"/>
        <pt x="501" y="702" on="0"/>
        <pt x="561" y="702" on="1"/>
        <pt x="590" y="702" on="1"/>
        <pt x="650" y="702" on="0"/>
        <pt x="650" y="670" on="1"/>
        <pt x="650" y="30" on="1"/>
        <pt x="650" y="-2" on="0"/>
        <pt x="590" y="-2" on="1"/>
        <pt x="552" y="-2" on="1"/>
        <pt x="504" y="-2" on="0"/>
        <pt x="486" y="25" on="1"/>
        <pt x="218" y="435" on="1"/>
        <pt x="218" y="30" on="1"/>
        <pt x="218" y="-2" on="0"/>
        <pt x="158" y="-2" on="1"/>
        <pt x="129" y="-2" on="1"/>
        <pt x="69" y="-2" on="0"/>
      </contour>
    </TTGlyph>
    <TTGlyph name="Ntilde" xMin="69" yMin="-2" xMax="650" yMax="888">
      <contour>
        <pt x="69" y="30" on="1"/>
        <pt x="69" y="670" on="1"/>
        <pt x="69" y="702" on="0"/>
        <pt x="129" y="702" on="1"/>
        <pt x="172" y="702" on="1"/>
        <pt x="220" y="702" on="0"/>
        <pt x="238" y="675" on="1"/>
        <pt x="501" y="270" on="1"/>
        <pt x="501" y="670" on="1"/>
        <pt x="501" y="702" on="0"/>
        <pt x="561" y="702" on="1"/>
        <pt x="590" y="702" on="1"/>
        <pt x="650" y="702" on="0"/>
        <pt x="650" y="670" on="1"/>
        <pt x="650" y="30" on="1"/>
        <pt x="650" y="-2" on="0"/>
        <pt x="590" y="-2" on="1"/>
        <pt x="552" y="-2" on="1"/>
        <pt x="504" y="-2" on="0"/>
        <pt x="486" y="25" on="1"/>
        <pt x="218" y="435" on="1"/>
        <pt x="218" y="30" on="1"/>
        <pt x="218" y="-2" on="0"/>
        <pt x="158" y="-2" on="1"/>
        <pt x="129" y="-2" on="1"/>
        <pt x="69" y="-2" on="0"/>
      </contour>
      <contour>
        <pt x="287" y="795" on="1"/>
        <pt x="242" y="784" on="1"/>
        <pt x="226" y="784" on="0"/>
        <pt x="200" y="813" on="0"/>
        <pt x="200" y="850" on="0"/>
        <pt x="267" y="888" on="0"/>
        <pt x="336" y="888" on="0"/>
        <pt x="415" y="868" on="0"/>
        <pt x="433" y="868" on="1"/>
        <pt x="479" y="879" on="1"/>
        <pt x="494" y="879" on="0"/>
        <pt x="520" y="850" on="0"/>
        <pt x="520" y="813" on="0"/>
        <pt x="453" y="775" on="0"/>
        <pt x="384" y="775" on="0"/>
        <pt x="304" y="795" on="0"/>
      </contour>
    </TTGlyph>
    <TTGlyph name="O" xMin="45" yMin="-8" xMax="686" yMax="708">
      <contour>
        <pt x="45" y="177" on="0"/>
        <pt x="45" y="523" on="0"/>
        <pt x="211" y="708" on="0"/>
        <pt x="521" y="708" on="0"/>
        <pt x="686" y="523" on="0"/>
        <pt x="686" y="177" on="0"/>
        <pt x="521" y="-8" on="0"/>
        <pt x="211" y="-8" on="0"/>
      </contour>
      <contour>
        <pt x="286" y="123" on="0"/>
        <pt x="446" y="123" on="0"/>
        <pt x="528" y="239" on="0"/>
        <pt x="528" y="461" on="0"/>
        <pt x="446" y="576" on="0"/>
        <pt x="286" y="576" on="0"/>
        <pt x="203" y="461" on="0"/>
        <pt x="203" y="239" on="0"/>
      </contour>
    </TTGlyph>
    <TTGlyph name="OE" xMin="45" yMin="-8" xMax="967" yMax="708">
      <contour>
        <pt x="45" y="177" on="0"/>
        <pt x="45" y="523" on="0"/>
        <pt x="206" y="708" on="0"/>
        <pt x="356" y="708" on="1"/>
        <pt x="457" y="708" on="0"/>
        <pt x="530" y="662" on="1"/>
        <pt x="530" y="700" on="0"/>
        <pt x="570" y="700" on="1"/>
        <pt x="936" y="700" on="1"/>
        <pt x="966" y="700" on="0"/>
        <pt x="966" y="650" on="1"/>
        <pt x="966" y="619" on="1"/>
        <pt x="966" y="569" on="0"/>
        <pt x="936" y="569" on="1"/>
        <pt x="684" y="569" on="1"/>
        <pt x="684" y="424" on="1"/>
        <pt x="909" y="424" on="1"/>
        <pt x="939" y="424" on="0"/>
        <pt x="939" y="374" on="1"/>
        <pt x="939" y="343" on="1"/>
        <pt x="939" y="293" on="0"/>
        <pt x="909" y="293" on="1"/>
        <pt x="684" y="293" on="1"/>
        <pt x="684" y="131" on="1"/>
        <pt x="937" y="131" on="1"/>
        <pt x="967" y="131" on="0"/>
        <pt x="967" y="81" on="1"/>
        <pt x="967" y="50" on="1"/>
        <pt x="967" y="0" on="0"/>
        <pt x="937" y="0" on="1"/>
        <pt x="570" y="0" on="1"/>
        <pt x="531" y="0" on="0"/>
        <pt x="530" y="37" on="1"/>
        <pt x="456" y="-8" on="0"/>
        <pt x="356" y="-8" on="1"/>
        <pt x="206" y="-8" on="0"/>
      </contour>
      <contour>
        <pt x="286" y="123" on="0"/>
        <pt x="446" y="123" on="0"/>
        <pt x="528" y="239" on="0"/>
        <pt x="528" y="461" on="0"/>
        <pt x="446" y="576" on="0"/>
        <pt x="286" y="576" on="0"/>
        <pt x="203" y="461" on="0"/>
        <pt x="203" y="239" on="0"/>
      </contour>
    </TTGlyph>
    <TTGlyph name="Oacute" xMin="45" yMin="-8" xMax="686" yMax="934">
      <contour>
        <pt x="45" y="177" on="0"/>
        <pt x="45" y="523" on="0"/>
        <pt x="211" y="708" on="0"/>
        <pt x="521" y="708" on="0"/>
        <pt x="686" y="523" on="0"/>
        <pt x="686" y="177" on="0"/>
        <pt x="521" y="-8" on="0"/>
        <pt x="211" y="-8" on="0"/>
      </contour>
      <contour>
        <pt x="286" y="123" on="0"/>
        <pt x="446" y="123" on="0"/>
        <pt x="528" y="239" on="0"/>
        <pt x="528" y="461" on="0"/>
        <pt x="446" y="576" on="0"/>
        <pt x="286" y="576" on="0"/>
        <pt x="203" y="461" on="0"/>
        <pt x="203" y="239" on="0"/>
      </contour>
      <contour>
        <pt x="320" y="775" on="1"/>
        <pt x="289" y="775" on="0"/>
        <pt x="289" y="790" on="1"/>
        <pt x="289" y="800" on="0"/>
        <pt x="318" y="844" on="0"/>
        <pt x="342" y="886" on="0"/>
        <pt x="354" y="907" on="1"/>
        <pt x="369" y="934" on="0"/>
        <pt x="499" y="934" on="0"/>
        <pt x="499" y="920" on="1"/>
        <pt x="499" y="914" on="0"/>
        <pt x="487" y="898" on="0"/>
        <pt x="451" y="861" on="0"/>
        <pt x="437" y="846" on="0"/>
        <pt x="409" y="815" on="0"/>
        <pt x="395" y="800" on="1"/>
        <pt x="372" y="775" on="0"/>
      </contour>
    </TTGlyph>
    <TTGlyph name="Ocircumflex" xMin="45" yMin="-8" xMax="686" yMax="908">
      <contour>
        <pt x="45" y="177" on="0"/>
        <pt x="45" y="523" on="0"/>
        <pt x="211" y="708" on="0"/>
        <pt x="521" y="708" on="0"/>
        <pt x="686" y="523" on="0"/>
        <pt x="686" y="177" on="0"/>
        <pt x="521" y="-8" on="0"/>
        <pt x="211" y="-8" on="0"/>
      </contour>
      <contour>
        <pt x="286" y="123" on="0"/>
        <pt x="446" y="123" on="0"/>
        <pt x="528" y="239" on="0"/>
        <pt x="528" y="461" on="0"/>
        <pt x="446" y="576" on="0"/>
        <pt x="286" y="576" on="0"/>
        <pt x="203" y="461" on="0"/>
        <pt x="203" y="239" on="0"/>
      </contour>
      <contour>
        <pt x="247" y="762" on="1"/>
        <pt x="227" y="762" on="0"/>
        <pt x="227" y="772" on="1"/>
        <pt x="227" y="778" on="0"/>
        <pt x="233" y="787" on="1"/>
        <pt x="298" y="889" on="1"/>
        <pt x="310" y="908" on="0"/>
        <pt x="359" y="908" on="1"/>
        <pt x="370" y="908" on="1"/>
        <pt x="419" y="908" on="0"/>
        <pt x="431" y="889" on="1"/>
        <pt x="496" y="787" on="1"/>
        <pt x="502" y="778" on="0"/>
        <pt x="502" y="772" on="1"/>
        <pt x="502" y="762" on="0"/>
        <pt x="482" y="762" on="1"/>
        <pt x="460" y="762" on="1"/>
        <pt x="408" y="762" on="0"/>
        <pt x="392" y="786" on="1"/>
        <pt x="364" y="826" on="1"/>
        <pt x="336" y="787" on="1"/>
        <pt x="318" y="762" on="0"/>
        <pt x="269" y="762" on="1"/>
      </contour>
    </TTGlyph>
    <TTGlyph name="Odieresis" xMin="45" yMin="-8" xMax="686" yMax="882">
      <contour>
        <pt x="45" y="177" on="0"/>
        <pt x="45" y="523" on="0"/>
        <pt x="211" y="708" on="0"/>
        <pt x="521" y="708" on="0"/>
        <pt x="686" y="523" on="0"/>
        <pt x="686" y="177" on="0"/>
        <pt x="521" y="-8" on="0"/>
        <pt x="211" y="-8" on="0"/>
      </contour>
      <contour>
        <pt x="286" y="123" on="0"/>
        <pt x="446" y="123" on="0"/>
        <pt x="528" y="239" on="0"/>
        <pt x="528" y="461" on="0"/>
        <pt x="446" y="576" on="0"/>
        <pt x="286" y="576" on="0"/>
        <pt x="203" y="461" on="0"/>
        <pt x="203" y="239" on="0"/>
      </contour>
      <contour>
        <pt x="515" y="758" on="0"/>
        <pt x="395" y="758" on="0"/>
        <pt x="395" y="790" on="1"/>
        <pt x="395" y="850" on="1"/>
        <pt x="395" y="882" on="0"/>
        <pt x="515" y="882" on="0"/>
        <pt x="515" y="850" on="1"/>
        <pt x="515" y="790" on="1"/>
      </contour>
      <contour>
        <pt x="335" y="758" on="0"/>
        <pt x="215" y="758" on="0"/>
        <pt x="215" y="790" on="1"/>
        <pt x="215" y="850" on="1"/>
        <pt x="215" y="882" on="0"/>
        <pt x="335" y="882" on="0"/>
        <pt x="335" y="850" on="1"/>
        <pt x="335" y="790" on="1"/>
      </contour>
    </TTGlyph>
    <TTGlyph name="Ograve" xMin="45" yMin="-8" xMax="686" yMax="934">
      <contour>
        <pt x="45" y="177" on="0"/>
        <pt x="45" y="523" on="0"/>
        <pt x="211" y="708" on="0"/>
        <pt x="521" y="708" on="0"/>
        <pt x="686" y="523" on="0"/>
        <pt x="686" y="177" on="0"/>
        <pt x="521" y="-8" on="0"/>
        <pt x="211" y="-8" on="0"/>
      </contour>
      <contour>
        <pt x="286" y="123" on="0"/>
        <pt x="446" y="123" on="0"/>
        <pt x="528" y="239" on="0"/>
        <pt x="528" y="461" on="0"/>
        <pt x="446" y="576" on="0"/>
        <pt x="286" y="576" on="0"/>
        <pt x="203" y="461" on="0"/>
        <pt x="203" y="239" on="0"/>
      </contour>
      <contour>
        <pt x="426" y="775" on="1"/>
        <pt x="374" y="775" on="0"/>
        <pt x="321" y="833" on="0"/>
        <pt x="258" y="900" on="0"/>
        <pt x="247" y="914" on="0"/>
        <pt x="247" y="920" on="1"/>
        <pt x="247" y="934" on="0"/>
        <pt x="377" y="934" on="0"/>
        <pt x="392" y="907" on="1"/>
        <pt x="404" y="886" on="0"/>
        <pt x="428" y="844" on="0"/>
        <pt x="442" y="823" on="0"/>
        <pt x="448" y="813" on="1"/>
        <pt x="457" y="796" on="0"/>
        <pt x="457" y="790" on="1"/>
        <pt x="457" y="775" on="0"/>
      </contour>
    </TTGlyph>
    <TTGlyph name="Omega" xMin="26" yMin="0" xMax="706" yMax="708">
      <contour>
        <pt x="56" y="0" on="1"/>
        <pt x="26" y="0" on="0"/>
        <pt x="26" y="50" on="1"/>
        <pt x="26" y="81" on="1"/>
        <pt x="26" y="131" on="0"/>
        <pt x="86" y="131" on="0"/>
        <pt x="125" y="118" on="1"/>
        <pt x="138" y="113" on="1"/>
        <pt x="45" y="206" on="0"/>
        <pt x="45" y="528" on="0"/>
        <pt x="211" y="708" on="0"/>
        <pt x="521" y="708" on="0"/>
        <pt x="687" y="528" on="0"/>
        <pt x="687" y="206" on="0"/>
        <pt x="594" y="113" on="1"/>
        <pt x="643" y="131" on="0"/>
        <pt x="676" y="131" on="1"/>
        <pt x="706" y="131" on="0"/>
        <pt x="706" y="81" on="1"/>
        <pt x="706" y="50" on="1"/>
        <pt x="706" y="0" on="0"/>
        <pt x="676" y="0" on="1"/>
        <pt x="429" y="0" on="1"/>
        <pt x="399" y="0" on="0"/>
        <pt x="399" y="50" on="1"/>
        <pt x="399" y="76" on="1"/>
        <pt x="399" y="105" on="0"/>
        <pt x="413" y="110" on="1"/>
        <pt x="529" y="147" on="0"/>
        <pt x="529" y="350" on="1"/>
        <pt x="529" y="461" on="0"/>
        <pt x="446" y="576" on="0"/>
        <pt x="286" y="576" on="0"/>
        <pt x="203" y="461" on="0"/>
        <pt x="203" y="350" on="1"/>
        <pt x="203" y="147" on="0"/>
        <pt x="319" y="110" on="1"/>
        <pt x="333" y="105" on="0"/>
        <pt x="333" y="76" on="1"/>
        <pt x="333" y="50" on="1"/>
        <pt x="333" y="0" on="0"/>
        <pt x="303" y="0" on="1"/>
      </contour>
    </TTGlyph>
    <TTGlyph name="Oslash" xMin="19" yMin="-12" xMax="686" yMax="724">
      <contour>
        <pt x="54" y="-12" on="0"/>
        <pt x="19" y="20" on="0"/>
        <pt x="19" y="44" on="0"/>
        <pt x="29" y="54" on="1"/>
        <pt x="95" y="129" on="1"/>
        <pt x="45" y="215" on="0"/>
        <pt x="45" y="350" on="1"/>
        <pt x="45" y="523" on="0"/>
        <pt x="211" y="708" on="0"/>
        <pt x="366" y="708" on="1"/>
        <pt x="484" y="708" on="0"/>
        <pt x="560" y="653" on="1"/>
        <pt x="612" y="712" on="1"/>
        <pt x="622" y="724" on="0"/>
        <pt x="647" y="724" on="0"/>
        <pt x="682" y="691" on="0"/>
        <pt x="682" y="668" on="0"/>
        <pt x="672" y="658" on="1"/>
        <pt x="618" y="597" on="1"/>
        <pt x="686" y="504" on="0"/>
        <pt x="686" y="177" on="0"/>
        <pt x="521" y="-8" on="0"/>
        <pt x="227" y="-8" on="0"/>
        <pt x="147" y="66" on="1"/>
        <pt x="89" y="0" on="1"/>
        <pt x="78" y="-12" on="0"/>
      </contour>
      <contour>
        <pt x="366" y="576" on="1"/>
        <pt x="286" y="576" on="0"/>
        <pt x="203" y="461" on="0"/>
        <pt x="203" y="350" on="1"/>
        <pt x="203" y="303" on="0"/>
        <pt x="211" y="260" on="1"/>
        <pt x="463" y="544" on="1"/>
        <pt x="425" y="576" on="0"/>
      </contour>
      <contour>
        <pt x="247" y="178" on="1"/>
        <pt x="288" y="123" on="0"/>
        <pt x="446" y="123" on="0"/>
        <pt x="528" y="239" on="0"/>
        <pt x="528" y="350" on="1"/>
        <pt x="528" y="422" on="0"/>
        <pt x="509" y="474" on="1"/>
      </contour>
    </TTGlyph>
    <TTGlyph name="Otilde" xMin="45" yMin="-8" xMax="686" yMax="888">
      <contour>
        <pt x="45" y="177" on="0"/>
        <pt x="45" y="523" on="0"/>
        <pt x="211" y="708" on="0"/>
        <pt x="521" y="708" on="0"/>
        <pt x="686" y="523" on="0"/>
        <pt x="686" y="177" on="0"/>
        <pt x="521" y="-8" on="0"/>
        <pt x="211" y="-8" on="0"/>
      </contour>
      <contour>
        <pt x="286" y="123" on="0"/>
        <pt x="446" y="123" on="0"/>
        <pt x="528" y="239" on="0"/>
        <pt x="528" y="461" on="0"/>
        <pt x="446" y="576" on="0"/>
        <pt x="286" y="576" on="0"/>
        <pt x="203" y="461" on="0"/>
        <pt x="203" y="239" on="0"/>
      </contour>
      <contour>
        <pt x="292" y="795" on="1"/>
        <pt x="247" y="784" on="1"/>
        <pt x="231" y="784" on="0"/>
        <pt x="205" y="813" on="0"/>
        <pt x="205" y="850" on="0"/>
        <pt x="272" y="888" on="0"/>
        <pt x="341" y="888" on="0"/>
        <pt x="420" y="868" on="0"/>
        <pt x="438" y="868" on="1"/>
        <pt x="484" y="879" on="1"/>
        <pt x="499" y="879" on="0"/>
        <pt x="525" y="850" on="0"/>
        <pt x="525" y="813" on="0"/>
        <pt x="458" y="775" on="0"/>
        <pt x="389" y="775" on="0"/>
        <pt x="309" y="795" on="0"/>
      </contour>
    </TTGlyph>
    <TTGlyph name="P" xMin="69" yMin="-2" xMax="557" yMax="700">
      <contour>
        <pt x="69" y="30" on="1"/>
        <pt x="69" y="660" on="1"/>
        <pt x="69" y="700" on="0"/>
        <pt x="109" y="700" on="1"/>
        <pt x="319" y="700" on="1"/>
        <pt x="436" y="700" on="0"/>
        <pt x="500" y="642" on="1"/>
        <pt x="524" y="619" on="0"/>
        <pt x="557" y="536" on="0"/>
        <pt x="557" y="426" on="0"/>
        <pt x="519" y="343" on="0"/>
        <pt x="466" y="298" on="0"/>
        <pt x="432" y="284" on="1"/>
        <pt x="379" y="262" on="0"/>
        <pt x="329" y="262" on="1"/>
        <pt x="223" y="262" on="1"/>
        <pt x="223" y="30" on="1"/>
        <pt x="223" y="-2" on="0"/>
        <pt x="163" y="-2" on="1"/>
        <pt x="129" y="-2" on="1"/>
        <pt x="69" y="-2" on="0"/>
      </contour>
      <contour>
        <pt x="223" y="394" on="1"/>
        <pt x="312" y="394" on="1"/>
        <pt x="348" y="394" on="0"/>
        <pt x="399" y="432" on="0"/>
        <pt x="399" y="530" on="0"/>
        <pt x="348" y="569" on="0"/>
        <pt x="312" y="569" on="1"/>
        <pt x="223" y="569" on="1"/>
      </contour>
    </TTGlyph>
    <TTGlyph name="Q" xMin="45" yMin="-146" xMax="696" yMax="708">
      <contour>
        <pt x="45" y="350" on="1"/>
        <pt x="45" y="523" on="0"/>
        <pt x="211" y="708" on="0"/>
        <pt x="521" y="708" on="0"/>
        <pt x="686" y="523" on="0"/>
        <pt x="686" y="350" on="1"/>
        <pt x="686" y="112" on="0"/>
        <pt x="529" y="31" on="1"/>
        <pt x="529" y="27" on="1"/>
        <pt x="682" y="-28" on="1"/>
        <pt x="696" y="-33" on="0"/>
        <pt x="696" y="-64" on="0"/>
        <pt x="662" y="-146" on="0"/>
        <pt x="641" y="-146" on="1"/>
        <pt x="635" y="-146" on="0"/>
        <pt x="372" y="-41" on="0"/>
        <pt x="227" y="16" on="1"/>
        <pt x="138" y="51" on="0"/>
        <pt x="45" y="221" on="0"/>
      </contour>
      <contour>
        <pt x="286" y="119" on="0"/>
        <pt x="446" y="119" on="0"/>
        <pt x="528" y="237" on="0"/>
        <pt x="528" y="461" on="0"/>
        <pt x="446" y="576" on="0"/>
        <pt x="286" y="576" on="0"/>
        <pt x="203" y="461" on="0"/>
        <pt x="203" y="237" on="0"/>
      </contour>
    </TTGlyph>
    <TTGlyph name="R" xMin="69" yMin="-2" xMax="601" yMax="700">
      <contour>
        <pt x="69" y="30" on="1"/>
        <pt x="69" y="660" on="1"/>
        <pt x="69" y="700" on="0"/>
        <pt x="109" y="700" on="1"/>
        <pt x="304" y="700" on="1"/>
        <pt x="553" y="700" on="0"/>
        <pt x="553" y="512" on="1"/>
        <pt x="553" y="456" on="0"/>
        <pt x="490" y="373" on="0"/>
        <pt x="436" y="353" on="1"/>
        <pt x="436" y="349" on="1"/>
        <pt x="455" y="342" on="0"/>
        <pt x="495" y="289" on="0"/>
        <pt x="508" y="257" on="1"/>
        <pt x="596" y="37" on="1"/>
        <pt x="601" y="24" on="0"/>
        <pt x="601" y="18" on="1"/>
        <pt x="601" y="-2" on="0"/>
        <pt x="541" y="-2" on="1"/>
        <pt x="500" y="-2" on="1"/>
        <pt x="450" y="-2" on="0"/>
        <pt x="442" y="19" on="1"/>
        <pt x="363" y="214" on="1"/>
        <pt x="346" y="247" on="0"/>
        <pt x="307" y="274" on="0"/>
        <pt x="262" y="274" on="1"/>
        <pt x="223" y="274" on="1"/>
        <pt x="223" y="30" on="1"/>
        <pt x="223" y="-2" on="0"/>
        <pt x="163" y="-2" on="1"/>
        <pt x="129" y="-2" on="1"/>
        <pt x="69" y="-2" on="0"/>
      </contour>
      <contour>
        <pt x="223" y="407" on="1"/>
        <pt x="318" y="407" on="1"/>
        <pt x="349" y="407" on="0"/>
        <pt x="395" y="457" on="0"/>
        <pt x="395" y="528" on="0"/>
        <pt x="350" y="569" on="0"/>
        <pt x="311" y="569" on="1"/>
        <pt x="223" y="569" on="1"/>
      </contour>
    </TTGlyph>
    <TTGlyph name="S" xMin="22" yMin="-8" xMax="483" yMax="708">
      <contour>
        <pt x="22" y="80" on="1"/>
        <pt x="22" y="103" on="0"/>
        <pt x="68" y="169" on="0"/>
        <pt x="84" y="169" on="1"/>
        <pt x="90" y="169" on="0"/>
        <pt x="110" y="158" on="1"/>
        <pt x="172" y="123" on="0"/>
        <pt x="231" y="123" on="1"/>
        <pt x="325" y="123" on="0"/>
        <pt x="325" y="196" on="1"/>
        <pt x="325" y="228" on="0"/>
        <pt x="265" y="272" on="0"/>
        <pt x="180" y="305" on="0"/>
        <pt x="96" y="348" on="0"/>
        <pt x="36" y="438" on="0"/>
        <pt x="36" y="573" on="0"/>
        <pt x="72" y="621" on="1"/>
        <pt x="137" y="708" on="0"/>
        <pt x="273" y="708" on="1"/>
        <pt x="349" y="708" on="0"/>
        <pt x="453" y="664" on="0"/>
        <pt x="453" y="638" on="1"/>
        <pt x="453" y="616" on="0"/>
        <pt x="415" y="551" on="0"/>
        <pt x="398" y="551" on="1"/>
        <pt x="394" y="551" on="0"/>
        <pt x="380" y="558" on="1"/>
        <pt x="340" y="576" on="0"/>
        <pt x="235" y="576" on="0"/>
        <pt x="194" y="540" on="0"/>
        <pt x="194" y="486" on="0"/>
        <pt x="254" y="444" on="0"/>
        <pt x="338" y="412" on="0"/>
        <pt x="423" y="369" on="0"/>
        <pt x="483" y="279" on="0"/>
        <pt x="483" y="154" on="0"/>
        <pt x="444" y="65" on="0"/>
        <pt x="410" y="40" on="1"/>
        <pt x="344" y="-8" on="0"/>
        <pt x="152" y="-8" on="0"/>
        <pt x="22" y="50" on="0"/>
      </contour>
    </TTGlyph>
    <TTGlyph name="Scaron" xMin="22" yMin="-8" xMax="483" yMax="931">
      <contour>
        <pt x="22" y="80" on="1"/>
        <pt x="22" y="103" on="0"/>
        <pt x="68" y="169" on="0"/>
        <pt x="84" y="169" on="1"/>
        <pt x="90" y="169" on="0"/>
        <pt x="110" y="158" on="1"/>
        <pt x="172" y="123" on="0"/>
        <pt x="231" y="123" on="1"/>
        <pt x="325" y="123" on="0"/>
        <pt x="325" y="196" on="1"/>
        <pt x="325" y="228" on="0"/>
        <pt x="265" y="272" on="0"/>
        <pt x="180" y="305" on="0"/>
        <pt x="96" y="348" on="0"/>
        <pt x="36" y="438" on="0"/>
        <pt x="36" y="573" on="0"/>
        <pt x="72" y="621" on="1"/>
        <pt x="137" y="708" on="0"/>
        <pt x="273" y="708" on="1"/>
        <pt x="349" y="708" on="0"/>
        <pt x="453" y="664" on="0"/>
        <pt x="453" y="638" on="1"/>
        <pt x="453" y="616" on="0"/>
        <pt x="415" y="551" on="0"/>
        <pt x="398" y="551" on="1"/>
        <pt x="394" y="551" on="0"/>
        <pt x="380" y="558" on="1"/>
        <pt x="340" y="576" on="0"/>
        <pt x="235" y="576" on="0"/>
        <pt x="194" y="540" on="0"/>
        <pt x="194" y="486" on="0"/>
        <pt x="254" y="444" on="0"/>
        <pt x="338" y="412" on="0"/>
        <pt x="423" y="369" on="0"/>
        <pt x="483" y="279" on="0"/>
        <pt x="483" y="154" on="0"/>
        <pt x="444" y="65" on="0"/>
        <pt x="410" y="40" on="1"/>
        <pt x="344" y="-8" on="0"/>
        <pt x="152" y="-8" on="0"/>
        <pt x="22" y="50" on="0"/>
      </contour>
      <contour>
        <pt x="245" y="785" on="1"/>
        <pt x="196" y="785" on="0"/>
        <pt x="184" y="804" on="1"/>
        <pt x="119" y="906" on="1"/>
        <pt x="113" y="915" on="0"/>
        <pt x="113" y="921" on="1"/>
        <pt x="113" y="931" on="0"/>
        <pt x="133" y="931" on="1"/>
        <pt x="155" y="931" on="1"/>
        <pt x="204" y="931" on="0"/>
        <pt x="222" y="906" on="1"/>
        <pt x="250" y="867" on="1"/>
        <pt x="278" y="907" on="1"/>
        <pt x="294" y="931" on="0"/>
        <pt x="346" y="931" on="1"/>
        <pt x="368" y="931" on="1"/>
        <pt x="388" y="931" on="0"/>
        <pt x="388" y="921" on="1"/>
        <pt x="388" y="915" on="0"/>
        <pt x="382" y="906" on="1"/>
        <pt x="317" y="804" on="1"/>
        <pt x="305" y="785" on="0"/>
        <pt x="256" y="785" on="1"/>
      </contour>
    </TTGlyph>
    <TTGlyph name="T" xMin="8" yMin="-2" xMax="541" yMax="700">
      <contour>
        <pt x="197" y="30" on="1"/>
        <pt x="197" y="569" on="1"/>
        <pt x="38" y="569" on="1"/>
        <pt x="8" y="569" on="0"/>
        <pt x="8" y="619" on="1"/>
        <pt x="8" y="650" on="1"/>
        <pt x="8" y="700" on="0"/>
        <pt x="38" y="700" on="1"/>
        <pt x="511" y="700" on="1"/>
        <pt x="541" y="700" on="0"/>
        <pt x="541" y="650" on="1"/>
        <pt x="541" y="619" on="1"/>
        <pt x="541" y="569" on="0"/>
        <pt x="511" y="569" on="1"/>
        <pt x="352" y="569" on="1"/>
        <pt x="352" y="30" on="1"/>
        <pt x="352" y="-2" on="0"/>
        <pt x="292" y="-2" on="1"/>
        <pt x="257" y="-2" on="1"/>
        <pt x="197" y="-2" on="0"/>
      </contour>
    </TTGlyph>
    <TTGlyph name="Thorn" xMin="68" yMin="-2" xMax="563" yMax="702">
      <contour>
        <pt x="68" y="30" on="1"/>
        <pt x="68" y="670" on="1"/>
        <pt x="68" y="702" on="0"/>
        <pt x="128" y="702" on="1"/>
        <pt x="162" y="702" on="1"/>
        <pt x="222" y="702" on="0"/>
        <pt x="222" y="670" on="1"/>
        <pt x="222" y="593" on="1"/>
        <pt x="325" y="593" on="1"/>
        <pt x="442" y="593" on="0"/>
        <pt x="506" y="534" on="1"/>
        <pt x="530" y="512" on="0"/>
        <pt x="563" y="429" on="0"/>
        <pt x="563" y="319" on="0"/>
        <pt x="525" y="236" on="0"/>
        <pt x="472" y="191" on="0"/>
        <pt x="438" y="177" on="1"/>
        <pt x="385" y="155" on="0"/>
        <pt x="335" y="155" on="1"/>
        <pt x="222" y="155" on="1"/>
        <pt x="222" y="30" on="1"/>
        <pt x="222" y="-2" on="0"/>
        <pt x="162" y="-2" on="1"/>
        <pt x="128" y="-2" on="1"/>
        <pt x="68" y="-2" on="0"/>
      </contour>
      <contour>
        <pt x="222" y="287" on="1"/>
        <pt x="318" y="287" on="1"/>
        <pt x="354" y="287" on="0"/>
        <pt x="405" y="325" on="0"/>
        <pt x="405" y="423" on="0"/>
        <pt x="354" y="462" on="0"/>
        <pt x="318" y="462" on="1"/>
        <pt x="222" y="462" on="1"/>
      </contour>
    </TTGlyph>
    <TTGlyph name="U" xMin="66" yMin="-8" xMax="646" yMax="702">
      <contour>
        <pt x="66" y="234" on="1"/>
        <pt x="66" y="670" on="1"/>
        <pt x="66" y="702" on="0"/>
        <pt x="126" y="702" on="1"/>
        <pt x="160" y="702" on="1"/>
        <pt x="220" y="702" on="0"/>
        <pt x="220" y="670" on="1"/>
        <pt x="220" y="244" on="1"/>
        <pt x="220" y="191" on="0"/>
        <pt x="296" y="123" on="0"/>
        <pt x="416" y="123" on="0"/>
        <pt x="493" y="191" on="0"/>
        <pt x="493" y="244" on="1"/>
        <pt x="493" y="670" on="1"/>
        <pt x="493" y="702" on="0"/>
        <pt x="553" y="702" on="1"/>
        <pt x="586" y="702" on="1"/>
        <pt x="646" y="702" on="0"/>
        <pt x="646" y="670" on="1"/>
        <pt x="646" y="234" on="1"/>
        <pt x="646" y="119" on="0"/>
        <pt x="494" y="-8" on="0"/>
        <pt x="218" y="-8" on="0"/>
        <pt x="66" y="119" on="0"/>
      </contour>
    </TTGlyph>
    <TTGlyph name="Uacute" xMin="66" yMin="-8" xMax="646" yMax="934">
      <contour>
        <pt x="66" y="234" on="1"/>
        <pt x="66" y="670" on="1"/>
        <pt x="66" y="702" on="0"/>
        <pt x="126" y="702" on="1"/>
        <pt x="160" y="702" on="1"/>
        <pt x="220" y="702" on="0"/>
        <pt x="220" y="670" on="1"/>
        <pt x="220" y="244" on="1"/>
        <pt x="220" y="191" on="0"/>
        <pt x="296" y="123" on="0"/>
        <pt x="416" y="123" on="0"/>
        <pt x="493" y="191" on="0"/>
        <pt x="493" y="244" on="1"/>
        <pt x="493" y="670" on="1"/>
        <pt x="493" y="702" on="0"/>
        <pt x="553" y="702" on="1"/>
        <pt x="586" y="702" on="1"/>
        <pt x="646" y="702" on="0"/>
        <pt x="646" y="670" on="1"/>
        <pt x="646" y="234" on="1"/>
        <pt x="646" y="119" on="0"/>
        <pt x="494" y="-8" on="0"/>
        <pt x="218" y="-8" on="0"/>
        <pt x="66" y="119" on="0"/>
      </contour>
      <contour>
        <pt x="316" y="775" on="1"/>
        <pt x="285" y="775" on="0"/>
        <pt x="285" y="790" on="1"/>
        <pt x="285" y="800" on="0"/>
        <pt x="314" y="844" on="0"/>
        <pt x="338" y="886" on="0"/>
        <pt x="350" y="907" on="1"/>
        <pt x="365" y="934" on="0"/>
        <pt x="495" y="934" on="0"/>
        <pt x="495" y="920" on="1"/>
        <pt x="495" y="914" on="0"/>
        <pt x="483" y="898" on="0"/>
        <pt x="447" y="861" on="0"/>
        <pt x="433" y="846" on="0"/>
        <pt x="405" y="815" on="0"/>
        <pt x="391" y="800" on="1"/>
        <pt x="368" y="775" on="0"/>
      </contour>
    </TTGlyph>
    <TTGlyph name="Ucircumflex" xMin="66" yMin="-8" xMax="646" yMax="908">
      <contour>
        <pt x="66" y="234" on="1"/>
        <pt x="66" y="670" on="1"/>
        <pt x="66" y="702" on="0"/>
        <pt x="126" y="702" on="1"/>
        <pt x="160" y="702" on="1"/>
        <pt x="220" y="702" on="0"/>
        <pt x="220" y="670" on="1"/>
        <pt x="220" y="244" on="1"/>
        <pt x="220" y="191" on="0"/>
        <pt x="296" y="123" on="0"/>
        <pt x="416" y="123" on="0"/>
        <pt x="493" y="191" on="0"/>
        <pt x="493" y="244" on="1"/>
        <pt x="493" y="670" on="1"/>
        <pt x="493" y="702" on="0"/>
        <pt x="553" y="702" on="1"/>
        <pt x="586" y="702" on="1"/>
        <pt x="646" y="702" on="0"/>
        <pt x="646" y="670" on="1"/>
        <pt x="646" y="234" on="1"/>
        <pt x="646" y="119" on="0"/>
        <pt x="494" y="-8" on="0"/>
        <pt x="218" y="-8" on="0"/>
        <pt x="66" y="119" on="0"/>
      </contour>
      <contour>
        <pt x="243" y="762" on="1"/>
        <pt x="223" y="762" on="0"/>
        <pt x="223" y="772" on="1"/>
        <pt x="223" y="778" on="0"/>
        <pt x="229" y="787" on="1"/>
        <pt x="294" y="889" on="1"/>
        <pt x="306" y="908" on="0"/>
        <pt x="355" y="908" on="1"/>
        <pt x="366" y="908" on="1"/>
        <pt x="415" y="908" on="0"/>
        <pt x="427" y="889" on="1"/>
        <pt x="492" y="787" on="1"/>
        <pt x="498" y="778" on="0"/>
        <pt x="498" y="772" on="1"/>
        <pt x="498" y="762" on="0"/>
        <pt x="478" y="762" on="1"/>
        <pt x="456" y="762" on="1"/>
        <pt x="404" y="762" on="0"/>
        <pt x="388" y="786" on="1"/>
        <pt x="360" y="826" on="1"/>
        <pt x="332" y="787" on="1"/>
        <pt x="314" y="762" on="0"/>
        <pt x="265" y="762" on="1"/>
      </contour>
    </TTGlyph>
    <TTGlyph name="Udieresis" xMin="66" yMin="-8" xMax="646" yMax="882">
      <contour>
        <pt x="66" y="234" on="1"/>
        <pt x="66" y="670" on="1"/>
        <pt x="66" y="702" on="0"/>
        <pt x="126" y="702" on="1"/>
        <pt x="160" y="702" on="1"/>
        <pt x="220" y="702" on="0"/>
        <pt x="220" y="670" on="1"/>
        <pt x="220" y="244" on="1"/>
        <pt x="220" y="191" on="0"/>
        <pt x="296" y="123" on="0"/>
        <pt x="416" y="123" on="0"/>
        <pt x="493" y="191" on="0"/>
        <pt x="493" y="244" on="1"/>
        <pt x="493" y="670" on="1"/>
        <pt x="493" y="702" on="0"/>
        <pt x="553" y="702" on="1"/>
        <pt x="586" y="702" on="1"/>
        <pt x="646" y="702" on="0"/>
        <pt x="646" y="670" on="1"/>
        <pt x="646" y="234" on="1"/>
        <pt x="646" y="119" on="0"/>
        <pt x="494" y="-8" on="0"/>
        <pt x="218" y="-8" on="0"/>
        <pt x="66" y="119" on="0"/>
      </contour>
      <contour>
        <pt x="511" y="758" on="0"/>
        <pt x="391" y="758" on="0"/>
        <pt x="391" y="790" on="1"/>
        <pt x="391" y="850" on="1"/>
        <pt x="391" y="882" on="0"/>
        <pt x="511" y="882" on="0"/>
        <pt x="511" y="850" on="1"/>
        <pt x="511" y="790" on="1"/>
      </contour>
      <contour>
        <pt x="331" y="758" on="0"/>
        <pt x="211" y="758" on="0"/>
        <pt x="211" y="790" on="1"/>
        <pt x="211" y="850" on="1"/>
        <pt x="211" y="882" on="0"/>
        <pt x="331" y="882" on="0"/>
        <pt x="331" y="850" on="1"/>
        <pt x="331" y="790" on="1"/>
      </contour>
    </TTGlyph>
    <TTGlyph name="Ugrave" xMin="66" yMin="-8" xMax="646" yMax="934">
      <contour>
        <pt x="66" y="234" on="1"/>
        <pt x="66" y="670" on="1"/>
        <pt x="66" y="702" on="0"/>
        <pt x="126" y="702" on="1"/>
        <pt x="160" y="702" on="1"/>
        <pt x="220" y="702" on="0"/>
        <pt x="220" y="670" on="1"/>
        <pt x="220" y="244" on="1"/>
        <pt x="220" y="191" on="0"/>
        <pt x="296" y="123" on="0"/>
        <pt x="416" y="123" on="0"/>
        <pt x="493" y="191" on="0"/>
        <pt x="493" y="244" on="1"/>
        <pt x="493" y="670" on="1"/>
        <pt x="493" y="702" on="0"/>
        <pt x="553" y="702" on="1"/>
        <pt x="586" y="702" on="1"/>
        <pt x="646" y="702" on="0"/>
        <pt x="646" y="670" on="1"/>
        <pt x="646" y="234" on="1"/>
        <pt x="646" y="119" on="0"/>
        <pt x="494" y="-8" on="0"/>
        <pt x="218" y="-8" on="0"/>
        <pt x="66" y="119" on="0"/>
      </contour>
      <contour>
        <pt x="422" y="775" on="1"/>
        <pt x="370" y="775" on="0"/>
        <pt x="317" y="833" on="0"/>
        <pt x="254" y="900" on="0"/>
        <pt x="243" y="914" on="0"/>
        <pt x="243" y="920" on="1"/>
        <pt x="243" y="934" on="0"/>
        <pt x="373" y="934" on="0"/>
        <pt x="388" y="907" on="1"/>
        <pt x="400" y="886" on="0"/>
        <pt x="424" y="844" on="0"/>
        <pt x="438" y="823" on="0"/>
        <pt x="444" y="813" on="1"/>
        <pt x="453" y="796" on="0"/>
        <pt x="453" y="790" on="1"/>
        <pt x="453" y="775" on="0"/>
      </contour>
    </TTGlyph>
    <TTGlyph name="V" xMin="5" yMin="-2" xMax="608" yMax="702">
      <contour>
        <pt x="5" y="680" on="1"/>
        <pt x="5" y="702" on="0"/>
        <pt x="66" y="702" on="1"/>
        <pt x="99" y="702" on="1"/>
        <pt x="149" y="702" on="0"/>
        <pt x="158" y="673" on="1"/>
        <pt x="304" y="205" on="1"/>
        <pt x="308" y="205" on="1"/>
        <pt x="458" y="673" on="1"/>
        <pt x="468" y="702" on="0"/>
        <pt x="517" y="702" on="1"/>
        <pt x="548" y="702" on="1"/>
        <pt x="608" y="702" on="0"/>
        <pt x="608" y="680" on="1"/>
        <pt x="608" y="672" on="0"/>
        <pt x="605" y="662" on="1"/>
        <pt x="389" y="19" on="1"/>
        <pt x="382" y="-2" on="0"/>
        <pt x="333" y="-2" on="1"/>
        <pt x="281" y="-2" on="1"/>
        <pt x="232" y="-2" on="0"/>
        <pt x="225" y="19" on="1"/>
        <pt x="9" y="662" on="1"/>
        <pt x="5" y="676" on="0"/>
      </contour>
    </TTGlyph>
    <TTGlyph name="W" xMin="-4" yMin="-2" xMax="886" yMax="702">
      <contour>
        <pt x="-4" y="676" on="1"/>
        <pt x="-4" y="702" on="0"/>
        <pt x="58" y="702" on="1"/>
        <pt x="84" y="702" on="1"/>
        <pt x="144" y="702" on="0"/>
        <pt x="151" y="671" on="1"/>
        <pt x="226" y="349" on="1"/>
        <pt x="228" y="342" on="0"/>
        <pt x="257" y="205" on="1"/>
        <pt x="263" y="245" on="0"/>
        <pt x="291" y="349" on="1"/>
        <pt x="373" y="681" on="1"/>
        <pt x="378" y="702" on="0"/>
        <pt x="428" y="702" on="1"/>
        <pt x="466" y="702" on="1"/>
        <pt x="516" y="702" on="0"/>
        <pt x="521" y="681" on="1"/>
        <pt x="600" y="349" on="1"/>
        <pt x="617" y="276" on="0"/>
        <pt x="634" y="198" on="1"/>
        <pt x="641" y="227" on="0"/>
        <pt x="664" y="332" on="0"/>
        <pt x="668" y="349" on="1"/>
        <pt x="746" y="671" on="1"/>
        <pt x="753" y="702" on="0"/>
        <pt x="813" y="702" on="1"/>
        <pt x="824" y="702" on="1"/>
        <pt x="886" y="702" on="0"/>
        <pt x="886" y="676" on="1"/>
        <pt x="886" y="673" on="0"/>
        <pt x="884" y="661" on="1"/>
        <pt x="721" y="19" on="1"/>
        <pt x="715" y="-2" on="0"/>
        <pt x="666" y="-2" on="1"/>
        <pt x="593" y="-2" on="1"/>
        <pt x="542" y="-2" on="0"/>
        <pt x="538" y="19" on="1"/>
        <pt x="440" y="433" on="1"/>
        <pt x="338" y="19" on="1"/>
        <pt x="332" y="-2" on="0"/>
        <pt x="283" y="-2" on="1"/>
        <pt x="211" y="-2" on="1"/>
        <pt x="160" y="-2" on="0"/>
        <pt x="156" y="19" on="1"/>
        <pt x="-2" y="661" on="1"/>
        <pt x="-4" y="667" on="0"/>
      </contour>
    </TTGlyph>
    <TTGlyph name="X" xMin="8" yMin="-2" xMax="603" yMax="702">
      <contour>
        <pt x="8" y="17" on="1"/>
        <pt x="8" y="26" on="0"/>
        <pt x="18" y="42" on="1"/>
        <pt x="224" y="365" on="1"/>
        <pt x="41" y="658" on="1"/>
        <pt x="31" y="675" on="0"/>
        <pt x="31" y="683" on="1"/>
        <pt x="31" y="702" on="0"/>
        <pt x="95" y="702" on="1"/>
        <pt x="136" y="702" on="1"/>
        <pt x="185" y="702" on="0"/>
        <pt x="196" y="683" on="1"/>
        <pt x="310" y="497" on="1"/>
        <pt x="430" y="683" on="1"/>
        <pt x="442" y="702" on="0"/>
        <pt x="491" y="702" on="1"/>
        <pt x="530" y="702" on="1"/>
        <pt x="593" y="702" on="0"/>
        <pt x="593" y="683" on="1"/>
        <pt x="593" y="672" on="0"/>
        <pt x="583" y="658" on="1"/>
        <pt x="394" y="363" on="1"/>
        <pt x="594" y="42" on="1"/>
        <pt x="603" y="27" on="0"/>
        <pt x="603" y="17" on="1"/>
        <pt x="603" y="-2" on="0"/>
        <pt x="540" y="-2" on="1"/>
        <pt x="501" y="-2" on="1"/>
        <pt x="452" y="-2" on="0"/>
        <pt x="441" y="17" on="1"/>
        <pt x="308" y="232" on="1"/>
        <pt x="170" y="17" on="1"/>
        <pt x="157" y="-2" on="0"/>
        <pt x="109" y="-2" on="1"/>
        <pt x="71" y="-2" on="1"/>
        <pt x="8" y="-2" on="0"/>
      </contour>
    </TTGlyph>
    <TTGlyph name="Y" xMin="-6" yMin="-2" xMax="565" yMax="702">
      <contour>
        <pt x="203" y="30" on="1"/>
        <pt x="203" y="336" on="1"/>
        <pt x="4" y="657" on="1"/>
        <pt x="-6" y="674" on="0"/>
        <pt x="-6" y="682" on="1"/>
        <pt x="-6" y="702" on="0"/>
        <pt x="58" y="702" on="1"/>
        <pt x="101" y="702" on="1"/>
        <pt x="150" y="702" on="0"/>
        <pt x="161" y="683" on="1"/>
        <pt x="283" y="469" on="1"/>
        <pt x="406" y="683" on="1"/>
        <pt x="417" y="702" on="0"/>
        <pt x="466" y="702" on="1"/>
        <pt x="502" y="702" on="1"/>
        <pt x="565" y="702" on="0"/>
        <pt x="565" y="682" on="1"/>
        <pt x="565" y="672" on="0"/>
        <pt x="556" y="657" on="1"/>
        <pt x="357" y="333" on="1"/>
        <pt x="357" y="30" on="1"/>
        <pt x="357" y="-2" on="0"/>
        <pt x="297" y="-2" on="1"/>
        <pt x="263" y="-2" on="1"/>
        <pt x="203" y="-2" on="0"/>
      </contour>
    </TTGlyph>
    <TTGlyph name="Yacute" xMin="-6" yMin="-2" xMax="565" yMax="934">
      <contour>
        <pt x="203" y="30" on="1"/>
        <pt x="203" y="336" on="1"/>
        <pt x="4" y="657" on="1"/>
        <pt x="-6" y="674" on="0"/>
        <pt x="-6" y="682" on="1"/>
        <pt x="-6" y="702" on="0"/>
        <pt x="58" y="702" on="1"/>
        <pt x="101" y="702" on="1"/>
        <pt x="150" y="702" on="0"/>
        <pt x="161" y="683" on="1"/>
        <pt x="283" y="469" on="1"/>
        <pt x="406" y="683" on="1"/>
        <pt x="417" y="702" on="0"/>
        <pt x="466" y="702" on="1"/>
        <pt x="502" y="702" on="1"/>
        <pt x="565" y="702" on="0"/>
        <pt x="565" y="682" on="1"/>
        <pt x="565" y="672" on="0"/>
        <pt x="556" y="657" on="1"/>
        <pt x="357" y="333" on="1"/>
        <pt x="357" y="30" on="1"/>
        <pt x="357" y="-2" on="0"/>
        <pt x="297" y="-2" on="1"/>
        <pt x="263" y="-2" on="1"/>
        <pt x="203" y="-2" on="0"/>
      </contour>
      <contour>
        <pt x="232" y="775" on="1"/>
        <pt x="201" y="775" on="0"/>
        <pt x="201" y="790" on="1"/>
        <pt x="201" y="800" on="0"/>
        <pt x="230" y="844" on="0"/>
        <pt x="254" y="886" on="0"/>
        <pt x="266" y="907" on="1"/>
        <pt x="281" y="934" on="0"/>
        <pt x="411" y="934" on="0"/>
        <pt x="411" y="920" on="1"/>
        <pt x="411" y="914" on="0"/>
        <pt x="399" y="898" on="0"/>
        <pt x="363" y="861" on="0"/>
        <pt x="349" y="846" on="0"/>
        <pt x="321" y="815" on="0"/>
        <pt x="307" y="800" on="1"/>
        <pt x="284" y="775" on="0"/>
      </contour>
    </TTGlyph>
    <TTGlyph name="Ydieresis" xMin="-6" yMin="-2" xMax="565" yMax="882">
      <contour>
        <pt x="203" y="30" on="1"/>
        <pt x="203" y="336" on="1"/>
        <pt x="4" y="657" on="1"/>
        <pt x="-6" y="674" on="0"/>
        <pt x="-6" y="682" on="1"/>
        <pt x="-6" y="702" on="0"/>
        <pt x="58" y="702" on="1"/>
        <pt x="101" y="702" on="1"/>
        <pt x="150" y="702" on="0"/>
        <pt x="161" y="683" on="1"/>
        <pt x="283" y="469" on="1"/>
        <pt x="406" y="683" on="1"/>
        <pt x="417" y="702" on="0"/>
        <pt x="466" y="702" on="1"/>
        <pt x="502" y="702" on="1"/>
        <pt x="565" y="702" on="0"/>
        <pt x="565" y="682" on="1"/>
        <pt x="565" y="672" on="0"/>
        <pt x="556" y="657" on="1"/>
        <pt x="357" y="333" on="1"/>
        <pt x="357" y="30" on="1"/>
        <pt x="357" y="-2" on="0"/>
        <pt x="297" y="-2" on="1"/>
        <pt x="263" y="-2" on="1"/>
        <pt x="203" y="-2" on="0"/>
      </contour>
      <contour>
        <pt x="427" y="758" on="0"/>
        <pt x="307" y="758" on="0"/>
        <pt x="307" y="790" on="1"/>
        <pt x="307" y="850" on="1"/>
        <pt x="307" y="882" on="0"/>
        <pt x="427" y="882" on="0"/>
        <pt x="427" y="850" on="1"/>
        <pt x="427" y="790" on="1"/>
      </contour>
      <contour>
        <pt x="247" y="758" on="0"/>
        <pt x="127" y="758" on="0"/>
        <pt x="127" y="790" on="1"/>
        <pt x="127" y="850" on="1"/>
        <pt x="127" y="882" on="0"/>
        <pt x="247" y="882" on="0"/>
        <pt x="247" y="850" on="1"/>
        <pt x="247" y="790" on="1"/>
      </contour>
    </TTGlyph>
    <TTGlyph name="Z" xMin="27" yMin="0" xMax="580" yMax="700">
      <contour>
        <pt x="66" y="0" on="1"/>
        <pt x="54" y="0" on="0"/>
        <pt x="27" y="67" on="0"/>
        <pt x="27" y="95" on="0"/>
        <pt x="29" y="99" on="1"/>
        <pt x="364" y="569" on="1"/>
        <pt x="86" y="569" on="1"/>
        <pt x="56" y="569" on="0"/>
        <pt x="56" y="619" on="1"/>
        <pt x="56" y="650" on="1"/>
        <pt x="56" y="700" on="0"/>
        <pt x="86" y="700" on="1"/>
        <pt x="543" y="700" on="1"/>
        <pt x="554" y="700" on="0"/>
        <pt x="580" y="630" on="0"/>
        <pt x="580" y="602" on="0"/>
        <pt x="579" y="600" on="1"/>
        <pt x="245" y="131" on="1"/>
        <pt x="550" y="131" on="1"/>
        <pt x="580" y="131" on="0"/>
        <pt x="580" y="81" on="1"/>
        <pt x="580" y="50" on="1"/>
        <pt x="580" y="0" on="0"/>
        <pt x="550" y="0" on="1"/>
      </contour>
    </TTGlyph>
    <TTGlyph name="Zcaron" xMin="27" yMin="0" xMax="580" yMax="908">
      <contour>
        <pt x="66" y="0" on="1"/>
        <pt x="54" y="0" on="0"/>
        <pt x="27" y="67" on="0"/>
        <pt x="27" y="95" on="0"/>
        <pt x="29" y="99" on="1"/>
        <pt x="364" y="569" on="1"/>
        <pt x="86" y="569" on="1"/>
        <pt x="56" y="569" on="0"/>
        <pt x="56" y="619" on="1"/>
        <pt x="56" y="650" on="1"/>
        <pt x="56" y="700" on="0"/>
        <pt x="86" y="700" on="1"/>
        <pt x="543" y="700" on="1"/>
        <pt x="554" y="700" on="0"/>
        <pt x="580" y="630" on="0"/>
        <pt x="580" y="602" on="0"/>
        <pt x="579" y="600" on="1"/>
        <pt x="245" y="131" on="1"/>
        <pt x="550" y="131" on="1"/>
        <pt x="580" y="131" on="0"/>
        <pt x="580" y="81" on="1"/>
        <pt x="580" y="50" on="1"/>
        <pt x="580" y="0" on="0"/>
        <pt x="550" y="0" on="1"/>
      </contour>
      <contour>
        <pt x="297" y="762" on="1"/>
        <pt x="248" y="762" on="0"/>
        <pt x="236" y="781" on="1"/>
        <pt x="171" y="883" on="1"/>
        <pt x="165" y="892" on="0"/>
        <pt x="165" y="898" on="1"/>
        <pt x="165" y="908" on="0"/>
        <pt x="185" y="908" on="1"/>
        <pt x="207" y="908" on="1"/>
        <pt x="256" y="908" on="0"/>
        <pt x="274" y="883" on="1"/>
        <pt x="302" y="844" on="1"/>
        <pt x="330" y="884" on="1"/>
        <pt x="346" y="908" on="0"/>
        <pt x="398" y="908" on="1"/>
        <pt x="420" y="908" on="1"/>
        <pt x="440" y="908" on="0"/>
        <pt x="440" y="898" on="1"/>
        <pt x="440" y="892" on="0"/>
        <pt x="434" y="883" on="1"/>
        <pt x="369" y="781" on="1"/>
        <pt x="357" y="762" on="0"/>
        <pt x="308" y="762" on="1"/>
      </contour>
    </TTGlyph>
    <TTGlyph name="a" xMin="42" yMin="-8" xMax="489" yMax="531">
      <contour>
        <pt x="42" y="138" on="1"/>
        <pt x="42" y="166" on="0"/>
        <pt x="52" y="212" on="0"/>
        <pt x="88" y="265" on="0"/>
        <pt x="118" y="282" on="1"/>
        <pt x="189" y="324" on="0"/>
        <pt x="329" y="324" on="1"/>
        <pt x="329" y="357" on="1"/>
        <pt x="329" y="414" on="0"/>
        <pt x="251" y="414" on="1"/>
        <pt x="196" y="414" on="0"/>
        <pt x="144" y="390" on="1"/>
        <pt x="126" y="382" on="0"/>
        <pt x="123" y="382" on="1"/>
        <pt x="108" y="382" on="0"/>
        <pt x="71" y="444" on="0"/>
        <pt x="71" y="462" on="1"/>
        <pt x="71" y="489" on="0"/>
        <pt x="182" y="531" on="0"/>
        <pt x="262" y="531" on="1"/>
        <pt x="477" y="531" on="0"/>
        <pt x="477" y="364" on="1"/>
        <pt x="477" y="176" on="1"/>
        <pt x="477" y="114" on="0"/>
        <pt x="483" y="72" on="1"/>
        <pt x="489" y="31" on="1"/>
        <pt x="489" y="15" on="0"/>
        <pt x="408" y="-1" on="0"/>
        <pt x="368" y="-1" on="0"/>
        <pt x="355" y="7" on="0"/>
        <pt x="347" y="26" on="0"/>
        <pt x="343" y="37" on="0"/>
        <pt x="338" y="65" on="0"/>
        <pt x="337" y="68" on="1"/>
        <pt x="319" y="36" on="0"/>
        <pt x="231" y="-8" on="0"/>
        <pt x="190" y="-8" on="1"/>
        <pt x="113" y="-8" on="0"/>
        <pt x="42" y="72" on="0"/>
      </contour>
      <contour>
        <pt x="189" y="153" on="1"/>
        <pt x="189" y="133" on="0"/>
        <pt x="215" y="109" on="0"/>
        <pt x="267" y="109" on="0"/>
        <pt x="317" y="145" on="0"/>
        <pt x="329" y="172" on="1"/>
        <pt x="329" y="227" on="1"/>
        <pt x="189" y="227" on="0"/>
      </contour>
    </TTGlyph>
    <TTGlyph name="aacute" xMin="42" yMin="-8" xMax="489" yMax="754">
      <contour>
        <pt x="42" y="138" on="1"/>
        <pt x="42" y="166" on="0"/>
        <pt x="52" y="212" on="0"/>
        <pt x="88" y="265" on="0"/>
        <pt x="118" y="282" on="1"/>
        <pt x="189" y="324" on="0"/>
        <pt x="329" y="324" on="1"/>
        <pt x="329" y="357" on="1"/>
        <pt x="329" y="414" on="0"/>
        <pt x="251" y="414" on="1"/>
        <pt x="196" y="414" on="0"/>
        <pt x="144" y="390" on="1"/>
        <pt x="126" y="382" on="0"/>
        <pt x="123" y="382" on="1"/>
        <pt x="108" y="382" on="0"/>
        <pt x="71" y="444" on="0"/>
        <pt x="71" y="462" on="1"/>
        <pt x="71" y="489" on="0"/>
        <pt x="182" y="531" on="0"/>
        <pt x="262" y="531" on="1"/>
        <pt x="477" y="531" on="0"/>
        <pt x="477" y="364" on="1"/>
        <pt x="477" y="176" on="1"/>
        <pt x="477" y="114" on="0"/>
        <pt x="483" y="72" on="1"/>
        <pt x="489" y="31" on="1"/>
        <pt x="489" y="15" on="0"/>
        <pt x="408" y="-1" on="0"/>
        <pt x="368" y="-1" on="0"/>
        <pt x="355" y="7" on="0"/>
        <pt x="347" y="26" on="0"/>
        <pt x="343" y="37" on="0"/>
        <pt x="338" y="65" on="0"/>
        <pt x="337" y="68" on="1"/>
        <pt x="319" y="36" on="0"/>
        <pt x="231" y="-8" on="0"/>
        <pt x="190" y="-8" on="1"/>
        <pt x="113" y="-8" on="0"/>
        <pt x="42" y="72" on="0"/>
      </contour>
      <contour>
        <pt x="189" y="153" on="1"/>
        <pt x="189" y="133" on="0"/>
        <pt x="215" y="109" on="0"/>
        <pt x="267" y="109" on="0"/>
        <pt x="317" y="145" on="0"/>
        <pt x="329" y="172" on="1"/>
        <pt x="329" y="227" on="1"/>
        <pt x="189" y="227" on="0"/>
      </contour>
      <contour>
        <pt x="239" y="595" on="1"/>
        <pt x="208" y="595" on="0"/>
        <pt x="208" y="610" on="1"/>
        <pt x="208" y="620" on="0"/>
        <pt x="237" y="664" on="0"/>
        <pt x="261" y="706" on="0"/>
        <pt x="273" y="727" on="1"/>
        <pt x="288" y="754" on="0"/>
        <pt x="418" y="754" on="0"/>
        <pt x="418" y="740" on="1"/>
        <pt x="418" y="734" on="0"/>
        <pt x="406" y="718" on="0"/>
        <pt x="370" y="681" on="0"/>
        <pt x="356" y="666" on="0"/>
        <pt x="328" y="635" on="0"/>
        <pt x="314" y="620" on="1"/>
        <pt x="291" y="595" on="0"/>
      </contour>
    </TTGlyph>
    <TTGlyph name="acircumflex" xMin="42" yMin="-8" xMax="489" yMax="728">
      <contour>
        <pt x="42" y="138" on="1"/>
        <pt x="42" y="166" on="0"/>
        <pt x="52" y="212" on="0"/>
        <pt x="88" y="265" on="0"/>
        <pt x="118" y="282" on="1"/>
        <pt x="189" y="324" on="0"/>
        <pt x="329" y="324" on="1"/>
        <pt x="329" y="357" on="1"/>
        <pt x="329" y="414" on="0"/>
        <pt x="251" y="414" on="1"/>
        <pt x="196" y="414" on="0"/>
        <pt x="144" y="390" on="1"/>
        <pt x="126" y="382" on="0"/>
        <pt x="123" y="382" on="1"/>
        <pt x="108" y="382" on="0"/>
        <pt x="71" y="444" on="0"/>
        <pt x="71" y="462" on="1"/>
        <pt x="71" y="489" on="0"/>
        <pt x="182" y="531" on="0"/>
        <pt x="262" y="531" on="1"/>
        <pt x="477" y="531" on="0"/>
        <pt x="477" y="364" on="1"/>
        <pt x="477" y="176" on="1"/>
        <pt x="477" y="114" on="0"/>
        <pt x="483" y="72" on="1"/>
        <pt x="489" y="31" on="1"/>
        <pt x="489" y="15" on="0"/>
        <pt x="408" y="-1" on="0"/>
        <pt x="368" y="-1" on="0"/>
        <pt x="355" y="7" on="0"/>
        <pt x="347" y="26" on="0"/>
        <pt x="343" y="37" on="0"/>
        <pt x="338" y="65" on="0"/>
        <pt x="337" y="68" on="1"/>
        <pt x="319" y="36" on="0"/>
        <pt x="231" y="-8" on="0"/>
        <pt x="190" y="-8" on="1"/>
        <pt x="113" y="-8" on="0"/>
        <pt x="42" y="72" on="0"/>
      </contour>
      <contour>
        <pt x="189" y="153" on="1"/>
        <pt x="189" y="133" on="0"/>
        <pt x="215" y="109" on="0"/>
        <pt x="267" y="109" on="0"/>
        <pt x="317" y="145" on="0"/>
        <pt x="329" y="172" on="1"/>
        <pt x="329" y="227" on="1"/>
        <pt x="189" y="227" on="0"/>
      </contour>
      <contour>
        <pt x="166" y="582" on="1"/>
        <pt x="146" y="582" on="0"/>
        <pt x="146" y="592" on="1"/>
        <pt x="146" y="598" on="0"/>
        <pt x="152" y="607" on="1"/>
        <pt x="217" y="709" on="1"/>
        <pt x="229" y="728" on="0"/>
        <pt x="278" y="728" on="1"/>
        <pt x="289" y="728" on="1"/>
        <pt x="338" y="728" on="0"/>
        <pt x="350" y="709" on="1"/>
        <pt x="415" y="607" on="1"/>
        <pt x="421" y="598" on="0"/>
        <pt x="421" y="592" on="1"/>
        <pt x="421" y="582" on="0"/>
        <pt x="401" y="582" on="1"/>
        <pt x="379" y="582" on="1"/>
        <pt x="327" y="582" on="0"/>
        <pt x="311" y="606" on="1"/>
        <pt x="283" y="646" on="1"/>
        <pt x="255" y="607" on="1"/>
        <pt x="237" y="582" on="0"/>
        <pt x="188" y="582" on="1"/>
      </contour>
    </TTGlyph>
    <TTGlyph name="acute" xMin="54" yMin="595" xMax="264" yMax="754">
      <contour>
        <pt x="85" y="595" on="1"/>
        <pt x="54" y="595" on="0"/>
        <pt x="54" y="610" on="1"/>
        <pt x="54" y="620" on="0"/>
        <pt x="83" y="664" on="0"/>
        <pt x="107" y="706" on="0"/>
        <pt x="119" y="727" on="1"/>
        <pt x="134" y="754" on="0"/>
        <pt x="264" y="754" on="0"/>
        <pt x="264" y="740" on="1"/>
        <pt x="264" y="734" on="0"/>
        <pt x="252" y="718" on="0"/>
        <pt x="216" y="681" on="0"/>
        <pt x="202" y="666" on="0"/>
        <pt x="174" y="635" on="0"/>
        <pt x="160" y="620" on="1"/>
        <pt x="137" y="595" on="0"/>
      </contour>
    </TTGlyph>
    <TTGlyph name="adieresis" xMin="42" yMin="-8" xMax="489" yMax="702">
      <contour>
        <pt x="42" y="138" on="1"/>
        <pt x="42" y="166" on="0"/>
        <pt x="52" y="212" on="0"/>
        <pt x="88" y="265" on="0"/>
        <pt x="118" y="282" on="1"/>
        <pt x="189" y="324" on="0"/>
        <pt x="329" y="324" on="1"/>
        <pt x="329" y="357" on="1"/>
        <pt x="329" y="414" on="0"/>
        <pt x="251" y="414" on="1"/>
        <pt x="196" y="414" on="0"/>
        <pt x="144" y="390" on="1"/>
        <pt x="126" y="382" on="0"/>
        <pt x="123" y="382" on="1"/>
        <pt x="108" y="382" on="0"/>
        <pt x="71" y="444" on="0"/>
        <pt x="71" y="462" on="1"/>
        <pt x="71" y="489" on="0"/>
        <pt x="182" y="531" on="0"/>
        <pt x="262" y="531" on="1"/>
        <pt x="477" y="531" on="0"/>
        <pt x="477" y="364" on="1"/>
        <pt x="477" y="176" on="1"/>
        <pt x="477" y="114" on="0"/>
        <pt x="483" y="72" on="1"/>
        <pt x="489" y="31" on="1"/>
        <pt x="489" y="15" on="0"/>
        <pt x="408" y="-1" on="0"/>
        <pt x="368" y="-1" on="0"/>
        <pt x="355" y="7" on="0"/>
        <pt x="347" y="26" on="0"/>
        <pt x="343" y="37" on="0"/>
        <pt x="338" y="65" on="0"/>
        <pt x="337" y="68" on="1"/>
        <pt x="319" y="36" on="0"/>
        <pt x="231" y="-8" on="0"/>
        <pt x="190" y="-8" on="1"/>
        <pt x="113" y="-8" on="0"/>
        <pt x="42" y="72" on="0"/>
      </contour>
      <contour>
        <pt x="189" y="153" on="1"/>
        <pt x="189" y="133" on="0"/>
        <pt x="215" y="109" on="0"/>
        <pt x="267" y="109" on="0"/>
        <pt x="317" y="145" on="0"/>
        <pt x="329" y="172" on="1"/>
        <pt x="329" y="227" on="1"/>
        <pt x="189" y="227" on="0"/>
      </contour>
      <contour>
        <pt x="434" y="578" on="0"/>
        <pt x="314" y="578" on="0"/>
        <pt x="314" y="610" on="1"/>
        <pt x="314" y="670" on="1"/>
        <pt x="314" y="702" on="0"/>
        <pt x="434" y="702" on="0"/>
        <pt x="434" y="670" on="1"/>
        <pt x="434" y="610" on="1"/>
      </contour>
      <contour>
        <pt x="254" y="578" on="0"/>
        <pt x="134" y="578" on="0"/>
        <pt x="134" y="610" on="1"/>
        <pt x="134" y="670" on="1"/>
        <pt x="134" y="702" on="0"/>
        <pt x="254" y="702" on="0"/>
        <pt x="254" y="670" on="1"/>
        <pt x="254" y="610" on="1"/>
      </contour>
    </TTGlyph>
    <TTGlyph name="ae" xMin="41" yMin="-8" xMax="780" yMax="531">
      <contour>
        <pt x="41" y="138" on="1"/>
        <pt x="41" y="166" on="0"/>
        <pt x="51" y="211" on="0"/>
        <pt x="87" y="263" on="0"/>
        <pt x="116" y="281" on="1"/>
        <pt x="185" y="323" on="0"/>
        <pt x="325" y="323" on="1"/>
        <pt x="329" y="358" on="0"/>
        <pt x="340" y="387" on="1"/>
        <pt x="319" y="414" on="0"/>
        <pt x="250" y="414" on="1"/>
        <pt x="213" y="414" on="0"/>
        <pt x="124" y="382" on="0"/>
        <pt x="122" y="382" on="1"/>
        <pt x="107" y="382" on="0"/>
        <pt x="70" y="444" on="0"/>
        <pt x="70" y="462" on="1"/>
        <pt x="70" y="489" on="0"/>
        <pt x="181" y="531" on="0"/>
        <pt x="369" y="531" on="0"/>
        <pt x="422" y="495" on="1"/>
        <pt x="480" y="531" on="0"/>
        <pt x="564" y="531" on="1"/>
        <pt x="676" y="531" on="0"/>
        <pt x="780" y="395" on="0"/>
        <pt x="780" y="283" on="1"/>
        <pt x="780" y="270" on="0"/>
        <pt x="741" y="224" on="0"/>
        <pt x="731" y="224" on="1"/>
        <pt x="476" y="224" on="1"/>
        <pt x="476" y="163" on="0"/>
        <pt x="540" y="109" on="0"/>
        <pt x="627" y="109" on="0"/>
        <pt x="709" y="140" on="0"/>
        <pt x="710" y="140" on="1"/>
        <pt x="725" y="140" on="0"/>
        <pt x="762" y="81" on="0"/>
        <pt x="762" y="64" on="1"/>
        <pt x="762" y="31" on="0"/>
        <pt x="637" y="-8" on="0"/>
        <pt x="582" y="-8" on="1"/>
        <pt x="455" y="-8" on="0"/>
        <pt x="387" y="60" on="1"/>
        <pt x="363" y="36" on="0"/>
        <pt x="268" y="-8" on="0"/>
        <pt x="129" y="-8" on="0"/>
        <pt x="41" y="74" on="0"/>
      </contour>
      <contour>
        <pt x="636" y="323" on="1"/>
        <pt x="636" y="366" on="0"/>
        <pt x="597" y="414" on="0"/>
        <pt x="564" y="414" on="1"/>
        <pt x="488" y="414" on="0"/>
        <pt x="474" y="323" on="1"/>
      </contour>
      <contour>
        <pt x="188" y="153" on="1"/>
        <pt x="188" y="133" on="0"/>
        <pt x="214" y="109" on="0"/>
        <pt x="266" y="109" on="0"/>
        <pt x="320" y="134" on="0"/>
        <pt x="334" y="156" on="1"/>
        <pt x="325" y="188" on="0"/>
        <pt x="322" y="225" on="1"/>
        <pt x="188" y="224" on="0"/>
      </contour>
    </TTGlyph>
    <TTGlyph name="agrave" xMin="42" yMin="-8" xMax="489" yMax="754">
      <contour>
        <pt x="42" y="138" on="1"/>
        <pt x="42" y="166" on="0"/>
        <pt x="52" y="212" on="0"/>
        <pt x="88" y="265" on="0"/>
        <pt x="118" y="282" on="1"/>
        <pt x="189" y="324" on="0"/>
        <pt x="329" y="324" on="1"/>
        <pt x="329" y="357" on="1"/>
        <pt x="329" y="414" on="0"/>
        <pt x="251" y="414" on="1"/>
        <pt x="196" y="414" on="0"/>
        <pt x="144" y="390" on="1"/>
        <pt x="126" y="382" on="0"/>
        <pt x="123" y="382" on="1"/>
        <pt x="108" y="382" on="0"/>
        <pt x="71" y="444" on="0"/>
        <pt x="71" y="462" on="1"/>
        <pt x="71" y="489" on="0"/>
        <pt x="182" y="531" on="0"/>
        <pt x="262" y="531" on="1"/>
        <pt x="477" y="531" on="0"/>
        <pt x="477" y="364" on="1"/>
        <pt x="477" y="176" on="1"/>
        <pt x="477" y="114" on="0"/>
        <pt x="483" y="72" on="1"/>
        <pt x="489" y="31" on="1"/>
        <pt x="489" y="15" on="0"/>
        <pt x="408" y="-1" on="0"/>
        <pt x="368" y="-1" on="0"/>
        <pt x="355" y="7" on="0"/>
        <pt x="347" y="26" on="0"/>
        <pt x="343" y="37" on="0"/>
        <pt x="338" y="65" on="0"/>
        <pt x="337" y="68" on="1"/>
        <pt x="319" y="36" on="0"/>
        <pt x="231" y="-8" on="0"/>
        <pt x="190" y="-8" on="1"/>
        <pt x="113" y="-8" on="0"/>
        <pt x="42" y="72" on="0"/>
      </contour>
      <contour>
        <pt x="189" y="153" on="1"/>
        <pt x="189" y="133" on="0"/>
        <pt x="215" y="109" on="0"/>
        <pt x="267" y="109" on="0"/>
        <pt x="317" y="145" on="0"/>
        <pt x="329" y="172" on="1"/>
        <pt x="329" y="227" on="1"/>
        <pt x="189" y="227" on="0"/>
      </contour>
      <contour>
        <pt x="345" y="595" on="1"/>
        <pt x="293" y="595" on="0"/>
        <pt x="240" y="653" on="0"/>
        <pt x="177" y="720" on="0"/>
        <pt x="166" y="734" on="0"/>
        <pt x="166" y="740" on="1"/>
        <pt x="166" y="754" on="0"/>
        <pt x="296" y="754" on="0"/>
        <pt x="311" y="727" on="1"/>
        <pt x="323" y="706" on="0"/>
        <pt x="347" y="664" on="0"/>
        <pt x="361" y="643" on="0"/>
        <pt x="366" y="633" on="1"/>
        <pt x="376" y="616" on="0"/>
        <pt x="376" y="610" on="1"/>
        <pt x="376" y="595" on="0"/>
      </contour>
    </TTGlyph>
    <TTGlyph name="ampersand" xMin="23" yMin="-8" xMax="635" yMax="708">
      <contour>
        <pt x="577" y="109" on="1"/>
        <pt x="604" y="113" on="1"/>
        <pt x="617" y="113" on="0"/>
        <pt x="635" y="54" on="0"/>
        <pt x="635" y="41" on="1"/>
        <pt x="635" y="-8" on="0"/>
        <pt x="539" y="-8" on="1"/>
        <pt x="467" y="-8" on="0"/>
        <pt x="430" y="32" on="1"/>
        <pt x="350" y="-8" on="0"/>
        <pt x="148" y="-8" on="0"/>
        <pt x="23" y="106" on="0"/>
        <pt x="23" y="204" on="1"/>
        <pt x="23" y="339" on="0"/>
        <pt x="139" y="383" on="1"/>
        <pt x="139" y="387" on="1"/>
        <pt x="96" y="405" on="0"/>
        <pt x="46" y="482" on="0"/>
        <pt x="46" y="533" on="1"/>
        <pt x="46" y="613" on="0"/>
        <pt x="157" y="708" on="0"/>
        <pt x="361" y="708" on="0"/>
        <pt x="361" y="666" on="1"/>
        <pt x="361" y="631" on="0"/>
        <pt x="339" y="584" on="0"/>
        <pt x="326" y="584" on="1"/>
        <pt x="308" y="588" on="1"/>
        <pt x="291" y="591" on="0"/>
        <pt x="277" y="591" on="1"/>
        <pt x="237" y="591" on="0"/>
        <pt x="196" y="547" on="0"/>
        <pt x="196" y="471" on="0"/>
        <pt x="251" y="426" on="0"/>
        <pt x="299" y="426" on="1"/>
        <pt x="393" y="426" on="1"/>
        <pt x="406" y="521" on="1"/>
        <pt x="411" y="553" on="0"/>
        <pt x="460" y="553" on="1"/>
        <pt x="491" y="553" on="1"/>
        <pt x="541" y="553" on="0"/>
        <pt x="541" y="521" on="1"/>
        <pt x="541" y="426" on="1"/>
        <pt x="590" y="426" on="1"/>
        <pt x="620" y="426" on="0"/>
        <pt x="620" y="376" on="1"/>
        <pt x="620" y="359" on="1"/>
        <pt x="620" y="309" on="0"/>
        <pt x="590" y="309" on="1"/>
        <pt x="541" y="309" on="1"/>
        <pt x="541" y="152" on="1"/>
        <pt x="541" y="109" on="0"/>
      </contour>
      <contour>
        <pt x="173" y="206" on="1"/>
        <pt x="173" y="160" on="0"/>
        <pt x="227" y="109" on="0"/>
        <pt x="331" y="109" on="0"/>
        <pt x="393" y="136" on="1"/>
        <pt x="393" y="309" on="1"/>
        <pt x="290" y="309" on="1"/>
        <pt x="173" y="309" on="0"/>
      </contour>
    </TTGlyph>
    <TTGlyph name="approxequal" xMin="64" yMin="48" xMax="484" yMax="408">
      <contour>
        <pt x="150" y="287" on="0"/>
        <pt x="111" y="276" on="0"/>
        <pt x="90" y="276" on="0"/>
        <pt x="64" y="310" on="0"/>
        <pt x="64" y="327" on="1"/>
        <pt x="64" y="353" on="0"/>
        <pt x="166" y="408" on="0"/>
        <pt x="246" y="408" on="0"/>
        <pt x="354" y="366" on="0"/>
        <pt x="392" y="366" on="0"/>
        <pt x="434" y="381" on="0"/>
        <pt x="459" y="381" on="0"/>
        <pt x="484" y="341" on="0"/>
        <pt x="484" y="323" on="1"/>
        <pt x="484" y="295" on="0"/>
        <pt x="378" y="245" on="0"/>
        <pt x="300" y="245" on="0"/>
        <pt x="193" y="287" on="0"/>
      </contour>
      <contour>
        <pt x="150" y="90" on="0"/>
        <pt x="111" y="79" on="0"/>
        <pt x="90" y="79" on="0"/>
        <pt x="64" y="113" on="0"/>
        <pt x="64" y="130" on="1"/>
        <pt x="64" y="156" on="0"/>
        <pt x="166" y="211" on="0"/>
        <pt x="246" y="211" on="0"/>
        <pt x="354" y="169" on="0"/>
        <pt x="392" y="169" on="0"/>
        <pt x="434" y="184" on="0"/>
        <pt x="459" y="184" on="0"/>
        <pt x="484" y="144" on="0"/>
        <pt x="484" y="126" on="1"/>
        <pt x="484" y="98" on="0"/>
        <pt x="378" y="48" on="0"/>
        <pt x="300" y="48" on="0"/>
        <pt x="193" y="90" on="0"/>
      </contour>
    </TTGlyph>
    <TTGlyph name="aring" xMin="42" yMin="-8" xMax="489" yMax="749">
      <contour>
        <pt x="42" y="138" on="1"/>
        <pt x="42" y="166" on="0"/>
        <pt x="52" y="212" on="0"/>
        <pt x="88" y="265" on="0"/>
        <pt x="118" y="282" on="1"/>
        <pt x="189" y="324" on="0"/>
        <pt x="329" y="324" on="1"/>
        <pt x="329" y="357" on="1"/>
        <pt x="329" y="414" on="0"/>
        <pt x="251" y="414" on="1"/>
        <pt x="196" y="414" on="0"/>
        <pt x="144" y="390" on="1"/>
        <pt x="126" y="382" on="0"/>
        <pt x="123" y="382" on="1"/>
        <pt x="108" y="382" on="0"/>
        <pt x="71" y="444" on="0"/>
        <pt x="71" y="462" on="1"/>
        <pt x="71" y="489" on="0"/>
        <pt x="182" y="531" on="0"/>
        <pt x="262" y="531" on="1"/>
        <pt x="477" y="531" on="0"/>
        <pt x="477" y="364" on="1"/>
        <pt x="477" y="176" on="1"/>
        <pt x="477" y="114" on="0"/>
        <pt x="483" y="72" on="1"/>
        <pt x="489" y="31" on="1"/>
        <pt x="489" y="15" on="0"/>
        <pt x="408" y="-1" on="0"/>
        <pt x="368" y="-1" on="0"/>
        <pt x="355" y="7" on="0"/>
        <pt x="347" y="26" on="0"/>
        <pt x="343" y="37" on="0"/>
        <pt x="338" y="65" on="0"/>
        <pt x="337" y="68" on="1"/>
        <pt x="319" y="36" on="0"/>
        <pt x="231" y="-8" on="0"/>
        <pt x="190" y="-8" on="1"/>
        <pt x="113" y="-8" on="0"/>
        <pt x="42" y="72" on="0"/>
      </contour>
      <contour>
        <pt x="189" y="153" on="1"/>
        <pt x="189" y="133" on="0"/>
        <pt x="215" y="109" on="0"/>
        <pt x="267" y="109" on="0"/>
        <pt x="317" y="145" on="0"/>
        <pt x="329" y="172" on="1"/>
        <pt x="329" y="227" on="1"/>
        <pt x="189" y="227" on="0"/>
      </contour>
      <contour>
        <pt x="326" y="550" on="0"/>
        <pt x="242" y="550" on="0"/>
        <pt x="185" y="607" on="0"/>
        <pt x="185" y="691" on="0"/>
        <pt x="242" y="749" on="0"/>
        <pt x="326" y="749" on="0"/>
        <pt x="384" y="691" on="0"/>
        <pt x="384" y="607" on="0"/>
      </contour>
      <contour>
        <pt x="269" y="612" on="0"/>
        <pt x="299" y="612" on="0"/>
        <pt x="321" y="633" on="0"/>
        <pt x="321" y="663" on="0"/>
        <pt x="299" y="685" on="0"/>
        <pt x="269" y="685" on="0"/>
        <pt x="248" y="663" on="0"/>
        <pt x="248" y="633" on="0"/>
      </contour>
    </TTGlyph>
    <TTGlyph name="arrowdown" xMin="0" yMin="-2" xMax="529" yMax="711">
      <contour>
        <pt x="212" y="30" on="1"/>
        <pt x="212" y="525" on="1"/>
        <pt x="21" y="331" on="1"/>
        <pt x="11" y="321" on="0"/>
        <pt x="0" y="321" on="0"/>
        <pt x="0" y="340" on="1"/>
        <pt x="0" y="426" on="1"/>
        <pt x="0" y="456" on="0"/>
        <pt x="21" y="477" on="1"/>
        <pt x="247" y="704" on="1"/>
        <pt x="254" y="711" on="0"/>
        <pt x="276" y="711" on="0"/>
        <pt x="283" y="704" on="1"/>
        <pt x="508" y="478" on="1"/>
        <pt x="529" y="457" on="0"/>
        <pt x="529" y="427" on="1"/>
        <pt x="529" y="341" on="1"/>
        <pt x="529" y="322" on="0"/>
        <pt x="518" y="322" on="0"/>
        <pt x="508" y="332" on="1"/>
        <pt x="319" y="524" on="1"/>
        <pt x="319" y="30" on="1"/>
        <pt x="319" y="-2" on="0"/>
        <pt x="275" y="-2" on="1"/>
        <pt x="256" y="-2" on="1"/>
        <pt x="212" y="-2" on="0"/>
      </contour>
    </TTGlyph>
    <TTGlyph name="arrowleft" xMin="0" yMin="-2" xMax="751" yMax="527">
      <contour>
        <pt x="0" y="252" on="0"/>
        <pt x="0" y="274" on="0"/>
        <pt x="7" y="281" on="1"/>
        <pt x="233" y="506" on="1"/>
        <pt x="254" y="527" on="0"/>
        <pt x="284" y="527" on="1"/>
        <pt x="370" y="527" on="1"/>
        <pt x="389" y="527" on="0"/>
        <pt x="389" y="516" on="0"/>
        <pt x="379" y="506" on="1"/>
        <pt x="187" y="317" on="1"/>
        <pt x="719" y="317" on="1"/>
        <pt x="751" y="317" on="0"/>
        <pt x="751" y="273" on="1"/>
        <pt x="751" y="254" on="1"/>
        <pt x="751" y="210" on="0"/>
        <pt x="719" y="210" on="1"/>
        <pt x="186" y="210" on="1"/>
        <pt x="380" y="19" on="1"/>
        <pt x="390" y="9" on="0"/>
        <pt x="390" y="-2" on="0"/>
        <pt x="371" y="-2" on="1"/>
        <pt x="285" y="-2" on="1"/>
        <pt x="255" y="-2" on="0"/>
        <pt x="234" y="19" on="1"/>
        <pt x="7" y="245" on="1"/>
      </contour>
    </TTGlyph>
    <TTGlyph name="arrowright" xMin="0" yMin="-2" xMax="751" yMax="527">
      <contour>
        <pt x="32" y="210" on="1"/>
        <pt x="0" y="210" on="0"/>
        <pt x="0" y="254" on="1"/>
        <pt x="0" y="273" on="1"/>
        <pt x="0" y="317" on="0"/>
        <pt x="32" y="317" on="1"/>
        <pt x="564" y="317" on="1"/>
        <pt x="372" y="506" on="1"/>
        <pt x="362" y="516" on="0"/>
        <pt x="362" y="527" on="0"/>
        <pt x="381" y="527" on="1"/>
        <pt x="467" y="527" on="1"/>
        <pt x="497" y="527" on="0"/>
        <pt x="518" y="506" on="1"/>
        <pt x="744" y="281" on="1"/>
        <pt x="751" y="274" on="0"/>
        <pt x="751" y="252" on="0"/>
        <pt x="744" y="245" on="1"/>
        <pt x="517" y="19" on="1"/>
        <pt x="496" y="-2" on="0"/>
        <pt x="466" y="-2" on="1"/>
        <pt x="380" y="-2" on="1"/>
        <pt x="361" y="-2" on="0"/>
        <pt x="361" y="9" on="0"/>
        <pt x="371" y="19" on="1"/>
        <pt x="565" y="210" on="1"/>
      </contour>
    </TTGlyph>
    <TTGlyph name="arrowup" xMin="2" yMin="-2" xMax="531" yMax="711">
      <contour>
        <pt x="2" y="282" on="1"/>
        <pt x="2" y="368" on="1"/>
        <pt x="2" y="387" on="0"/>
        <pt x="13" y="387" on="0"/>
        <pt x="23" y="377" on="1"/>
        <pt x="212" y="185" on="1"/>
        <pt x="212" y="679" on="1"/>
        <pt x="212" y="711" on="0"/>
        <pt x="256" y="711" on="1"/>
        <pt x="275" y="711" on="1"/>
        <pt x="319" y="711" on="0"/>
        <pt x="319" y="679" on="1"/>
        <pt x="319" y="184" on="1"/>
        <pt x="510" y="378" on="1"/>
        <pt x="520" y="388" on="0"/>
        <pt x="531" y="388" on="0"/>
        <pt x="531" y="369" on="1"/>
        <pt x="531" y="283" on="1"/>
        <pt x="531" y="253" on="0"/>
        <pt x="510" y="232" on="1"/>
        <pt x="284" y="5" on="1"/>
        <pt x="277" y="-2" on="0"/>
        <pt x="255" y="-2" on="0"/>
        <pt x="248" y="5" on="1"/>
        <pt x="23" y="231" on="1"/>
        <pt x="2" y="252" on="0"/>
      </contour>
    </TTGlyph>
    <TTGlyph name="asciicircum" xMin="35" yMin="318" xMax="416" yMax="686">
      <contour>
        <pt x="67" y="318" on="1"/>
        <pt x="35" y="318" on="0"/>
        <pt x="35" y="333" on="1"/>
        <pt x="35" y="340" on="0"/>
        <pt x="39" y="348" on="1"/>
        <pt x="168" y="656" on="1"/>
        <pt x="180" y="686" on="0"/>
        <pt x="210" y="686" on="1"/>
        <pt x="241" y="686" on="1"/>
        <pt x="270" y="686" on="0"/>
        <pt x="283" y="656" on="1"/>
        <pt x="412" y="348" on="1"/>
        <pt x="416" y="340" on="0"/>
        <pt x="416" y="333" on="1"/>
        <pt x="416" y="318" on="0"/>
        <pt x="384" y="318" on="1"/>
        <pt x="363" y="318" on="1"/>
        <pt x="324" y="318" on="0"/>
        <pt x="311" y="348" on="1"/>
        <pt x="225" y="555" on="1"/>
        <pt x="139" y="348" on="1"/>
        <pt x="126" y="318" on="0"/>
        <pt x="88" y="318" on="1"/>
      </contour>
    </TTGlyph>
    <TTGlyph name="asciitilde" xMin="64" yMin="183" xMax="484" yMax="346">
      <contour>
        <pt x="150" y="225" on="0"/>
        <pt x="111" y="214" on="0"/>
        <pt x="90" y="214" on="0"/>
        <pt x="64" y="248" on="0"/>
        <pt x="64" y="265" on="1"/>
        <pt x="64" y="291" on="0"/>
        <pt x="166" y="346" on="0"/>
        <pt x="246" y="346" on="0"/>
        <pt x="354" y="304" on="0"/>
        <pt x="392" y="304" on="0"/>
        <pt x="434" y="319" on="0"/>
        <pt x="459" y="319" on="0"/>
        <pt x="484" y="279" on="0"/>
        <pt x="484" y="261" on="1"/>
        <pt x="484" y="233" on="0"/>
        <pt x="378" y="183" on="0"/>
        <pt x="300" y="183" on="0"/>
        <pt x="193" y="225" on="0"/>
      </contour>
    </TTGlyph>
    <TTGlyph name="asterisk" xMin="33" yMin="411" xMax="329" yMax="708">
      <contour>
        <pt x="122" y="426" on="1"/>
        <pt x="111" y="411" on="0"/>
        <pt x="88" y="411" on="0"/>
        <pt x="65" y="431" on="0"/>
        <pt x="65" y="450" on="0"/>
        <pt x="74" y="460" on="1"/>
        <pt x="130" y="539" on="1"/>
        <pt x="55" y="563" on="1"/>
        <pt x="33" y="570" on="0"/>
        <pt x="33" y="586" on="1"/>
        <pt x="33" y="595" on="0"/>
        <pt x="36" y="602" on="1"/>
        <pt x="42" y="623" on="0"/>
        <pt x="61" y="623" on="1"/>
        <pt x="65" y="623" on="0"/>
        <pt x="75" y="621" on="1"/>
        <pt x="152" y="596" on="1"/>
        <pt x="152" y="678" on="1"/>
        <pt x="152" y="708" on="0"/>
        <pt x="212" y="708" on="0"/>
        <pt x="212" y="678" on="1"/>
        <pt x="212" y="596" on="1"/>
        <pt x="287" y="621" on="1"/>
        <pt x="297" y="623" on="0"/>
        <pt x="311" y="623" on="0"/>
        <pt x="329" y="603" on="0"/>
        <pt x="329" y="570" on="0"/>
        <pt x="307" y="563" on="1"/>
        <pt x="231" y="539" on="1"/>
        <pt x="288" y="460" on="1"/>
        <pt x="296" y="451" on="0"/>
        <pt x="296" y="431" on="0"/>
        <pt x="273" y="411" on="0"/>
        <pt x="251" y="411" on="0"/>
        <pt x="240" y="426" on="1"/>
        <pt x="181" y="509" on="1"/>
      </contour>
    </TTGlyph>
    <TTGlyph name="at" xMin="84" yMin="-123" xMax="867" yMax="708">
      <contour>
        <pt x="670" y="477" on="1"/>
        <pt x="639" y="177" on="1"/>
        <pt x="639" y="141" on="0"/>
        <pt x="674" y="141" on="1"/>
        <pt x="726" y="141" on="0"/>
        <pt x="803" y="285" on="0"/>
        <pt x="803" y="383" on="1"/>
        <pt x="803" y="505" on="0"/>
        <pt x="655" y="654" on="0"/>
        <pt x="534" y="654" on="1"/>
        <pt x="372" y="654" on="0"/>
        <pt x="148" y="414" on="0"/>
        <pt x="148" y="240" on="1"/>
        <pt x="148" y="102" on="0"/>
        <pt x="293" y="-69" on="0"/>
        <pt x="410" y="-69" on="1"/>
        <pt x="468" y="-69" on="0"/>
        <pt x="561" y="-40" on="0"/>
        <pt x="564" y="-40" on="1"/>
        <pt x="578" y="-40" on="0"/>
        <pt x="578" y="-73" on="1"/>
        <pt x="578" y="-99" on="0"/>
        <pt x="465" y="-123" on="0"/>
        <pt x="410" y="-123" on="1"/>
        <pt x="265" y="-123" on="0"/>
        <pt x="84" y="78" on="0"/>
        <pt x="84" y="240" on="1"/>
        <pt x="84" y="437" on="0"/>
        <pt x="344" y="708" on="0"/>
        <pt x="534" y="708" on="1"/>
        <pt x="685" y="708" on="0"/>
        <pt x="867" y="530" on="0"/>
        <pt x="867" y="247" on="0"/>
        <pt x="732" y="58" on="0"/>
        <pt x="545" y="58" on="0"/>
        <pt x="520" y="122" on="1"/>
        <pt x="482" y="58" on="0"/>
        <pt x="407" y="58" on="1"/>
        <pt x="345" y="58" on="0"/>
        <pt x="272" y="152" on="0"/>
        <pt x="272" y="239" on="1"/>
        <pt x="272" y="359" on="0"/>
        <pt x="375" y="508" on="0"/>
        <pt x="457" y="508" on="1"/>
        <pt x="514" y="508" on="0"/>
        <pt x="559" y="463" on="1"/>
        <pt x="565" y="486" on="0"/>
        <pt x="585" y="503" on="0"/>
        <pt x="611" y="503" on="1"/>
        <pt x="623" y="503" on="1"/>
        <pt x="670" y="503" on="0"/>
      </contour>
      <contour>
        <pt x="444" y="410" on="0"/>
        <pt x="397" y="326" on="0"/>
        <pt x="397" y="159" on="0"/>
        <pt x="454" y="159" on="1"/>
        <pt x="488" y="159" on="0"/>
        <pt x="519" y="207" on="1"/>
        <pt x="532" y="338" on="1"/>
        <pt x="540" y="387" on="1"/>
        <pt x="515" y="410" on="0"/>
        <pt x="486" y="410" on="1"/>
      </contour>
    </TTGlyph>
    <TTGlyph name="atilde" xMin="42" yMin="-8" xMax="489" yMax="708">
      <contour>
        <pt x="42" y="138" on="1"/>
        <pt x="42" y="166" on="0"/>
        <pt x="52" y="212" on="0"/>
        <pt x="88" y="265" on="0"/>
        <pt x="118" y="282" on="1"/>
        <pt x="189" y="324" on="0"/>
        <pt x="329" y="324" on="1"/>
        <pt x="329" y="357" on="1"/>
        <pt x="329" y="414" on="0"/>
        <pt x="251" y="414" on="1"/>
        <pt x="196" y="414" on="0"/>
        <pt x="144" y="390" on="1"/>
        <pt x="126" y="382" on="0"/>
        <pt x="123" y="382" on="1"/>
        <pt x="108" y="382" on="0"/>
        <pt x="71" y="444" on="0"/>
        <pt x="71" y="462" on="1"/>
        <pt x="71" y="489" on="0"/>
        <pt x="182" y="531" on="0"/>
        <pt x="262" y="531" on="1"/>
        <pt x="477" y="531" on="0"/>
        <pt x="477" y="364" on="1"/>
        <pt x="477" y="176" on="1"/>
        <pt x="477" y="114" on="0"/>
        <pt x="483" y="72" on="1"/>
        <pt x="489" y="31" on="1"/>
        <pt x="489" y="15" on="0"/>
        <pt x="408" y="-1" on="0"/>
        <pt x="368" y="-1" on="0"/>
        <pt x="355" y="7" on="0"/>
        <pt x="347" y="26" on="0"/>
        <pt x="343" y="37" on="0"/>
        <pt x="338" y="65" on="0"/>
        <pt x="337" y="68" on="1"/>
        <pt x="319" y="36" on="0"/>
        <pt x="231" y="-8" on="0"/>
        <pt x="190" y="-8" on="1"/>
        <pt x="113" y="-8" on="0"/>
        <pt x="42" y="72" on="0"/>
      </contour>
      <contour>
        <pt x="189" y="153" on="1"/>
        <pt x="189" y="133" on="0"/>
        <pt x="215" y="109" on="0"/>
        <pt x="267" y="109" on="0"/>
        <pt x="317" y="145" on="0"/>
        <pt x="329" y="172" on="1"/>
        <pt x="329" y="227" on="1"/>
        <pt x="189" y="227" on="0"/>
      </contour>
      <contour>
        <pt x="211" y="615" on="1"/>
        <pt x="166" y="604" on="1"/>
        <pt x="150" y="604" on="0"/>
        <pt x="124" y="633" on="0"/>
        <pt x="124" y="670" on="0"/>
        <pt x="191" y="708" on="0"/>
        <pt x="260" y="708" on="0"/>
        <pt x="339" y="688" on="0"/>
        <pt x="357" y="688" on="1"/>
        <pt x="403" y="699" on="1"/>
        <pt x="418" y="699" on="0"/>
        <pt x="444" y="670" on="0"/>
        <pt x="444" y="633" on="0"/>
        <pt x="377" y="595" on="0"/>
        <pt x="308" y="595" on="0"/>
        <pt x="228" y="615" on="0"/>
      </contour>
    </TTGlyph>
    <TTGlyph name="b" xMin="66" yMin="-8" xMax="527" yMax="754">
      <contour>
        <pt x="66" y="30" on="1"/>
        <pt x="66" y="722" on="1"/>
        <pt x="66" y="754" on="0"/>
        <pt x="126" y="754" on="1"/>
        <pt x="154" y="754" on="1"/>
        <pt x="214" y="754" on="0"/>
        <pt x="214" y="722" on="1"/>
        <pt x="214" y="500" on="1"/>
        <pt x="257" y="531" on="0"/>
        <pt x="316" y="531" on="1"/>
        <pt x="416" y="531" on="0"/>
        <pt x="527" y="386" on="0"/>
        <pt x="527" y="135" on="0"/>
        <pt x="423" y="-8" on="0"/>
        <pt x="340" y="-8" on="1"/>
        <pt x="295" y="-8" on="0"/>
        <pt x="224" y="34" on="0"/>
        <pt x="206" y="67" on="1"/>
        <pt x="196" y="24" on="1"/>
        <pt x="190" y="-2" on="0"/>
        <pt x="138" y="-2" on="1"/>
        <pt x="126" y="-2" on="1"/>
        <pt x="66" y="-2" on="0"/>
      </contour>
      <contour>
        <pt x="296" y="113" on="1"/>
        <pt x="377" y="113" on="0"/>
        <pt x="377" y="414" on="0"/>
        <pt x="284" y="414" on="1"/>
        <pt x="248" y="414" on="0"/>
        <pt x="214" y="395" on="1"/>
        <pt x="214" y="172" on="1"/>
        <pt x="248" y="113" on="0"/>
      </contour>
    </TTGlyph>
    <TTGlyph name="backslash" xMin="2" yMin="-22" xMax="362" yMax="702">
      <contour>
        <pt x="2" y="685" on="1"/>
        <pt x="2" y="702" on="0"/>
        <pt x="45" y="702" on="1"/>
        <pt x="68" y="702" on="1"/>
        <pt x="118" y="702" on="0"/>
        <pt x="128" y="672" on="1"/>
        <pt x="359" y="8" on="1"/>
        <pt x="362" y="0" on="0"/>
        <pt x="362" y="-6" on="1"/>
        <pt x="362" y="-22" on="0"/>
        <pt x="319" y="-22" on="1"/>
        <pt x="295" y="-22" on="1"/>
        <pt x="245" y="-22" on="0"/>
        <pt x="235" y="8" on="1"/>
        <pt x="5" y="672" on="1"/>
        <pt x="2" y="680" on="0"/>
      </contour>
    </TTGlyph>
    <TTGlyph name="bar" xMin="68" yMin="-138" xMax="183" yMax="768">
      <contour>
        <pt x="68" y="-108" on="1"/>
        <pt x="68" y="738" on="1"/>
        <pt x="68" y="768" on="0"/>
        <pt x="118" y="768" on="1"/>
        <pt x="133" y="768" on="1"/>
        <pt x="183" y="768" on="0"/>
        <pt x="183" y="738" on="1"/>
        <pt x="183" y="-108" on="1"/>
        <pt x="183" y="-138" on="0"/>
        <pt x="133" y="-138" on="1"/>
        <pt x="118" y="-138" on="1"/>
        <pt x="68" y="-138" on="0"/>
      </contour>
    </TTGlyph>
    <TTGlyph name="braceleft" xMin="18" yMin="-138" xMax="262" yMax="768">
      <contour>
        <pt x="94" y="-22" on="1"/>
        <pt x="94" y="146" on="1"/>
        <pt x="94" y="196" on="0"/>
        <pt x="73" y="248" on="0"/>
        <pt x="47" y="259" on="1"/>
        <pt x="18" y="276" on="0"/>
        <pt x="18" y="309" on="1"/>
        <pt x="18" y="321" on="1"/>
        <pt x="18" y="354" on="0"/>
        <pt x="47" y="371" on="1"/>
        <pt x="73" y="382" on="0"/>
        <pt x="94" y="434" on="0"/>
        <pt x="94" y="484" on="1"/>
        <pt x="94" y="652" on="1"/>
        <pt x="94" y="703" on="0"/>
        <pt x="149" y="768" on="0"/>
        <pt x="193" y="768" on="1"/>
        <pt x="232" y="768" on="1"/>
        <pt x="262" y="768" on="0"/>
        <pt x="262" y="728" on="1"/>
        <pt x="262" y="714" on="1"/>
        <pt x="262" y="675" on="0"/>
        <pt x="236" y="674" on="1"/>
        <pt x="238" y="674" on="1"/>
        <pt x="209" y="674" on="0"/>
        <pt x="209" y="638" on="1"/>
        <pt x="209" y="468" on="1"/>
        <pt x="209" y="354" on="0"/>
        <pt x="141" y="315" on="1"/>
        <pt x="209" y="276" on="0"/>
        <pt x="209" y="162" on="1"/>
        <pt x="209" y="-8" on="1"/>
        <pt x="209" y="-41" on="0"/>
        <pt x="233" y="-44" on="1"/>
        <pt x="262" y="-44" on="0"/>
        <pt x="262" y="-84" on="1"/>
        <pt x="262" y="-98" on="1"/>
        <pt x="262" y="-138" on="0"/>
        <pt x="232" y="-138" on="1"/>
        <pt x="193" y="-138" on="1"/>
        <pt x="149" y="-138" on="0"/>
        <pt x="94" y="-73" on="0"/>
      </contour>
    </TTGlyph>
    <TTGlyph name="braceright" xMin="19" yMin="-138" xMax="263" yMax="768">
      <contour>
        <pt x="19" y="-84" on="1"/>
        <pt x="19" y="-44" on="0"/>
        <pt x="47" y="-44" on="1"/>
        <pt x="72" y="-41" on="0"/>
        <pt x="72" y="-8" on="1"/>
        <pt x="72" y="162" on="1"/>
        <pt x="72" y="276" on="0"/>
        <pt x="140" y="315" on="1"/>
        <pt x="72" y="354" on="0"/>
        <pt x="72" y="468" on="1"/>
        <pt x="72" y="638" on="1"/>
        <pt x="72" y="674" on="0"/>
        <pt x="43" y="674" on="1"/>
        <pt x="44" y="674" on="1"/>
        <pt x="19" y="675" on="0"/>
        <pt x="19" y="714" on="1"/>
        <pt x="19" y="728" on="1"/>
        <pt x="19" y="768" on="0"/>
        <pt x="49" y="768" on="1"/>
        <pt x="88" y="768" on="1"/>
        <pt x="132" y="768" on="0"/>
        <pt x="187" y="703" on="0"/>
        <pt x="187" y="652" on="1"/>
        <pt x="187" y="484" on="1"/>
        <pt x="187" y="434" on="0"/>
        <pt x="208" y="382" on="0"/>
        <pt x="234" y="371" on="1"/>
        <pt x="263" y="354" on="0"/>
        <pt x="263" y="321" on="1"/>
        <pt x="263" y="309" on="1"/>
        <pt x="263" y="276" on="0"/>
        <pt x="234" y="259" on="1"/>
        <pt x="208" y="248" on="0"/>
        <pt x="187" y="196" on="0"/>
        <pt x="187" y="146" on="1"/>
        <pt x="187" y="-22" on="1"/>
        <pt x="187" y="-73" on="0"/>
        <pt x="132" y="-138" on="0"/>
        <pt x="88" y="-138" on="1"/>
        <pt x="49" y="-138" on="1"/>
        <pt x="19" y="-138" on="0"/>
        <pt x="19" y="-98" on="1"/>
      </contour>
    </TTGlyph>
    <TTGlyph name="bracketleft" xMin="65" yMin="-138" xMax="261" yMax="768">
      <contour>
        <pt x="65" y="-98" on="1"/>
        <pt x="65" y="728" on="1"/>
        <pt x="65" y="768" on="0"/>
        <pt x="105" y="768" on="1"/>
        <pt x="231" y="768" on="1"/>
        <pt x="261" y="768" on="0"/>
        <pt x="261" y="728" on="1"/>
        <pt x="261" y="713" on="1"/>
        <pt x="261" y="673" on="0"/>
        <pt x="231" y="673" on="1"/>
        <pt x="180" y="673" on="1"/>
        <pt x="180" y="-43" on="1"/>
        <pt x="231" y="-43" on="1"/>
        <pt x="261" y="-43" on="0"/>
        <pt x="261" y="-83" on="1"/>
        <pt x="261" y="-98" on="1"/>
        <pt x="261" y="-138" on="0"/>
        <pt x="231" y="-138" on="1"/>
        <pt x="105" y="-138" on="1"/>
        <pt x="65" y="-138" on="0"/>
      </contour>
    </TTGlyph>
    <TTGlyph name="bracketright" xMin="31" yMin="-138" xMax="227" yMax="768">
      <contour>
        <pt x="61" y="-43" on="1"/>
        <pt x="112" y="-43" on="1"/>
        <pt x="112" y="673" on="1"/>
        <pt x="61" y="673" on="1"/>
        <pt x="31" y="673" on="0"/>
        <pt x="31" y="713" on="1"/>
        <pt x="31" y="728" on="1"/>
        <pt x="31" y="768" on="0"/>
        <pt x="61" y="768" on="1"/>
        <pt x="187" y="768" on="1"/>
        <pt x="227" y="768" on="0"/>
        <pt x="227" y="728" on="1"/>
        <pt x="227" y="-98" on="1"/>
        <pt x="227" y="-138" on="0"/>
        <pt x="187" y="-138" on="1"/>
        <pt x="61" y="-138" on="1"/>
        <pt x="31" y="-138" on="0"/>
        <pt x="31" y="-98" on="1"/>
        <pt x="31" y="-83" on="1"/>
        <pt x="31" y="-43" on="0"/>
      </contour>
    </TTGlyph>
    <TTGlyph name="breve" xMin="11" yMin="575" xMax="305" yMax="715">
      <contour>
        <pt x="221" y="575" on="0"/>
        <pt x="95" y="575" on="0"/>
        <pt x="11" y="643" on="0"/>
        <pt x="11" y="687" on="1"/>
        <pt x="11" y="715" on="0"/>
        <pt x="46" y="715" on="1"/>
        <pt x="68" y="715" on="0"/>
        <pt x="84" y="690" on="1"/>
        <pt x="91" y="681" on="0"/>
        <pt x="129" y="666" on="0"/>
        <pt x="187" y="666" on="0"/>
        <pt x="225" y="681" on="0"/>
        <pt x="232" y="690" on="1"/>
        <pt x="248" y="715" on="0"/>
        <pt x="270" y="715" on="1"/>
        <pt x="305" y="715" on="0"/>
        <pt x="305" y="687" on="1"/>
        <pt x="305" y="643" on="0"/>
      </contour>
    </TTGlyph>
    <TTGlyph name="brokenbar" xMin="68" yMin="-140" xMax="183" yMax="770">
      <contour>
        <pt x="118" y="380" on="1"/>
        <pt x="68" y="380" on="0"/>
        <pt x="68" y="412" on="1"/>
        <pt x="68" y="738" on="1"/>
        <pt x="68" y="770" on="0"/>
        <pt x="118" y="770" on="1"/>
        <pt x="133" y="770" on="1"/>
        <pt x="183" y="770" on="0"/>
        <pt x="183" y="738" on="1"/>
        <pt x="183" y="412" on="1"/>
        <pt x="183" y="380" on="0"/>
        <pt x="133" y="380" on="1"/>
      </contour>
      <contour>
        <pt x="68" y="-108" on="1"/>
        <pt x="68" y="218" on="1"/>
        <pt x="68" y="250" on="0"/>
        <pt x="118" y="250" on="1"/>
        <pt x="133" y="250" on="1"/>
        <pt x="183" y="250" on="0"/>
        <pt x="183" y="218" on="1"/>
        <pt x="183" y="-108" on="1"/>
        <pt x="183" y="-140" on="0"/>
        <pt x="133" y="-140" on="1"/>
        <pt x="118" y="-140" on="1"/>
        <pt x="68" y="-140" on="0"/>
      </contour>
    </TTGlyph>
    <TTGlyph name="bullet" xMin="36" yMin="194" xMax="301" yMax="459">
      <contour>
        <pt x="223" y="194" on="0"/>
        <pt x="113" y="194" on="0"/>
        <pt x="36" y="271" on="0"/>
        <pt x="36" y="381" on="0"/>
        <pt x="113" y="459" on="0"/>
        <pt x="223" y="459" on="0"/>
        <pt x="301" y="381" on="0"/>
        <pt x="301" y="271" on="0"/>
      </contour>
    </TTGlyph>
    <TTGlyph name="c" xMin="42" yMin="-8" xMax="469" yMax="531">
      <contour>
        <pt x="166" y="-8" on="0"/>
        <pt x="42" y="123" on="0"/>
        <pt x="42" y="394" on="0"/>
        <pt x="167" y="531" on="0"/>
        <pt x="299" y="531" on="1"/>
        <pt x="360" y="531" on="0"/>
        <pt x="465" y="494" on="0"/>
        <pt x="465" y="462" on="1"/>
        <pt x="465" y="447" on="0"/>
        <pt x="424" y="385" on="0"/>
        <pt x="412" y="385" on="1"/>
        <pt x="408" y="385" on="0"/>
        <pt x="394" y="392" on="1"/>
        <pt x="350" y="414" on="0"/>
        <pt x="248" y="414" on="0"/>
        <pt x="194" y="340" on="0"/>
        <pt x="194" y="184" on="0"/>
        <pt x="245" y="109" on="0"/>
        <pt x="350" y="109" on="0"/>
        <pt x="399" y="132" on="1"/>
        <pt x="415" y="138" on="0"/>
        <pt x="417" y="138" on="1"/>
        <pt x="432" y="138" on="0"/>
        <pt x="469" y="79" on="0"/>
        <pt x="469" y="43" on="0"/>
        <pt x="425" y="13" on="0"/>
        <pt x="394" y="6" on="1"/>
        <pt x="330" y="-8" on="0"/>
        <pt x="294" y="-8" on="1"/>
      </contour>
    </TTGlyph>
    <TTGlyph name="caron" xMin="19" yMin="582" xMax="294" yMax="728">
      <contour>
        <pt x="151" y="582" on="1"/>
        <pt x="102" y="582" on="0"/>
        <pt x="90" y="601" on="1"/>
        <pt x="25" y="703" on="1"/>
        <pt x="19" y="712" on="0"/>
        <pt x="19" y="718" on="1"/>
        <pt x="19" y="728" on="0"/>
        <pt x="39" y="728" on="1"/>
        <pt x="61" y="728" on="1"/>
        <pt x="110" y="728" on="0"/>
        <pt x="128" y="703" on="1"/>
        <pt x="156" y="664" on="1"/>
        <pt x="184" y="704" on="1"/>
        <pt x="200" y="728" on="0"/>
        <pt x="252" y="728" on="1"/>
        <pt x="274" y="728" on="1"/>
        <pt x="294" y="728" on="0"/>
        <pt x="294" y="718" on="1"/>
        <pt x="294" y="712" on="0"/>
        <pt x="288" y="703" on="1"/>
        <pt x="223" y="601" on="1"/>
        <pt x="211" y="582" on="0"/>
        <pt x="162" y="582" on="1"/>
      </contour>
    </TTGlyph>
    <TTGlyph name="ccedilla" xMin="42" yMin="-207" xMax="469" yMax="531">
      <contour>
        <pt x="151" y="-113" on="0"/>
        <pt x="169" y="-113" on="0"/>
        <pt x="228" y="-134" on="0"/>
        <pt x="275" y="-134" on="0"/>
        <pt x="275" y="-117" on="1"/>
        <pt x="275" y="-104" on="0"/>
        <pt x="222" y="-81" on="0"/>
        <pt x="222" y="-58" on="0"/>
        <pt x="240" y="-5" on="1"/>
        <pt x="42" y="20" on="0"/>
        <pt x="42" y="258" on="1"/>
        <pt x="42" y="394" on="0"/>
        <pt x="167" y="531" on="0"/>
        <pt x="299" y="531" on="1"/>
        <pt x="360" y="531" on="0"/>
        <pt x="465" y="494" on="0"/>
        <pt x="465" y="462" on="1"/>
        <pt x="465" y="447" on="0"/>
        <pt x="424" y="385" on="0"/>
        <pt x="412" y="385" on="1"/>
        <pt x="408" y="385" on="0"/>
        <pt x="394" y="392" on="1"/>
        <pt x="350" y="414" on="0"/>
        <pt x="248" y="414" on="0"/>
        <pt x="194" y="340" on="0"/>
        <pt x="194" y="184" on="0"/>
        <pt x="245" y="109" on="0"/>
        <pt x="350" y="109" on="0"/>
        <pt x="399" y="132" on="1"/>
        <pt x="415" y="138" on="0"/>
        <pt x="417" y="138" on="1"/>
        <pt x="432" y="138" on="0"/>
        <pt x="469" y="79" on="0"/>
        <pt x="469" y="62" on="1"/>
        <pt x="469" y="29" on="0"/>
        <pt x="361" y="-4" on="0"/>
        <pt x="306" y="-8" on="1"/>
        <pt x="300" y="-31" on="1"/>
        <pt x="378" y="-47" on="0"/>
        <pt x="378" y="-107" on="1"/>
        <pt x="378" y="-207" on="0"/>
        <pt x="259" y="-207" on="1"/>
        <pt x="212" y="-207" on="0"/>
        <pt x="128" y="-179" on="0"/>
        <pt x="128" y="-135" on="0"/>
      </contour>
    </TTGlyph>
    <TTGlyph name="cedilla" xMin="29" yMin="-212" xMax="279" yMax="10">
      <contour>
        <pt x="52" y="-118" on="0"/>
        <pt x="70" y="-118" on="0"/>
        <pt x="129" y="-139" on="0"/>
        <pt x="176" y="-139" on="0"/>
        <pt x="176" y="-122" on="1"/>
        <pt x="176" y="-109" on="0"/>
        <pt x="123" y="-86" on="0"/>
        <pt x="123" y="-74" on="1"/>
        <pt x="123" y="-66" on="0"/>
        <pt x="148" y="10" on="1"/>
        <pt x="214" y="10" on="1"/>
        <pt x="201" y="-36" on="1"/>
        <pt x="279" y="-52" on="0"/>
        <pt x="279" y="-112" on="1"/>
        <pt x="279" y="-212" on="0"/>
        <pt x="160" y="-212" on="1"/>
        <pt x="113" y="-212" on="0"/>
        <pt x="29" y="-184" on="0"/>
        <pt x="29" y="-140" on="0"/>
      </contour>
    </TTGlyph>
    <TTGlyph name="cent" xMin="42" yMin="-78" xMax="461" yMax="587">
      <contour>
        <pt x="151" y="-1" on="0"/>
        <pt x="42" y="130" on="0"/>
        <pt x="42" y="385" on="0"/>
        <pt x="149" y="522" on="0"/>
        <pt x="263" y="530" on="1"/>
        <pt x="263" y="557" on="1"/>
        <pt x="263" y="587" on="0"/>
        <pt x="290" y="587" on="1"/>
        <pt x="320" y="587" on="0"/>
        <pt x="320" y="557" on="1"/>
        <pt x="320" y="530" on="1"/>
        <pt x="374" y="526" on="0"/>
        <pt x="457" y="490" on="0"/>
        <pt x="457" y="462" on="1"/>
        <pt x="457" y="447" on="0"/>
        <pt x="416" y="385" on="0"/>
        <pt x="404" y="385" on="1"/>
        <pt x="401" y="385" on="0"/>
        <pt x="347" y="410" on="0"/>
        <pt x="320" y="413" on="1"/>
        <pt x="320" y="110" on="1"/>
        <pt x="350" y="113" on="0"/>
        <pt x="406" y="138" on="0"/>
        <pt x="409" y="138" on="1"/>
        <pt x="424" y="138" on="0"/>
        <pt x="461" y="79" on="0"/>
        <pt x="461" y="62" on="1"/>
        <pt x="461" y="10" on="0"/>
        <pt x="320" y="-6" on="1"/>
        <pt x="320" y="-48" on="1"/>
        <pt x="320" y="-78" on="0"/>
        <pt x="293" y="-78" on="1"/>
        <pt x="263" y="-78" on="0"/>
        <pt x="263" y="-48" on="1"/>
        <pt x="263" y="-7" on="1"/>
      </contour>
      <contour>
        <pt x="263" y="409" on="1"/>
        <pt x="192" y="388" on="0"/>
        <pt x="192" y="133" on="0"/>
        <pt x="263" y="113" on="1"/>
      </contour>
    </TTGlyph>
    <TTGlyph name="circumflex" xMin="19" yMin="582" xMax="294" yMax="728">
      <contour>
        <pt x="39" y="582" on="1"/>
        <pt x="19" y="582" on="0"/>
        <pt x="19" y="592" on="1"/>
        <pt x="19" y="598" on="0"/>
        <pt x="25" y="607" on="1"/>
        <pt x="90" y="709" on="1"/>
        <pt x="102" y="728" on="0"/>
        <pt x="151" y="728" on="1"/>
        <pt x="162" y="728" on="1"/>
        <pt x="211" y="728" on="0"/>
        <pt x="223" y="709" on="1"/>
        <pt x="288" y="607" on="1"/>
        <pt x="294" y="598" on="0"/>
        <pt x="294" y="592" on="1"/>
        <pt x="294" y="582" on="0"/>
        <pt x="274" y="582" on="1"/>
        <pt x="252" y="582" on="1"/>
        <pt x="200" y="582" on="0"/>
        <pt x="184" y="606" on="1"/>
        <pt x="156" y="646" on="1"/>
        <pt x="128" y="607" on="1"/>
        <pt x="110" y="582" on="0"/>
        <pt x="61" y="582" on="1"/>
      </contour>
    </TTGlyph>
    <TTGlyph name="colon" xMin="22" yMin="-2" xMax="174" yMax="525">
      <contour>
        <pt x="82" y="369" on="1"/>
        <pt x="22" y="369" on="0"/>
        <pt x="22" y="401" on="1"/>
        <pt x="22" y="493" on="1"/>
        <pt x="22" y="525" on="0"/>
        <pt x="82" y="525" on="1"/>
        <pt x="114" y="525" on="1"/>
        <pt x="174" y="525" on="0"/>
        <pt x="174" y="493" on="1"/>
        <pt x="174" y="401" on="1"/>
        <pt x="174" y="369" on="0"/>
        <pt x="114" y="369" on="1"/>
      </contour>
      <contour>
        <pt x="22" y="30" on="1"/>
        <pt x="22" y="122" on="1"/>
        <pt x="22" y="154" on="0"/>
        <pt x="82" y="154" on="1"/>
        <pt x="114" y="154" on="1"/>
        <pt x="174" y="154" on="0"/>
        <pt x="174" y="122" on="1"/>
        <pt x="174" y="30" on="1"/>
        <pt x="174" y="-2" on="0"/>
        <pt x="114" y="-2" on="1"/>
        <pt x="82" y="-2" on="1"/>
        <pt x="22" y="-2" on="0"/>
      </contour>
    </TTGlyph>
    <TTGlyph name="comma" xMin="-9" yMin="-125" xMax="174" yMax="154">
      <contour>
        <pt x="20" y="-125" on="0"/>
        <pt x="-9" y="-114" on="0"/>
        <pt x="-9" y="-93" on="0"/>
        <pt x="2" y="-68" on="1"/>
        <pt x="35" y="9" on="0"/>
        <pt x="35" y="110" on="1"/>
        <pt x="35" y="154" on="0"/>
        <pt x="95" y="154" on="1"/>
        <pt x="114" y="154" on="1"/>
        <pt x="174" y="154" on="0"/>
        <pt x="174" y="110" on="1"/>
        <pt x="174" y="57" on="0"/>
        <pt x="123" y="-56" on="0"/>
        <pt x="58" y="-125" on="0"/>
      </contour>
    </TTGlyph>
    <TTGlyph name="copyright" xMin="10" yMin="-8" xMax="726" yMax="708">
      <contour>
        <pt x="10" y="202" on="0"/>
        <pt x="10" y="498" on="0"/>
        <pt x="220" y="708" on="0"/>
        <pt x="516" y="708" on="0"/>
        <pt x="726" y="498" on="0"/>
        <pt x="726" y="202" on="0"/>
        <pt x="516" y="-8" on="0"/>
        <pt x="220" y="-8" on="0"/>
      </contour>
      <contour>
        <pt x="74" y="472" on="0"/>
        <pt x="74" y="228" on="0"/>
        <pt x="246" y="56" on="0"/>
        <pt x="490" y="56" on="0"/>
        <pt x="662" y="228" on="0"/>
        <pt x="662" y="472" on="0"/>
        <pt x="490" y="644" on="0"/>
        <pt x="246" y="644" on="0"/>
      </contour>
      <contour>
        <pt x="197" y="353" on="1"/>
        <pt x="197" y="552" on="0"/>
        <pt x="383" y="552" on="1"/>
        <pt x="424" y="552" on="0"/>
        <pt x="500" y="529" on="0"/>
        <pt x="500" y="513" on="1"/>
        <pt x="500" y="500" on="0"/>
        <pt x="474" y="460" on="0"/>
        <pt x="464" y="460" on="1"/>
        <pt x="462" y="460" on="0"/>
        <pt x="452" y="464" on="1"/>
        <pt x="424" y="478" on="0"/>
        <pt x="382" y="478" on="1"/>
        <pt x="285" y="478" on="0"/>
        <pt x="285" y="225" on="0"/>
        <pt x="381" y="225" on="1"/>
        <pt x="424" y="225" on="0"/>
        <pt x="458" y="242" on="1"/>
        <pt x="470" y="248" on="0"/>
        <pt x="472" y="248" on="1"/>
        <pt x="484" y="248" on="0"/>
        <pt x="505" y="209" on="0"/>
        <pt x="505" y="199" on="1"/>
        <pt x="505" y="176" on="0"/>
        <pt x="423" y="152" on="0"/>
        <pt x="381" y="152" on="1"/>
        <pt x="287" y="152" on="0"/>
        <pt x="197" y="250" on="0"/>
      </contour>
    </TTGlyph>
    <TTGlyph name="currency" xMin="39" yMin="72" xMax="484" yMax="514">
      <contour>
        <pt x="42" y="126" on="0"/>
        <pt x="42" y="152" on="0"/>
        <pt x="54" y="164" on="1"/>
        <pt x="76" y="186" on="1"/>
        <pt x="49" y="234" on="0"/>
        <pt x="49" y="348" on="0"/>
        <pt x="78" y="395" on="1"/>
        <pt x="51" y="422" on="1"/>
        <pt x="39" y="434" on="0"/>
        <pt x="39" y="460" on="0"/>
        <pt x="51" y="472" on="1"/>
        <pt x="81" y="502" on="1"/>
        <pt x="93" y="514" on="0"/>
        <pt x="119" y="514" on="0"/>
        <pt x="131" y="502" on="1"/>
        <pt x="159" y="474" on="1"/>
        <pt x="208" y="500" on="0"/>
        <pt x="314" y="500" on="0"/>
        <pt x="363" y="473" on="1"/>
        <pt x="392" y="502" on="1"/>
        <pt x="404" y="514" on="0"/>
        <pt x="430" y="514" on="0"/>
        <pt x="442" y="502" on="1"/>
        <pt x="472" y="472" on="1"/>
        <pt x="484" y="460" on="0"/>
        <pt x="484" y="434" on="0"/>
        <pt x="472" y="422" on="1"/>
        <pt x="443" y="393" on="1"/>
        <pt x="471" y="345" on="0"/>
        <pt x="471" y="237" on="0"/>
        <pt x="445" y="188" on="1"/>
        <pt x="469" y="164" on="1"/>
        <pt x="481" y="152" on="0"/>
        <pt x="481" y="126" on="0"/>
        <pt x="469" y="114" on="1"/>
        <pt x="439" y="84" on="1"/>
        <pt x="427" y="72" on="0"/>
        <pt x="401" y="72" on="0"/>
        <pt x="389" y="84" on="1"/>
        <pt x="366" y="107" on="1"/>
        <pt x="319" y="78" on="0"/>
        <pt x="204" y="78" on="0"/>
        <pt x="155" y="105" on="1"/>
        <pt x="134" y="84" on="1"/>
        <pt x="122" y="72" on="0"/>
        <pt x="96" y="72" on="0"/>
        <pt x="84" y="84" on="1"/>
        <pt x="54" y="114" on="1"/>
      </contour>
      <contour>
        <pt x="220" y="192" on="0"/>
        <pt x="300" y="192" on="0"/>
        <pt x="357" y="248" on="0"/>
        <pt x="357" y="330" on="0"/>
        <pt x="300" y="386" on="0"/>
        <pt x="220" y="386" on="0"/>
        <pt x="163" y="330" on="0"/>
        <pt x="163" y="248" on="0"/>
      </contour>
    </TTGlyph>
    <TTGlyph name="d" xMin="42" yMin="-8" xMax="515" yMax="754">
      <contour>
        <pt x="229" y="-8" on="1"/>
        <pt x="146" y="-8" on="0"/>
        <pt x="42" y="135" on="0"/>
        <pt x="42" y="386" on="0"/>
        <pt x="153" y="531" on="0"/>
        <pt x="253" y="531" on="1"/>
        <pt x="312" y="531" on="0"/>
        <pt x="355" y="500" on="1"/>
        <pt x="355" y="722" on="1"/>
        <pt x="355" y="754" on="0"/>
        <pt x="415" y="754" on="1"/>
        <pt x="443" y="754" on="1"/>
        <pt x="503" y="754" on="0"/>
        <pt x="503" y="722" on="1"/>
        <pt x="503" y="176" on="1"/>
        <pt x="503" y="114" on="0"/>
        <pt x="509" y="72" on="1"/>
        <pt x="515" y="31" on="1"/>
        <pt x="515" y="15" on="0"/>
        <pt x="434" y="-1" on="0"/>
        <pt x="394" y="-1" on="0"/>
        <pt x="381" y="7" on="0"/>
        <pt x="373" y="25" on="0"/>
        <pt x="369" y="37" on="0"/>
        <pt x="364" y="64" on="0"/>
        <pt x="363" y="67" on="1"/>
        <pt x="345" y="34" on="0"/>
        <pt x="274" y="-8" on="0"/>
      </contour>
      <contour>
        <pt x="273" y="113" on="1"/>
        <pt x="321" y="113" on="0"/>
        <pt x="355" y="172" on="1"/>
        <pt x="355" y="395" on="1"/>
        <pt x="321" y="414" on="0"/>
        <pt x="285" y="414" on="1"/>
        <pt x="192" y="414" on="0"/>
        <pt x="192" y="113" on="0"/>
      </contour>
    </TTGlyph>
    <TTGlyph name="dagger" xMin="46" yMin="-140" xMax="489" yMax="702">
      <contour>
        <pt x="210" y="-108" on="1"/>
        <pt x="210" y="410" on="1"/>
        <pt x="76" y="410" on="1"/>
        <pt x="46" y="410" on="0"/>
        <pt x="46" y="460" on="1"/>
        <pt x="46" y="467" on="1"/>
        <pt x="46" y="517" on="0"/>
        <pt x="76" y="517" on="1"/>
        <pt x="210" y="517" on="1"/>
        <pt x="210" y="670" on="1"/>
        <pt x="210" y="702" on="0"/>
        <pt x="260" y="702" on="1"/>
        <pt x="275" y="702" on="1"/>
        <pt x="325" y="702" on="0"/>
        <pt x="325" y="670" on="1"/>
        <pt x="325" y="517" on="1"/>
        <pt x="459" y="517" on="1"/>
        <pt x="489" y="517" on="0"/>
        <pt x="489" y="467" on="1"/>
        <pt x="489" y="460" on="1"/>
        <pt x="489" y="410" on="0"/>
        <pt x="459" y="410" on="1"/>
        <pt x="325" y="410" on="1"/>
        <pt x="325" y="-108" on="1"/>
        <pt x="325" y="-140" on="0"/>
        <pt x="275" y="-140" on="1"/>
        <pt x="260" y="-140" on="1"/>
        <pt x="210" y="-140" on="0"/>
      </contour>
    </TTGlyph>
    <TTGlyph name="daggerdbl" xMin="46" yMin="-140" xMax="489" yMax="702">
      <contour>
        <pt x="76" y="42" on="1"/>
        <pt x="46" y="42" on="0"/>
        <pt x="46" y="92" on="1"/>
        <pt x="46" y="99" on="1"/>
        <pt x="46" y="149" on="0"/>
        <pt x="76" y="149" on="1"/>
        <pt x="210" y="149" on="1"/>
        <pt x="210" y="410" on="1"/>
        <pt x="76" y="410" on="1"/>
        <pt x="46" y="410" on="0"/>
        <pt x="46" y="460" on="1"/>
        <pt x="46" y="467" on="1"/>
        <pt x="46" y="517" on="0"/>
        <pt x="76" y="517" on="1"/>
        <pt x="210" y="517" on="1"/>
        <pt x="210" y="670" on="1"/>
        <pt x="210" y="702" on="0"/>
        <pt x="260" y="702" on="1"/>
        <pt x="275" y="702" on="1"/>
        <pt x="325" y="702" on="0"/>
        <pt x="325" y="670" on="1"/>
        <pt x="325" y="517" on="1"/>
        <pt x="459" y="517" on="1"/>
        <pt x="489" y="517" on="0"/>
        <pt x="489" y="467" on="1"/>
        <pt x="489" y="460" on="1"/>
        <pt x="489" y="410" on="0"/>
        <pt x="459" y="410" on="1"/>
        <pt x="325" y="410" on="1"/>
        <pt x="325" y="149" on="1"/>
        <pt x="459" y="149" on="1"/>
        <pt x="489" y="149" on="0"/>
        <pt x="489" y="99" on="1"/>
        <pt x="489" y="92" on="1"/>
        <pt x="489" y="42" on="0"/>
        <pt x="459" y="42" on="1"/>
        <pt x="325" y="42" on="1"/>
        <pt x="325" y="-108" on="1"/>
        <pt x="325" y="-140" on="0"/>
        <pt x="275" y="-140" on="1"/>
        <pt x="260" y="-140" on="1"/>
        <pt x="210" y="-140" on="0"/>
        <pt x="210" y="-108" on="1"/>
        <pt x="210" y="42" on="1"/>
      </contour>
    </TTGlyph>
    <TTGlyph name="degree" xMin="38" yMin="443" xMax="303" yMax="708">
      <contour>
        <pt x="225" y="443" on="0"/>
        <pt x="115" y="443" on="0"/>
        <pt x="38" y="520" on="0"/>
        <pt x="38" y="630" on="0"/>
        <pt x="115" y="708" on="0"/>
        <pt x="225" y="708" on="0"/>
        <pt x="303" y="630" on="0"/>
        <pt x="303" y="520" on="0"/>
      </contour>
      <contour>
        <pt x="142" y="505" on="0"/>
        <pt x="198" y="505" on="0"/>
        <pt x="238" y="546" on="0"/>
        <pt x="238" y="604" on="0"/>
        <pt x="198" y="646" on="0"/>
        <pt x="142" y="646" on="0"/>
        <pt x="103" y="604" on="0"/>
        <pt x="103" y="546" on="0"/>
      </contour>
    </TTGlyph>
    <TTGlyph name="dieresis" xMin="11" yMin="578" xMax="311" yMax="702">
      <contour>
        <pt x="311" y="578" on="0"/>
        <pt x="191" y="578" on="0"/>
        <pt x="191" y="610" on="1"/>
        <pt x="191" y="670" on="1"/>
        <pt x="191" y="702" on="0"/>
        <pt x="311" y="702" on="0"/>
        <pt x="311" y="670" on="1"/>
        <pt x="311" y="610" on="1"/>
      </contour>
      <contour>
        <pt x="131" y="578" on="0"/>
        <pt x="11" y="578" on="0"/>
        <pt x="11" y="610" on="1"/>
        <pt x="11" y="670" on="1"/>
        <pt x="11" y="702" on="0"/>
        <pt x="131" y="702" on="0"/>
        <pt x="131" y="670" on="1"/>
        <pt x="131" y="610" on="1"/>
      </contour>
    </TTGlyph>
    <TTGlyph name="divide" xMin="28" yMin="-2" xMax="532" yMax="453">
      <contour>
        <pt x="214" y="350" on="1"/>
        <pt x="214" y="421" on="1"/>
        <pt x="214" y="453" on="0"/>
        <pt x="274" y="453" on="1"/>
        <pt x="285" y="453" on="1"/>
        <pt x="345" y="453" on="0"/>
        <pt x="345" y="421" on="1"/>
        <pt x="345" y="350" on="1"/>
        <pt x="345" y="318" on="0"/>
        <pt x="285" y="318" on="1"/>
        <pt x="274" y="318" on="1"/>
        <pt x="214" y="318" on="0"/>
      </contour>
      <contour>
        <pt x="58" y="172" on="1"/>
        <pt x="28" y="172" on="0"/>
        <pt x="28" y="222" on="1"/>
        <pt x="28" y="229" on="1"/>
        <pt x="28" y="279" on="0"/>
        <pt x="58" y="279" on="1"/>
        <pt x="502" y="279" on="1"/>
        <pt x="532" y="279" on="0"/>
        <pt x="532" y="229" on="1"/>
        <pt x="532" y="222" on="1"/>
        <pt x="532" y="172" on="0"/>
        <pt x="502" y="172" on="1"/>
      </contour>
      <contour>
        <pt x="214" y="30" on="1"/>
        <pt x="214" y="101" on="1"/>
        <pt x="214" y="133" on="0"/>
        <pt x="274" y="133" on="1"/>
        <pt x="285" y="133" on="1"/>
        <pt x="345" y="133" on="0"/>
        <pt x="345" y="101" on="1"/>
        <pt x="345" y="30" on="1"/>
        <pt x="345" y="-2" on="0"/>
        <pt x="285" y="-2" on="1"/>
        <pt x="274" y="-2" on="1"/>
        <pt x="214" y="-2" on="0"/>
      </contour>
    </TTGlyph>
    <TTGlyph name="dollar" xMin="19" yMin="-81" xMax="480" yMax="768">
      <contour>
        <pt x="19" y="80" on="1"/>
        <pt x="19" y="103" on="0"/>
        <pt x="65" y="169" on="0"/>
        <pt x="81" y="169" on="1"/>
        <pt x="87" y="169" on="0"/>
        <pt x="108" y="158" on="1"/>
        <pt x="169" y="123" on="0"/>
        <pt x="228" y="123" on="1"/>
        <pt x="233" y="123" on="1"/>
        <pt x="233" y="288" on="1"/>
        <pt x="195" y="302" on="0"/>
        <pt x="158" y="317" on="0"/>
        <pt x="93" y="356" on="0"/>
        <pt x="60" y="395" on="0"/>
        <pt x="33" y="462" on="0"/>
        <pt x="33" y="503" on="1"/>
        <pt x="33" y="595" on="0"/>
        <pt x="147" y="697" on="0"/>
        <pt x="233" y="706" on="1"/>
        <pt x="233" y="738" on="1"/>
        <pt x="233" y="768" on="0"/>
        <pt x="260" y="768" on="1"/>
        <pt x="290" y="768" on="0"/>
        <pt x="290" y="738" on="1"/>
        <pt x="290" y="707" on="1"/>
        <pt x="359" y="704" on="0"/>
        <pt x="450" y="662" on="0"/>
        <pt x="450" y="616" on="0"/>
        <pt x="412" y="551" on="0"/>
        <pt x="395" y="551" on="1"/>
        <pt x="394" y="551" on="0"/>
        <pt x="328" y="575" on="0"/>
        <pt x="290" y="576" on="1"/>
        <pt x="290" y="424" on="1"/>
        <pt x="328" y="407" on="0"/>
        <pt x="360" y="393" on="0"/>
        <pt x="424" y="352" on="0"/>
        <pt x="454" y="315" on="0"/>
        <pt x="480" y="252" on="0"/>
        <pt x="480" y="214" on="1"/>
        <pt x="480" y="111" on="0"/>
        <pt x="372" y="3" on="0"/>
        <pt x="290" y="-6" on="1"/>
        <pt x="290" y="-51" on="1"/>
        <pt x="290" y="-81" on="0"/>
        <pt x="263" y="-81" on="1"/>
        <pt x="233" y="-81" on="0"/>
        <pt x="233" y="-51" on="1"/>
        <pt x="233" y="-7" on="1"/>
        <pt x="137" y="-4" on="0"/>
        <pt x="19" y="52" on="0"/>
      </contour>
      <contour>
        <pt x="233" y="570" on="1"/>
        <pt x="181" y="557" on="0"/>
        <pt x="181" y="479" on="0"/>
        <pt x="233" y="450" on="1"/>
      </contour>
      <contour>
        <pt x="290" y="134" on="1"/>
        <pt x="333" y="152" on="0"/>
        <pt x="333" y="236" on="0"/>
        <pt x="290" y="261" on="1"/>
      </contour>
    </TTGlyph>
    <TTGlyph name="dotaccent" xMin="102" yMin="578" xMax="222" yMax="702">
      <contour>
        <pt x="222" y="578" on="0"/>
        <pt x="102" y="578" on="0"/>
        <pt x="102" y="610" on="1"/>
        <pt x="102" y="670" on="1"/>
        <pt x="102" y="702" on="0"/>
        <pt x="222" y="702" on="0"/>
        <pt x="222" y="670" on="1"/>
        <pt x="222" y="610" on="1"/>
      </contour>
    </TTGlyph>
    <TTGlyph name="dotlessi" xMin="59" yMin="-2" xMax="207" yMax="525">
      <contour>
        <pt x="59" y="30" on="1"/>
        <pt x="59" y="493" on="1"/>
        <pt x="59" y="525" on="0"/>
        <pt x="119" y="525" on="1"/>
        <pt x="147" y="525" on="1"/>
        <pt x="207" y="525" on="0"/>
        <pt x="207" y="493" on="1"/>
        <pt x="207" y="30" on="1"/>
        <pt x="207" y="-2" on="0"/>
        <pt x="147" y="-2" on="1"/>
        <pt x="119" y="-2" on="1"/>
        <pt x="59" y="-2" on="0"/>
      </contour>
    </TTGlyph>
    <TTGlyph name="e" xMin="42" yMin="-8" xMax="501" yMax="531">
      <contour>
        <pt x="171" y="-8" on="0"/>
        <pt x="42" y="133" on="0"/>
        <pt x="42" y="399" on="0"/>
        <pt x="171" y="531" on="0"/>
        <pt x="396" y="531" on="0"/>
        <pt x="501" y="387" on="0"/>
        <pt x="501" y="273" on="1"/>
        <pt x="501" y="261" on="0"/>
        <pt x="460" y="214" on="0"/>
        <pt x="450" y="214" on="1"/>
        <pt x="195" y="214" on="1"/>
        <pt x="200" y="157" on="0"/>
        <pt x="258" y="109" on="0"/>
        <pt x="348" y="109" on="0"/>
        <pt x="430" y="140" on="0"/>
        <pt x="431" y="140" on="1"/>
        <pt x="446" y="140" on="0"/>
        <pt x="483" y="81" on="0"/>
        <pt x="483" y="64" on="1"/>
        <pt x="483" y="31" on="0"/>
        <pt x="358" y="-8" on="0"/>
        <pt x="303" y="-8" on="1"/>
      </contour>
      <contour>
        <pt x="357" y="313" on="1"/>
        <pt x="357" y="359" on="0"/>
        <pt x="321" y="414" on="0"/>
        <pt x="285" y="414" on="1"/>
        <pt x="211" y="414" on="0"/>
        <pt x="195" y="313" on="1"/>
      </contour>
    </TTGlyph>
    <TTGlyph name="eacute" xMin="42" yMin="-8" xMax="501" yMax="754">
      <contour>
        <pt x="171" y="-8" on="0"/>
        <pt x="42" y="133" on="0"/>
        <pt x="42" y="399" on="0"/>
        <pt x="171" y="531" on="0"/>
        <pt x="396" y="531" on="0"/>
        <pt x="501" y="387" on="0"/>
        <pt x="501" y="273" on="1"/>
        <pt x="501" y="261" on="0"/>
        <pt x="460" y="214" on="0"/>
        <pt x="450" y="214" on="1"/>
        <pt x="195" y="214" on="1"/>
        <pt x="200" y="157" on="0"/>
        <pt x="258" y="109" on="0"/>
        <pt x="348" y="109" on="0"/>
        <pt x="430" y="140" on="0"/>
        <pt x="431" y="140" on="1"/>
        <pt x="446" y="140" on="0"/>
        <pt x="483" y="81" on="0"/>
        <pt x="483" y="64" on="1"/>
        <pt x="483" y="31" on="0"/>
        <pt x="358" y="-8" on="0"/>
        <pt x="303" y="-8" on="1"/>
      </contour>
      <contour>
        <pt x="357" y="313" on="1"/>
        <pt x="357" y="359" on="0"/>
        <pt x="321" y="414" on="0"/>
        <pt x="285" y="414" on="1"/>
        <pt x="211" y="414" on="0"/>
        <pt x="195" y="313" on="1"/>
      </contour>
      <contour>
        <pt x="235" y="595" on="1"/>
        <pt x="204" y="595" on="0"/>
        <pt x="204" y="610" on="1"/>
        <pt x="204" y="620" on="0"/>
        <pt x="233" y="664" on="0"/>
        <pt x="257" y="706" on="0"/>
        <pt x="269" y="727" on="1"/>
        <pt x="284" y="754" on="0"/>
        <pt x="414" y="754" on="0"/>
        <pt x="414" y="740" on="1"/>
        <pt x="414" y="734" on="0"/>
        <pt x="402" y="718" on="0"/>
        <pt x="366" y="681" on="0"/>
        <pt x="352" y="666" on="0"/>
        <pt x="324" y="635" on="0"/>
        <pt x="310" y="620" on="1"/>
        <pt x="287" y="595" on="0"/>
      </contour>
    </TTGlyph>
    <TTGlyph name="ecircumflex" xMin="42" yMin="-8" xMax="501" yMax="728">
      <contour>
        <pt x="171" y="-8" on="0"/>
        <pt x="42" y="133" on="0"/>
        <pt x="42" y="399" on="0"/>
        <pt x="171" y="531" on="0"/>
        <pt x="396" y="531" on="0"/>
        <pt x="501" y="387" on="0"/>
        <pt x="501" y="273" on="1"/>
        <pt x="501" y="261" on="0"/>
        <pt x="460" y="214" on="0"/>
        <pt x="450" y="214" on="1"/>
        <pt x="195" y="214" on="1"/>
        <pt x="200" y="157" on="0"/>
        <pt x="258" y="109" on="0"/>
        <pt x="348" y="109" on="0"/>
        <pt x="430" y="140" on="0"/>
        <pt x="431" y="140" on="1"/>
        <pt x="446" y="140" on="0"/>
        <pt x="483" y="81" on="0"/>
        <pt x="483" y="64" on="1"/>
        <pt x="483" y="31" on="0"/>
        <pt x="358" y="-8" on="0"/>
        <pt x="303" y="-8" on="1"/>
      </contour>
      <contour>
        <pt x="357" y="313" on="1"/>
        <pt x="357" y="359" on="0"/>
        <pt x="321" y="414" on="0"/>
        <pt x="285" y="414" on="1"/>
        <pt x="211" y="414" on="0"/>
        <pt x="195" y="313" on="1"/>
      </contour>
      <contour>
        <pt x="162" y="582" on="1"/>
        <pt x="142" y="582" on="0"/>
        <pt x="142" y="592" on="1"/>
        <pt x="142" y="598" on="0"/>
        <pt x="148" y="607" on="1"/>
        <pt x="213" y="709" on="1"/>
        <pt x="225" y="728" on="0"/>
        <pt x="274" y="728" on="1"/>
        <pt x="285" y="728" on="1"/>
        <pt x="334" y="728" on="0"/>
        <pt x="346" y="709" on="1"/>
        <pt x="411" y="607" on="1"/>
        <pt x="417" y="598" on="0"/>
        <pt x="417" y="592" on="1"/>
        <pt x="417" y="582" on="0"/>
        <pt x="397" y="582" on="1"/>
        <pt x="375" y="582" on="1"/>
        <pt x="323" y="582" on="0"/>
        <pt x="307" y="606" on="1"/>
        <pt x="279" y="646" on="1"/>
        <pt x="251" y="607" on="1"/>
        <pt x="233" y="582" on="0"/>
        <pt x="184" y="582" on="1"/>
      </contour>
    </TTGlyph>
    <TTGlyph name="edieresis" xMin="42" yMin="-8" xMax="501" yMax="702">
      <contour>
        <pt x="171" y="-8" on="0"/>
        <pt x="42" y="133" on="0"/>
        <pt x="42" y="399" on="0"/>
        <pt x="171" y="531" on="0"/>
        <pt x="396" y="531" on="0"/>
        <pt x="501" y="387" on="0"/>
        <pt x="501" y="273" on="1"/>
        <pt x="501" y="261" on="0"/>
        <pt x="460" y="214" on="0"/>
        <pt x="450" y="214" on="1"/>
        <pt x="195" y="214" on="1"/>
        <pt x="200" y="157" on="0"/>
        <pt x="258" y="109" on="0"/>
        <pt x="348" y="109" on="0"/>
        <pt x="430" y="140" on="0"/>
        <pt x="431" y="140" on="1"/>
        <pt x="446" y="140" on="0"/>
        <pt x="483" y="81" on="0"/>
        <pt x="483" y="64" on="1"/>
        <pt x="483" y="31" on="0"/>
        <pt x="358" y="-8" on="0"/>
        <pt x="303" y="-8" on="1"/>
      </contour>
      <contour>
        <pt x="357" y="313" on="1"/>
        <pt x="357" y="359" on="0"/>
        <pt x="321" y="414" on="0"/>
        <pt x="285" y="414" on="1"/>
        <pt x="211" y="414" on="0"/>
        <pt x="195" y="313" on="1"/>
      </contour>
      <contour>
        <pt x="430" y="578" on="0"/>
        <pt x="310" y="578" on="0"/>
        <pt x="310" y="610" on="1"/>
        <pt x="310" y="670" on="1"/>
        <pt x="310" y="702" on="0"/>
        <pt x="430" y="702" on="0"/>
        <pt x="430" y="670" on="1"/>
        <pt x="430" y="610" on="1"/>
      </contour>
      <contour>
        <pt x="250" y="578" on="0"/>
        <pt x="130" y="578" on="0"/>
        <pt x="130" y="610" on="1"/>
        <pt x="130" y="670" on="1"/>
        <pt x="130" y="702" on="0"/>
        <pt x="250" y="702" on="0"/>
        <pt x="250" y="670" on="1"/>
        <pt x="250" y="610" on="1"/>
      </contour>
    </TTGlyph>
    <TTGlyph name="egrave" xMin="42" yMin="-8" xMax="501" yMax="754">
      <contour>
        <pt x="171" y="-8" on="0"/>
        <pt x="42" y="133" on="0"/>
        <pt x="42" y="399" on="0"/>
        <pt x="171" y="531" on="0"/>
        <pt x="396" y="531" on="0"/>
        <pt x="501" y="387" on="0"/>
        <pt x="501" y="273" on="1"/>
        <pt x="501" y="261" on="0"/>
        <pt x="460" y="214" on="0"/>
        <pt x="450" y="214" on="1"/>
        <pt x="195" y="214" on="1"/>
        <pt x="200" y="157" on="0"/>
        <pt x="258" y="109" on="0"/>
        <pt x="348" y="109" on="0"/>
        <pt x="430" y="140" on="0"/>
        <pt x="431" y="140" on="1"/>
        <pt x="446" y="140" on="0"/>
        <pt x="483" y="81" on="0"/>
        <pt x="483" y="64" on="1"/>
        <pt x="483" y="31" on="0"/>
        <pt x="358" y="-8" on="0"/>
        <pt x="303" y="-8" on="1"/>
      </contour>
      <contour>
        <pt x="357" y="313" on="1"/>
        <pt x="357" y="359" on="0"/>
        <pt x="321" y="414" on="0"/>
        <pt x="285" y="414" on="1"/>
        <pt x="211" y="414" on="0"/>
        <pt x="195" y="313" on="1"/>
      </contour>
      <contour>
        <pt x="341" y="595" on="1"/>
        <pt x="289" y="595" on="0"/>
        <pt x="236" y="653" on="0"/>
        <pt x="173" y="720" on="0"/>
        <pt x="162" y="734" on="0"/>
        <pt x="162" y="740" on="1"/>
        <pt x="162" y="754" on="0"/>
        <pt x="292" y="754" on="0"/>
        <pt x="307" y="727" on="1"/>
        <pt x="319" y="706" on="0"/>
        <pt x="343" y="664" on="0"/>
        <pt x="357" y="643" on="0"/>
        <pt x="362" y="633" on="1"/>
        <pt x="372" y="616" on="0"/>
        <pt x="372" y="610" on="1"/>
        <pt x="372" y="595" on="0"/>
      </contour>
    </TTGlyph>
    <TTGlyph name="eight" xMin="29" yMin="-8" xMax="506" yMax="708">
      <contour>
        <pt x="29" y="201" on="1"/>
        <pt x="29" y="268" on="0"/>
        <pt x="86" y="358" on="0"/>
        <pt x="130" y="375" on="1"/>
        <pt x="56" y="425" on="0"/>
        <pt x="56" y="519" on="1"/>
        <pt x="56" y="598" on="0"/>
        <pt x="170" y="708" on="0"/>
        <pt x="370" y="708" on="0"/>
        <pt x="483" y="607" on="0"/>
        <pt x="483" y="475" on="0"/>
        <pt x="438" y="408" on="0"/>
        <pt x="396" y="385" on="1"/>
        <pt x="506" y="335" on="0"/>
        <pt x="506" y="192" on="1"/>
        <pt x="506" y="117" on="0"/>
        <pt x="453" y="58" on="1"/>
        <pt x="426" y="28" on="0"/>
        <pt x="332" y="-8" on="0"/>
        <pt x="271" y="-8" on="1"/>
        <pt x="150" y="-8" on="0"/>
        <pt x="29" y="111" on="0"/>
      </contour>
      <contour>
        <pt x="339" y="524" on="1"/>
        <pt x="339" y="554" on="0"/>
        <pt x="299" y="591" on="0"/>
        <pt x="242" y="591" on="0"/>
        <pt x="202" y="555" on="0"/>
        <pt x="202" y="489" on="0"/>
        <pt x="244" y="449" on="0"/>
        <pt x="285" y="432" on="1"/>
        <pt x="339" y="468" on="0"/>
      </contour>
      <contour>
        <pt x="178" y="210" on="1"/>
        <pt x="178" y="164" on="0"/>
        <pt x="226" y="109" on="0"/>
        <pt x="310" y="109" on="0"/>
        <pt x="356" y="165" on="0"/>
        <pt x="356" y="228" on="0"/>
        <pt x="338" y="270" on="0"/>
        <pt x="318" y="284" on="1"/>
        <pt x="285" y="308" on="0"/>
        <pt x="233" y="326" on="1"/>
        <pt x="178" y="286" on="0"/>
      </contour>
    </TTGlyph>
    <TTGlyph name="ellipsis" xMin="24" yMin="-2" xMax="596" yMax="154">
      <contour>
        <pt x="444" y="30" on="1"/>
        <pt x="444" y="122" on="1"/>
        <pt x="444" y="154" on="0"/>
        <pt x="504" y="154" on="1"/>
        <pt x="536" y="154" on="1"/>
        <pt x="596" y="154" on="0"/>
        <pt x="596" y="122" on="1"/>
        <pt x="596" y="30" on="1"/>
        <pt x="596" y="-2" on="0"/>
        <pt x="536" y="-2" on="1"/>
        <pt x="504" y="-2" on="1"/>
        <pt x="444" y="-2" on="0"/>
      </contour>
      <contour>
        <pt x="234" y="30" on="1"/>
        <pt x="234" y="122" on="1"/>
        <pt x="234" y="154" on="0"/>
        <pt x="294" y="154" on="1"/>
        <pt x="326" y="154" on="1"/>
        <pt x="386" y="154" on="0"/>
        <pt x="386" y="122" on="1"/>
        <pt x="386" y="30" on="1"/>
        <pt x="386" y="-2" on="0"/>
        <pt x="326" y="-2" on="1"/>
        <pt x="294" y="-2" on="1"/>
        <pt x="234" y="-2" on="0"/>
      </contour>
      <contour>
        <pt x="24" y="30" on="1"/>
        <pt x="24" y="122" on="1"/>
        <pt x="24" y="154" on="0"/>
        <pt x="84" y="154" on="1"/>
        <pt x="116" y="154" on="1"/>
        <pt x="176" y="154" on="0"/>
        <pt x="176" y="122" on="1"/>
        <pt x="176" y="30" on="1"/>
        <pt x="176" y="-2" on="0"/>
        <pt x="116" y="-2" on="1"/>
        <pt x="84" y="-2" on="1"/>
        <pt x="24" y="-2" on="0"/>
      </contour>
    </TTGlyph>
    <TTGlyph name="emdash" xMin="0" yMin="212" xMax="1000" yMax="319">
      <contour>
        <pt x="30" y="212" on="1"/>
        <pt x="0" y="212" on="0"/>
        <pt x="0" y="262" on="1"/>
        <pt x="0" y="269" on="1"/>
        <pt x="0" y="319" on="0"/>
        <pt x="30" y="319" on="1"/>
        <pt x="970" y="319" on="1"/>
        <pt x="1000" y="319" on="0"/>
        <pt x="1000" y="269" on="1"/>
        <pt x="1000" y="262" on="1"/>
        <pt x="1000" y="212" on="0"/>
        <pt x="970" y="212" on="1"/>
      </contour>
    </TTGlyph>
    <TTGlyph name="endash" xMin="0" yMin="212" xMax="500" yMax="319">
      <contour>
        <pt x="30" y="212" on="1"/>
        <pt x="0" y="212" on="0"/>
        <pt x="0" y="262" on="1"/>
        <pt x="0" y="269" on="1"/>
        <pt x="0" y="319" on="0"/>
        <pt x="30" y="319" on="1"/>
        <pt x="470" y="319" on="1"/>
        <pt x="500" y="319" on="0"/>
        <pt x="500" y="269" on="1"/>
        <pt x="500" y="262" on="1"/>
        <pt x="500" y="212" on="0"/>
        <pt x="470" y="212" on="1"/>
      </contour>
    </TTGlyph>
    <TTGlyph name="equal" xMin="41" yMin="86" xMax="519" yMax="374">
      <contour>
        <pt x="71" y="267" on="1"/>
        <pt x="41" y="267" on="0"/>
        <pt x="41" y="317" on="1"/>
        <pt x="41" y="324" on="1"/>
        <pt x="41" y="374" on="0"/>
        <pt x="71" y="374" on="1"/>
        <pt x="489" y="374" on="1"/>
        <pt x="519" y="374" on="0"/>
        <pt x="519" y="324" on="1"/>
        <pt x="519" y="317" on="1"/>
        <pt x="519" y="267" on="0"/>
        <pt x="489" y="267" on="1"/>
      </contour>
      <contour>
        <pt x="71" y="86" on="1"/>
        <pt x="41" y="86" on="0"/>
        <pt x="41" y="136" on="1"/>
        <pt x="41" y="143" on="1"/>
        <pt x="41" y="193" on="0"/>
        <pt x="71" y="193" on="1"/>
        <pt x="489" y="193" on="1"/>
        <pt x="519" y="193" on="0"/>
        <pt x="519" y="143" on="1"/>
        <pt x="519" y="136" on="1"/>
        <pt x="519" y="86" on="0"/>
        <pt x="489" y="86" on="1"/>
      </contour>
    </TTGlyph>
    <TTGlyph name="eth" xMin="42" yMin="-8" xMax="527" yMax="715">
      <contour>
        <pt x="42" y="131" on="0"/>
        <pt x="42" y="393" on="0"/>
        <pt x="166" y="531" on="0"/>
        <pt x="285" y="531" on="1"/>
        <pt x="304" y="531" on="0"/>
        <pt x="336" y="527" on="1"/>
        <pt x="324" y="554" on="0"/>
        <pt x="304" y="589" on="1"/>
        <pt x="249" y="581" on="0"/>
        <pt x="228" y="581" on="0"/>
        <pt x="204" y="607" on="0"/>
        <pt x="204" y="623" on="1"/>
        <pt x="204" y="636" on="0"/>
        <pt x="225" y="639" on="1"/>
        <pt x="268" y="645" on="1"/>
        <pt x="264" y="650" on="0"/>
        <pt x="253" y="663" on="1"/>
        <pt x="230" y="690" on="0"/>
        <pt x="230" y="696" on="1"/>
        <pt x="230" y="705" on="0"/>
        <pt x="249" y="708" on="1"/>
        <pt x="311" y="715" on="1"/>
        <pt x="335" y="715" on="0"/>
        <pt x="350" y="703" on="1"/>
        <pt x="363" y="693" on="0"/>
        <pt x="389" y="661" on="1"/>
        <pt x="455" y="670" on="0"/>
        <pt x="470" y="670" on="0"/>
        <pt x="494" y="643" on="0"/>
        <pt x="494" y="628" on="1"/>
        <pt x="494" y="615" on="0"/>
        <pt x="473" y="612" on="1"/>
        <pt x="427" y="606" on="1"/>
        <pt x="469" y="542" on="0"/>
        <pt x="527" y="357" on="0"/>
        <pt x="527" y="262" on="1"/>
        <pt x="527" y="131" on="0"/>
        <pt x="404" y="-8" on="0"/>
        <pt x="166" y="-8" on="0"/>
      </contour>
      <contour>
        <pt x="192" y="109" on="0"/>
        <pt x="377" y="109" on="0"/>
        <pt x="377" y="414" on="0"/>
        <pt x="192" y="414" on="0"/>
      </contour>
    </TTGlyph>
    <TTGlyph name="exclam" xMin="74" yMin="-2" xMax="257" yMax="702">
      <contour>
        <pt x="145" y="222" on="1"/>
        <pt x="116" y="222" on="0"/>
        <pt x="94" y="237" on="0"/>
        <pt x="94" y="254" on="1"/>
        <pt x="94" y="670" on="1"/>
        <pt x="94" y="702" on="0"/>
        <pt x="154" y="702" on="1"/>
        <pt x="197" y="702" on="1"/>
        <pt x="257" y="702" on="0"/>
        <pt x="257" y="674" on="1"/>
        <pt x="257" y="667" on="0"/>
        <pt x="207" y="254" on="1"/>
        <pt x="205" y="237" on="0"/>
        <pt x="185" y="222" on="0"/>
        <pt x="156" y="222" on="1"/>
      </contour>
      <contour>
        <pt x="74" y="30" on="1"/>
        <pt x="74" y="122" on="1"/>
        <pt x="74" y="154" on="0"/>
        <pt x="134" y="154" on="1"/>
        <pt x="166" y="154" on="1"/>
        <pt x="226" y="154" on="0"/>
        <pt x="226" y="122" on="1"/>
        <pt x="226" y="30" on="1"/>
        <pt x="226" y="-2" on="0"/>
        <pt x="166" y="-2" on="1"/>
        <pt x="134" y="-2" on="1"/>
        <pt x="74" y="-2" on="0"/>
      </contour>
    </TTGlyph>
    <TTGlyph name="exclamdown" xMin="47" yMin="-180" xMax="230" yMax="525">
      <contour>
        <pt x="138" y="369" on="1"/>
        <pt x="78" y="369" on="0"/>
        <pt x="78" y="401" on="1"/>
        <pt x="78" y="493" on="1"/>
        <pt x="78" y="525" on="0"/>
        <pt x="138" y="525" on="1"/>
        <pt x="170" y="525" on="1"/>
        <pt x="230" y="525" on="0"/>
        <pt x="230" y="493" on="1"/>
        <pt x="230" y="401" on="1"/>
        <pt x="230" y="369" on="0"/>
        <pt x="170" y="369" on="1"/>
      </contour>
      <contour>
        <pt x="47" y="-152" on="1"/>
        <pt x="47" y="-145" on="0"/>
        <pt x="97" y="268" on="1"/>
        <pt x="99" y="285" on="0"/>
        <pt x="119" y="300" on="0"/>
        <pt x="148" y="300" on="1"/>
        <pt x="159" y="300" on="1"/>
        <pt x="188" y="300" on="0"/>
        <pt x="210" y="285" on="0"/>
        <pt x="210" y="268" on="1"/>
        <pt x="210" y="-148" on="1"/>
        <pt x="210" y="-180" on="0"/>
        <pt x="150" y="-180" on="1"/>
        <pt x="107" y="-180" on="1"/>
        <pt x="47" y="-180" on="0"/>
      </contour>
    </TTGlyph>
    <TTGlyph name="f" xMin="31" yMin="-2" xMax="325" yMax="760">
      <contour>
        <pt x="294" y="639" on="1"/>
        <pt x="263" y="643" on="1"/>
        <pt x="227" y="643" on="0"/>
        <pt x="227" y="600" on="1"/>
        <pt x="227" y="523" on="1"/>
        <pt x="277" y="523" on="1"/>
        <pt x="307" y="523" on="0"/>
        <pt x="307" y="473" on="1"/>
        <pt x="307" y="456" on="1"/>
        <pt x="307" y="406" on="0"/>
        <pt x="277" y="406" on="1"/>
        <pt x="227" y="406" on="1"/>
        <pt x="227" y="30" on="1"/>
        <pt x="227" y="-2" on="0"/>
        <pt x="167" y="-2" on="1"/>
        <pt x="139" y="-2" on="1"/>
        <pt x="79" y="-2" on="0"/>
        <pt x="79" y="30" on="1"/>
        <pt x="79" y="406" on="1"/>
        <pt x="61" y="406" on="1"/>
        <pt x="31" y="406" on="0"/>
        <pt x="31" y="456" on="1"/>
        <pt x="31" y="473" on="1"/>
        <pt x="31" y="523" on="0"/>
        <pt x="61" y="523" on="1"/>
        <pt x="79" y="523" on="1"/>
        <pt x="79" y="598" on="1"/>
        <pt x="79" y="760" on="0"/>
        <pt x="225" y="760" on="1"/>
        <pt x="325" y="760" on="0"/>
        <pt x="325" y="711" on="1"/>
        <pt x="325" y="698" on="0"/>
        <pt x="307" y="639" on="0"/>
      </contour>
    </TTGlyph>
    <TTGlyph name="fi" xMin="17" yMin="-2" xMax="505" yMax="760">
      <contour>
        <pt x="280" y="639" on="1"/>
        <pt x="249" y="643" on="1"/>
        <pt x="213" y="643" on="0"/>
        <pt x="213" y="600" on="1"/>
        <pt x="213" y="523" on="1"/>
        <pt x="263" y="523" on="1"/>
        <pt x="293" y="523" on="0"/>
        <pt x="293" y="473" on="1"/>
        <pt x="293" y="456" on="1"/>
        <pt x="293" y="406" on="0"/>
        <pt x="263" y="406" on="1"/>
        <pt x="213" y="406" on="1"/>
        <pt x="213" y="30" on="1"/>
        <pt x="213" y="-2" on="0"/>
        <pt x="153" y="-2" on="1"/>
        <pt x="125" y="-2" on="1"/>
        <pt x="65" y="-2" on="0"/>
        <pt x="65" y="30" on="1"/>
        <pt x="65" y="406" on="1"/>
        <pt x="47" y="406" on="1"/>
        <pt x="17" y="406" on="0"/>
        <pt x="17" y="456" on="1"/>
        <pt x="17" y="473" on="1"/>
        <pt x="17" y="523" on="0"/>
        <pt x="47" y="523" on="1"/>
        <pt x="65" y="523" on="1"/>
        <pt x="65" y="598" on="1"/>
        <pt x="65" y="760" on="0"/>
        <pt x="211" y="760" on="1"/>
        <pt x="311" y="760" on="0"/>
        <pt x="311" y="711" on="1"/>
        <pt x="311" y="698" on="0"/>
        <pt x="293" y="639" on="0"/>
      </contour>
      <contour>
        <pt x="417" y="609" on="1"/>
        <pt x="357" y="609" on="0"/>
        <pt x="357" y="641" on="1"/>
        <pt x="357" y="722" on="1"/>
        <pt x="357" y="754" on="0"/>
        <pt x="417" y="754" on="1"/>
        <pt x="445" y="754" on="1"/>
        <pt x="505" y="754" on="0"/>
        <pt x="505" y="722" on="1"/>
        <pt x="505" y="641" on="1"/>
        <pt x="505" y="609" on="0"/>
        <pt x="445" y="609" on="1"/>
      </contour>
      <contour>
        <pt x="357" y="30" on="1"/>
        <pt x="357" y="493" on="1"/>
        <pt x="357" y="525" on="0"/>
        <pt x="417" y="525" on="1"/>
        <pt x="445" y="525" on="1"/>
        <pt x="505" y="525" on="0"/>
        <pt x="505" y="493" on="1"/>
        <pt x="505" y="30" on="1"/>
        <pt x="505" y="-2" on="0"/>
        <pt x="445" y="-2" on="1"/>
        <pt x="417" y="-2" on="1"/>
        <pt x="357" y="-2" on="0"/>
      </contour>
    </TTGlyph>
    <TTGlyph name="five" xMin="38" yMin="-8" xMax="490" yMax="700">
      <contour>
        <pt x="38" y="64" on="1"/>
        <pt x="38" y="80" on="0"/>
        <pt x="76" y="143" on="0"/>
        <pt x="92" y="143" on="1"/>
        <pt x="95" y="143" on="0"/>
        <pt x="114" y="134" on="1"/>
        <pt x="171" y="109" on="0"/>
        <pt x="282" y="109" on="0"/>
        <pt x="340" y="164" on="0"/>
        <pt x="340" y="267" on="0"/>
        <pt x="282" y="323" on="0"/>
        <pt x="215" y="323" on="1"/>
        <pt x="106" y="323" on="1"/>
        <pt x="85" y="323" on="0"/>
        <pt x="69" y="341" on="0"/>
        <pt x="69" y="363" on="1"/>
        <pt x="88" y="660" on="1"/>
        <pt x="90" y="681" on="0"/>
        <pt x="109" y="700" on="0"/>
        <pt x="130" y="700" on="1"/>
        <pt x="425" y="700" on="1"/>
        <pt x="455" y="700" on="0"/>
        <pt x="455" y="650" on="1"/>
        <pt x="455" y="623" on="1"/>
        <pt x="455" y="583" on="0"/>
        <pt x="425" y="583" on="1"/>
        <pt x="223" y="583" on="1"/>
        <pt x="213" y="440" on="1"/>
        <pt x="239" y="440" on="1"/>
        <pt x="361" y="440" on="0"/>
        <pt x="490" y="338" on="0"/>
        <pt x="490" y="216" on="1"/>
        <pt x="490" y="155" on="0"/>
        <pt x="445" y="65" on="0"/>
        <pt x="407" y="40" on="1"/>
        <pt x="334" y="-8" on="0"/>
        <pt x="150" y="-8" on="0"/>
        <pt x="38" y="34" on="0"/>
      </contour>
    </TTGlyph>
    <TTGlyph name="fl" xMin="17" yMin="-8" xMax="599" yMax="760">
      <contour>
        <pt x="280" y="639" on="1"/>
        <pt x="249" y="643" on="1"/>
        <pt x="213" y="643" on="0"/>
        <pt x="213" y="600" on="1"/>
        <pt x="213" y="523" on="1"/>
        <pt x="263" y="523" on="1"/>
        <pt x="293" y="523" on="0"/>
        <pt x="293" y="473" on="1"/>
        <pt x="293" y="456" on="1"/>
        <pt x="293" y="406" on="0"/>
        <pt x="263" y="406" on="1"/>
        <pt x="213" y="406" on="1"/>
        <pt x="213" y="30" on="1"/>
        <pt x="213" y="-2" on="0"/>
        <pt x="153" y="-2" on="1"/>
        <pt x="125" y="-2" on="1"/>
        <pt x="65" y="-2" on="0"/>
        <pt x="65" y="30" on="1"/>
        <pt x="65" y="406" on="1"/>
        <pt x="47" y="406" on="1"/>
        <pt x="17" y="406" on="0"/>
        <pt x="17" y="456" on="1"/>
        <pt x="17" y="473" on="1"/>
        <pt x="17" y="523" on="0"/>
        <pt x="47" y="523" on="1"/>
        <pt x="65" y="523" on="1"/>
        <pt x="65" y="598" on="1"/>
        <pt x="65" y="760" on="0"/>
        <pt x="211" y="760" on="1"/>
        <pt x="311" y="760" on="0"/>
        <pt x="311" y="711" on="1"/>
        <pt x="311" y="698" on="0"/>
        <pt x="293" y="639" on="0"/>
      </contour>
      <contour>
        <pt x="541" y="109" on="1"/>
        <pt x="568" y="113" on="1"/>
        <pt x="581" y="113" on="0"/>
        <pt x="599" y="54" on="0"/>
        <pt x="599" y="41" on="1"/>
        <pt x="599" y="-8" on="0"/>
        <pt x="503" y="-8" on="1"/>
        <pt x="357" y="-8" on="0"/>
        <pt x="357" y="154" on="1"/>
        <pt x="357" y="722" on="1"/>
        <pt x="357" y="754" on="0"/>
        <pt x="417" y="754" on="1"/>
        <pt x="445" y="754" on="1"/>
        <pt x="505" y="754" on="0"/>
        <pt x="505" y="722" on="1"/>
        <pt x="505" y="152" on="1"/>
        <pt x="505" y="109" on="0"/>
      </contour>
    </TTGlyph>
    <TTGlyph name="florin" xMin="-13" yMin="-207" xMax="357" yMax="760">
      <contour>
        <pt x="316" y="639" on="1"/>
        <pt x="286" y="643" on="1"/>
        <pt x="250" y="643" on="0"/>
        <pt x="244" y="600" on="1"/>
        <pt x="233" y="523" on="1"/>
        <pt x="283" y="523" on="1"/>
        <pt x="307" y="523" on="0"/>
        <pt x="307" y="492" on="1"/>
        <pt x="307" y="479" on="0"/>
        <pt x="303" y="455" on="1"/>
        <pt x="295" y="406" on="0"/>
        <pt x="266" y="406" on="1"/>
        <pt x="216" y="406" on="1"/>
        <pt x="135" y="-175" on="1"/>
        <pt x="130" y="-207" on="0"/>
        <pt x="71" y="-207" on="1"/>
        <pt x="43" y="-207" on="1"/>
        <pt x="10" y="-207" on="0"/>
        <pt x="-13" y="-192" on="0"/>
        <pt x="-13" y="-175" on="1"/>
        <pt x="68" y="406" on="1"/>
        <pt x="50" y="406" on="1"/>
        <pt x="25" y="406" on="0"/>
        <pt x="25" y="437" on="1"/>
        <pt x="25" y="488" on="0"/>
        <pt x="44" y="511" on="1"/>
        <pt x="53" y="523" on="0"/>
        <pt x="67" y="523" on="1"/>
        <pt x="85" y="523" on="1"/>
        <pt x="95" y="598" on="1"/>
        <pt x="117" y="760" on="0"/>
        <pt x="264" y="760" on="1"/>
        <pt x="357" y="760" on="0"/>
        <pt x="357" y="711" on="1"/>
        <pt x="357" y="696" on="0"/>
        <pt x="329" y="639" on="0"/>
      </contour>
    </TTGlyph>
    <TTGlyph name="four" xMin="11" yMin="-2" xMax="526" yMax="702">
      <contour>
        <pt x="48" y="142" on="1"/>
        <pt x="36" y="142" on="0"/>
        <pt x="11" y="212" on="0"/>
        <pt x="11" y="242" on="0"/>
        <pt x="13" y="246" on="1"/>
        <pt x="310" y="683" on="1"/>
        <pt x="323" y="702" on="0"/>
        <pt x="371" y="702" on="1"/>
        <pt x="398" y="702" on="1"/>
        <pt x="458" y="702" on="0"/>
        <pt x="458" y="670" on="1"/>
        <pt x="458" y="259" on="1"/>
        <pt x="496" y="259" on="1"/>
        <pt x="526" y="259" on="0"/>
        <pt x="526" y="209" on="1"/>
        <pt x="526" y="192" on="1"/>
        <pt x="526" y="142" on="0"/>
        <pt x="496" y="142" on="1"/>
        <pt x="458" y="142" on="1"/>
        <pt x="458" y="30" on="1"/>
        <pt x="458" y="-2" on="0"/>
        <pt x="398" y="-2" on="1"/>
        <pt x="370" y="-2" on="1"/>
        <pt x="310" y="-2" on="0"/>
        <pt x="310" y="30" on="1"/>
        <pt x="310" y="142" on="1"/>
      </contour>
      <contour>
        <pt x="310" y="259" on="1"/>
        <pt x="310" y="488" on="1"/>
        <pt x="306" y="489" on="1"/>
        <pt x="160" y="259" on="1"/>
      </contour>
    </TTGlyph>
    <TTGlyph name="fraction" xMin="-89" yMin="0" xMax="359" yMax="700">
      <contour>
        <pt x="-51" y="0" on="1"/>
        <pt x="-68" y="0" on="1"/>
        <pt x="-89" y="0" on="0"/>
        <pt x="-89" y="11" on="1"/>
        <pt x="-89" y="17" on="0"/>
        <pt x="-83" y="26" on="1"/>
        <pt x="276" y="674" on="1"/>
        <pt x="290" y="700" on="0"/>
        <pt x="321" y="700" on="1"/>
        <pt x="338" y="700" on="1"/>
        <pt x="359" y="700" on="0"/>
        <pt x="359" y="689" on="1"/>
        <pt x="359" y="683" on="0"/>
        <pt x="353" y="674" on="1"/>
        <pt x="-6" y="26" on="1"/>
        <pt x="-21" y="0" on="0"/>
      </contour>
    </TTGlyph>
    <TTGlyph name="g" xMin="24" yMin="-212" xMax="535" yMax="531">
      <contour>
        <pt x="24" y="-74" on="1"/>
        <pt x="24" y="7" on="0"/>
        <pt x="115" y="42" on="1"/>
        <pt x="116" y="46" on="1"/>
        <pt x="73" y="68" on="0"/>
        <pt x="73" y="172" on="0"/>
        <pt x="133" y="204" on="1"/>
        <pt x="52" y="249" on="0"/>
        <pt x="52" y="444" on="0"/>
        <pt x="171" y="531" on="0"/>
        <pt x="267" y="531" on="1"/>
        <pt x="306" y="531" on="0"/>
        <pt x="344" y="523" on="1"/>
        <pt x="505" y="523" on="1"/>
        <pt x="535" y="523" on="0"/>
        <pt x="535" y="473" on="1"/>
        <pt x="535" y="456" on="1"/>
        <pt x="535" y="409" on="0"/>
        <pt x="486" y="409" on="0"/>
        <pt x="468" y="413" on="1"/>
        <pt x="466" y="409" on="1"/>
        <pt x="482" y="388" on="0"/>
        <pt x="482" y="353" on="1"/>
        <pt x="482" y="264" on="0"/>
        <pt x="369" y="176" on="0"/>
        <pt x="278" y="176" on="1"/>
        <pt x="217" y="176" on="0"/>
        <pt x="217" y="149" on="1"/>
        <pt x="217" y="120" on="0"/>
        <pt x="296" y="113" on="1"/>
        <pt x="375" y="106" on="0"/>
        <pt x="442" y="80" on="1"/>
        <pt x="475" y="67" on="0"/>
        <pt x="520" y="4" on="0"/>
        <pt x="520" y="-42" on="1"/>
        <pt x="520" y="-119" on="0"/>
        <pt x="378" y="-212" on="0"/>
        <pt x="262" y="-212" on="1"/>
        <pt x="24" y="-212" on="0"/>
      </contour>
      <contour>
        <pt x="234" y="283" on="0"/>
        <pt x="300" y="283" on="0"/>
        <pt x="342" y="318" on="0"/>
        <pt x="342" y="389" on="0"/>
        <pt x="300" y="424" on="0"/>
        <pt x="234" y="424" on="0"/>
        <pt x="192" y="389" on="0"/>
        <pt x="192" y="318" on="0"/>
      </contour>
      <contour>
        <pt x="168" y="-50" on="1"/>
        <pt x="168" y="-95" on="0"/>
        <pt x="376" y="-95" on="0"/>
        <pt x="376" y="-46" on="1"/>
        <pt x="376" y="-23" on="0"/>
        <pt x="309" y="-2" on="0"/>
        <pt x="222" y="4" on="1"/>
        <pt x="168" y="-15" on="0"/>
      </contour>
    </TTGlyph>
    <TTGlyph name="germandbls" xMin="58" yMin="-2" xMax="533" yMax="708">
      <contour>
        <pt x="58" y="30" on="1"/>
        <pt x="58" y="490" on="1"/>
        <pt x="58" y="589" on="0"/>
        <pt x="186" y="708" on="0"/>
        <pt x="384" y="708" on="0"/>
        <pt x="508" y="612" on="0"/>
        <pt x="508" y="530" on="1"/>
        <pt x="508" y="425" on="0"/>
        <pt x="415" y="387" on="1"/>
        <pt x="415" y="383" on="1"/>
        <pt x="533" y="338" on="0"/>
        <pt x="533" y="210" on="1"/>
        <pt x="533" y="118" on="0"/>
        <pt x="406" y="0" on="0"/>
        <pt x="299" y="0" on="1"/>
        <pt x="276" y="0" on="1"/>
        <pt x="246" y="0" on="0"/>
        <pt x="246" y="50" on="1"/>
        <pt x="246" y="67" on="1"/>
        <pt x="246" y="117" on="0"/>
        <pt x="276" y="117" on="1"/>
        <pt x="290" y="117" on="1"/>
        <pt x="332" y="117" on="0"/>
        <pt x="383" y="168" on="0"/>
        <pt x="383" y="256" on="0"/>
        <pt x="326" y="311" on="0"/>
        <pt x="276" y="311" on="1"/>
        <pt x="246" y="311" on="0"/>
        <pt x="246" y="361" on="1"/>
        <pt x="246" y="378" on="1"/>
        <pt x="246" y="425" on="0"/>
        <pt x="273" y="428" on="1"/>
        <pt x="311" y="429" on="0"/>
        <pt x="358" y="475" on="0"/>
        <pt x="358" y="538" on="0"/>
        <pt x="321" y="583" on="0"/>
        <pt x="249" y="583" on="0"/>
        <pt x="206" y="538" on="0"/>
        <pt x="206" y="502" on="1"/>
        <pt x="206" y="30" on="1"/>
        <pt x="206" y="-2" on="0"/>
        <pt x="146" y="-2" on="1"/>
        <pt x="118" y="-2" on="1"/>
        <pt x="58" y="-2" on="0"/>
      </contour>
    </TTGlyph>
    <TTGlyph name="grave" xMin="54" yMin="595" xMax="264" yMax="754">
      <contour>
        <pt x="233" y="595" on="1"/>
        <pt x="181" y="595" on="0"/>
        <pt x="128" y="653" on="0"/>
        <pt x="65" y="720" on="0"/>
        <pt x="54" y="734" on="0"/>
        <pt x="54" y="740" on="1"/>
        <pt x="54" y="754" on="0"/>
        <pt x="184" y="754" on="0"/>
        <pt x="199" y="727" on="1"/>
        <pt x="211" y="706" on="0"/>
        <pt x="235" y="664" on="0"/>
        <pt x="249" y="643" on="0"/>
        <pt x="254" y="633" on="1"/>
        <pt x="264" y="616" on="0"/>
        <pt x="264" y="610" on="1"/>
        <pt x="264" y="595" on="0"/>
      </contour>
    </TTGlyph>
    <TTGlyph name="greater" xMin="38" yMin="10" xMax="516" yMax="479">
      <contour>
        <pt x="53" y="10" on="1"/>
        <pt x="38" y="10" on="0"/>
        <pt x="38" y="52" on="1"/>
        <pt x="38" y="68" on="1"/>
        <pt x="38" y="117" on="0"/>
        <pt x="68" y="129" on="1"/>
        <pt x="361" y="245" on="1"/>
        <pt x="69" y="361" on="1"/>
        <pt x="39" y="373" on="0"/>
        <pt x="39" y="422" on="1"/>
        <pt x="39" y="438" on="1"/>
        <pt x="39" y="479" on="0"/>
        <pt x="54" y="479" on="1"/>
        <pt x="60" y="479" on="0"/>
        <pt x="69" y="476" on="1"/>
        <pt x="488" y="297" on="1"/>
        <pt x="516" y="284" on="0"/>
        <pt x="516" y="255" on="1"/>
        <pt x="516" y="236" on="1"/>
        <pt x="516" y="205" on="0"/>
        <pt x="488" y="194" on="1"/>
        <pt x="68" y="14" on="1"/>
        <pt x="60" y="10" on="0"/>
      </contour>
    </TTGlyph>
    <TTGlyph name="greaterequal" xMin="41" yMin="0" xMax="518" yMax="559">
      <contour>
        <pt x="56" y="128" on="1"/>
        <pt x="42" y="128" on="0"/>
        <pt x="42" y="171" on="1"/>
        <pt x="42" y="197" on="1"/>
        <pt x="42" y="227" on="0"/>
        <pt x="70" y="237" on="1"/>
        <pt x="363" y="344" on="1"/>
        <pt x="71" y="451" on="1"/>
        <pt x="43" y="462" on="0"/>
        <pt x="43" y="511" on="1"/>
        <pt x="43" y="517" on="1"/>
        <pt x="43" y="559" on="0"/>
        <pt x="57" y="559" on="1"/>
        <pt x="62" y="559" on="0"/>
        <pt x="71" y="556" on="1"/>
        <pt x="490" y="395" on="1"/>
        <pt x="518" y="384" on="0"/>
        <pt x="518" y="354" on="1"/>
        <pt x="518" y="335" on="1"/>
        <pt x="518" y="305" on="0"/>
        <pt x="490" y="294" on="1"/>
        <pt x="70" y="132" on="1"/>
        <pt x="58" y="128" on="0"/>
      </contour>
      <contour>
        <pt x="41" y="50" on="1"/>
        <pt x="41" y="57" on="1"/>
        <pt x="41" y="107" on="0"/>
        <pt x="71" y="107" on="1"/>
        <pt x="488" y="107" on="1"/>
        <pt x="518" y="107" on="0"/>
        <pt x="518" y="57" on="1"/>
        <pt x="518" y="50" on="1"/>
        <pt x="518" y="0" on="0"/>
        <pt x="488" y="0" on="1"/>
        <pt x="71" y="0" on="1"/>
        <pt x="41" y="0" on="0"/>
      </contour>
    </TTGlyph>
    <TTGlyph name="guillemotleft" xMin="27" yMin="46" xMax="455" yMax="469">
      <contour>
        <pt x="226" y="233" on="0"/>
        <pt x="226" y="283" on="0"/>
        <pt x="242" y="302" on="1"/>
        <pt x="369" y="455" on="1"/>
        <pt x="382" y="469" on="0"/>
        <pt x="412" y="469" on="0"/>
        <pt x="455" y="436" on="0"/>
        <pt x="455" y="410" on="0"/>
        <pt x="446" y="398" on="1"/>
        <pt x="336" y="258" on="1"/>
        <pt x="446" y="118" on="1"/>
        <pt x="455" y="106" on="0"/>
        <pt x="455" y="80" on="0"/>
        <pt x="413" y="46" on="0"/>
        <pt x="382" y="46" on="0"/>
        <pt x="369" y="61" on="1"/>
        <pt x="242" y="214" on="1"/>
      </contour>
      <contour>
        <pt x="27" y="233" on="0"/>
        <pt x="27" y="283" on="0"/>
        <pt x="43" y="302" on="1"/>
        <pt x="170" y="455" on="1"/>
        <pt x="183" y="469" on="0"/>
        <pt x="213" y="469" on="0"/>
        <pt x="256" y="436" on="0"/>
        <pt x="256" y="410" on="0"/>
        <pt x="247" y="398" on="1"/>
        <pt x="137" y="258" on="1"/>
        <pt x="247" y="118" on="1"/>
        <pt x="256" y="106" on="0"/>
        <pt x="256" y="80" on="0"/>
        <pt x="214" y="46" on="0"/>
        <pt x="184" y="46" on="0"/>
        <pt x="170" y="61" on="1"/>
        <pt x="43" y="214" on="1"/>
      </contour>
    </TTGlyph>
    <TTGlyph name="guillemotright" xMin="42" yMin="46" xMax="470" yMax="469">
      <contour>
        <pt x="283" y="46" on="0"/>
        <pt x="241" y="80" on="0"/>
        <pt x="241" y="106" on="0"/>
        <pt x="250" y="118" on="1"/>
        <pt x="360" y="258" on="1"/>
        <pt x="250" y="398" on="1"/>
        <pt x="241" y="410" on="0"/>
        <pt x="241" y="436" on="0"/>
        <pt x="284" y="469" on="0"/>
        <pt x="314" y="469" on="0"/>
        <pt x="327" y="455" on="1"/>
        <pt x="454" y="302" on="1"/>
        <pt x="470" y="283" on="0"/>
        <pt x="470" y="233" on="0"/>
        <pt x="454" y="214" on="1"/>
        <pt x="327" y="61" on="1"/>
        <pt x="314" y="46" on="0"/>
      </contour>
      <contour>
        <pt x="84" y="46" on="0"/>
        <pt x="42" y="80" on="0"/>
        <pt x="42" y="106" on="0"/>
        <pt x="51" y="118" on="1"/>
        <pt x="161" y="258" on="1"/>
        <pt x="51" y="398" on="1"/>
        <pt x="42" y="410" on="0"/>
        <pt x="42" y="436" on="0"/>
        <pt x="85" y="469" on="0"/>
        <pt x="115" y="469" on="0"/>
        <pt x="128" y="455" on="1"/>
        <pt x="255" y="302" on="1"/>
        <pt x="271" y="283" on="0"/>
        <pt x="271" y="233" on="0"/>
        <pt x="255" y="214" on="1"/>
        <pt x="128" y="61" on="1"/>
        <pt x="114" y="46" on="0"/>
      </contour>
    </TTGlyph>
</ttFont>
